<?xml version="1.0" encoding="UTF-8"?>
<svg id="Layer_2" xmlns="http://www.w3.org/2000/svg" viewBox="0 0 79.02 161.48">
  <defs>
    <style>
      .cls-1 {
        fill: #0071bc;
      }

      .cls-2 {
        fill: #fff;
      }

      .cls-3 {
        fill: red;
        isolation: isolate;
        opacity: .43;
      }
    </style>
  </defs>
  <g id="Layer_2-2" data-name="Layer_2">
    <g id="Needle">
      <path id="liquid" class="cls-3" d="M49.16,9.56h-19.2c-6.32,0-11.43,5.12-11.43,11.43v57.46h42.07V20.99c0-6.32-5.12-11.43-11.43-11.43h0Z"/>
      <path id="handle" class="cls-1" d="M58.22,78.55H20.79c-.88,0-1.59.71-1.59,1.59v.41c0,.58.33,1.07.79,1.34-.11.21-.18.44-.18.7v.41c0,.88.71,1.59,1.59,1.59h15.65v.04h-1.75v72.59h-9.84c-.4,0-.73.33-.73.73v2.8c0,.4.33.73.73.73h28.1c.4,0,.73-.33.73-.73v-2.8c0-.4-.33-.73-.73-.73h-9.84v-72.59h-1.74v-.04h15.63c.88,0,1.59-.71,1.59-1.59v-.41c0-.25-.07-.48-.18-.7.47-.28.79-.76.79-1.34v-.41c0-.88-.71-1.59-1.59-1.59Z"/>
      <path id="white" class="cls-2" d="M78.01,116.58h-16.54V18.07c0-5.27-4.27-9.54-9.54-9.54h-10.75V1.67c0-.92-.75-1.67-1.67-1.67s-1.67.75-1.67,1.67v6.86h-10.75c-5.27,0-9.54,4.27-9.54,9.54v98.51H1.01c-.56,0-1.01.45-1.01,1.01v1.39c0,.56.45,1.01,1.01,1.01h16.54v.83c0,5.27,4.27,9.54,9.54,9.54h24.84c5.27,0,9.54-4.27,9.54-9.54v-.83h16.54c.56,0,1.01-.45,1.01-1.01v-1.39c0-.56-.45-1.01-1.01-1.01ZM34.23,113.83h-15.12v-33.24h3.94v-2.13h-3.94v-4.58h8.26v-2.13h-8.26v-4.58h3.94v-2.13h-3.94v-4.58h8.26v-2.13h-8.26v-4.58h4.32v-2.13h-4.32v-4.58h8.63v-2.13h-8.63v-4.58h4.32v-2.13h-4.32v-4.58h8.63v-2.13h-8.63v-10.28h15.12v92.66-.04ZM19.1,19.58c0-4.97,4.03-9.01,9.01-9.01h9.73v4.81c0,.92.75,1.67,1.67,1.67s1.67-.75,1.67-1.67v-4.81h9.73c4.97,0,9.01,4.03,9.01,9.01H19.1Z"/>
    </g>
  </g>
</svg>