<?xml version="1.0" encoding="UTF-8"?>
<svg id="player" xmlns="http://www.w3.org/2000/svg" viewBox="0 0 100 100">
  <defs>
    <style>
      .cls-1 {
        fill: #8d9295;
      }

      .cls-2 {
        fill: #0571ad;
      }

      .cls-3 {
        fill: #01508d;
      }

      .cls-4 {
        fill: #ceebf2;
      }

      .cls-5 {
        fill: #fff;
      }

      .cls-6 {
        fill: #abdeea;
      }

      .cls-7 {
        fill: #848386;
      }

      .cls-8 {
        fill: #0f81b1;
      }

      .cls-9 {
        fill: #6a7175;
      }

      .cls-10 {
        fill: #141a31;
      }

      .cls-11 {
        fill: #586266;
      }

      .cls-12 {
        fill: #5f5d60;
      }

      .cls-13 {
        fill: #99a3a9;
      }

      .cls-14 {
        fill: #00a4cf;
      }

      .cls-15 {
        fill: #b9bdc0;
      }

      .cls-16 {
        fill: #005e9b;
      }

      .cls-17 {
        fill: #1e386a;
      }

      .cls-18 {
        fill: #1bc0e2;
      }

      .cls-19 {
        fill: #d4d9dc;
      }

      .cls-20 {
        fill: #077c9c;
      }
    </style>
  </defs>
  <g id="player">
    <path class="cls-11" d="M2.23,2.43c0,.14,0,.29,0,.44,0,.18.03.36.03.54,0,.02,0,.04,0,.07,0,.35.05.69.03,1.04,0,.07.01.4,0,.42-.02.03-.2.04-.23-.03-.09-.2-.02-3.73-.03-4.31,0-.06,0-.11,0-.17,0-.25.02-.71.07-.15.06.71.1,1.45.13,2.16Z"/>
    <path class="cls-9" d="M2.34,5.01v2.28s-.21.01-.23-.02c-.06-.09.05-1.97,0-2.25.02-.03.19-.02.23-.02Z"/>
    <path class="cls-11" d="M3.71,8.13c-.89.07-1.78.01-2.67,0-.2,0-.3.1-.32.1,0,0-.02-.06-.05-.07-.08,0-.23.02-.27,0-.06-.02-.02-.16-.02-.17.69.03,2.62.06,3.12,0,.07,0,.15.03.2-.05l-.03-.62c.09-.29.1.74.03.81Z"/>
    <path class="cls-7" d="M2.44,5.01s.08-.02.07.07l-.03.62.07-.02c0,.22,0,.45,0,.67-.01.86.11.92-.2.94v-2.28s.08,0,.1,0Z"/>
    <path class="cls-13" d="M3.48,7.45s-.12-.03-.17-.05c-.14-.05-.2-.02-.34-.03-.15-.01-.42-.01-.57,0-.15.01-.31.05-.47.05-.05.79.04.53.64.52.14,0,.27-.03.4-.03.17,0,.38.11.54-.03,0-.07-.02-.4-.03-.42Z"/>
    <path class="cls-19" d="M3.48,7.36s.04-.13.2-.03l.03.62c-.05.08-.13.04-.2.05-.07-.09,0-.1,0-.13,0-.07-.02-.4-.03-.42,0,0-.12-.03-.17-.05.16-.18.05-.01.17-.03Z"/>
    <path class="cls-10" d="M3.71,8.13c-.09.09-.35-.03-.4.08,0,1.03,0,2.07,0,3.1h-.07c0-1.02,0-2.05,0-3.07-.05-.07-.09-.04-.13-.05-.1-.02-1.29,0-1.58,0-.01,0-.02,0-.03,0-.1,0-.2,0-.3,0-.12,0-.24,0-.35,0-.08.05-.04.13-.05.2-.04.29,0,1.55,0,2.08,0,.01,0,.02,0,.03s0,.02,0,.03h-.07v-2.32s.11-.1.32-.1c.89.01,1.78.07,2.67,0Z"/>
    <path class="cls-4" d="M2.07,10.52l-.13.08v8.14c-.13,0-.27,0-.4,0,.01-1.33-.13-7.5-.03-8.1,0,0,.06-.08.07-.12.17,0,.34,0,.5,0Z"/>
    <path class="cls-5" d="M1.5,10.48s.04.04.07.03c0,.04-.07.11-.07.12-.09.61.05,6.77.03,8.1-.13,0-.27,0-.4,0l.03-8.25s.02,0,.03,0c.1,0,.2,0,.3,0Z"/>
    <path class="cls-5" d="M1.03,10.55l-.03,8.19c-.09,0-.19,0-.2,0,.01-2.73-.02-5.46,0-8.19,0-.01,0-.02,0-.03.09,0,.14.05.23.03Z"/>
    <path class="cls-5" d="M3.24,11.32c0,2.47,0,4.94,0,7.41-.01,0-.04.04-.27.03l.1-.08c.03-2.72,0-5.45,0-8.17,0-.77.07-1.55.03-2.32.05,0,.09-.02.13.05,0,1.02,0,2.05,0,3.07Z"/>
    <path class="cls-4" d="M1.16,10.48l-.03,8.25s-.1,0-.13,0l.03-8.19s.02-.06.13-.07Z"/>
    <g>
      <path class="cls-7" d="M2.84,20.72c-.03.12,0,.35,0,.37,0,.01,0,.02,0,.03-.01.18-.03.35-.03.54,0,.23.03.31.03.34,0,.03,0,.07,0,.1,0,.48-.08.95,0,1.44,0,.04,0,.09,0,.13-.1,0-.22.04-.34.03v-3.05c.11.01.23.04.34.07Z"/>
      <path class="cls-19" d="M2.23,23.7c.09,0,.18,0,.27,0,.12,0,.24-.03.34-.03.03,0,.21.04.23.07-.01,0,.05.03-.2.03-.16,0-.31.02-.47.03-.28.02-.45-.23-.55.47-.12,0-.24,0-.35,0-.01-.11.02-.49,0-.52-.02-.03-.28-.04-.34-.05.04-.06.03-.1.03-.17.04-.88.03-1.78,0-2.67.02-.03.21-.02.22-.02.12.08,0,2.5.08,2.84h.07l-.07-2.87c.09.02.39-.04.44.05.08.19,0,2.36.03,2.82.02.03.21.01.27.02Z"/>
      <path class="cls-13" d="M3.54,24.41l-3.05-.03c-.06-.12,0-.09,0-.13.43-.08-.21-.59.62-.47l-.08.49s.4.02.47.02c.12,0,.24,0,.35,0,.1-.7.28-.45.55-.47-.12.43.05.39.5.37.43-.02.46.09.44-.47.04,0,.18-.01.2.02v.69Z"/>
      <path class="cls-5" d="M1.16,23.7c.06,0,.32.02.34.05.02.03-.01.41,0,.52-.07,0-.45.01-.47-.02l.08-.49c-.83-.12-.19.39-.62.47-.01-.17,0-.36.02-.54.02-.03.58,0,.65,0Z"/>
      <path class="cls-7" d="M2.91,24.17l-.03-.4c.25,0,.19-.03.2-.03.22,0,.25-.03.27-.03.02.56,0,.45-.44.47Z"/>
      <path class="cls-13" d="M2.5,20.65v3.05c-.09,0-.18,0-.27,0v-2.94c-.24-.05-.49-.06-.74-.05-.01,0-.2.13-.29.07-.04-.03,0-.17-.02-.2.4-.06.9.01,1.31.07Z"/>
      <path class="cls-13" d="M2.23,23.7c-.06,0-.24.02-.27-.02-.03-.46.05-2.63-.03-2.82-.04-.1-.35-.03-.44-.05v-.1c.25-.01.5,0,.74.05v2.94Z"/>
      <path class="cls-13" d="M2.87,23.77l.03.4c-.46.02-.63.06-.5-.37.16-.01.31-.03.47-.03Z"/>
      <path class="cls-19" d="M.99,18.74s.09,0,.13,0c.13,0,.27,0,.4,0,.13,0,.27,0,.4,0,.03,0,.33.03.64.03h.27s.09,0,.13,0c.23,0,.25-.03.27-.03,0,0-.02.03.07.03.58.02.74-.09.7.17-.11.15-.1,0-.12,0-.08,0-.04.07-.07.07-.08,0-.04-.07-.07-.07-1.24,0-2.5.14-3.74.03-.12-.28.31-.18.6-.2.21-.02.16-.03.17-.03.01,0,.11,0,.2,0Z"/>
      <path class="cls-12" d="M4.01,18.94c-.03.25-.5.07-.7.18v1.02l-.07-.02v-.97c-.08-.1-.11-.01-.13-.02-.3-.06-.22.03-.23.03-.26.04-.16.07-.17.07-.07,0-.14,0-.2,0-.05-.09-.18,0-.2,0-.1,0-.25-.03-.37-.03-.13,0-.27,0-.4,0-.12,0-.25,0-.37,0-.07,0-.14,0-.2,0-.06,0-.08-.03-.13-.03-.03,0-.03-.03-.07-.03-.19-.03-.68-.04-.74-.17,1.24.11,2.5-.03,3.74-.03.03,0-.01.06.07.07.03,0,0-.07.07-.07.02,0,.01.15.12,0Z"/>
      <path class="cls-5" d="M3.31,20.15c.16.06.52-.23.44.2-.57-.02-3.16.16-3.44.03-.07-.03-.05-.14-.05-.2.1-.14.31,0,.47-.03l.07-.02.03-.96c.06,0,.08.03.13.03-.08,1.41.28,1.41.2,0,.12,0,.25,0,.37,0l-.03.96c.13.12.41.02.44.02.12,0,.25,0,.37,0,.07,0,.14,0,.2,0,.07,0,.14,0,.2,0,.06,0,.21-.02.27-.03.04,0,.14.02.17-.02l-.03-.99s.06-.09.13.02v.97l.07.02Z"/>
      <g>
        <path class="cls-11" d="M3.74,20.35c-.07.34-.8-.08-.91.37-.1-.03-.23-.05-.34-.07-.4-.06-.91-.13-1.31-.07-.02-.04-.02-.02-.03-.03-.09-.07-1.22.05-.91-.37,0,.06-.02.17.05.2.28.13,2.87-.05,3.44-.03Z"/>
        <path class="cls-7" d="M1.31,20.45c1.51-.04,1.51.14,0,.07v-.07Z"/>
      </g>
      <path class="cls-19" d="M1.93,19.21v.97s-.31.1-.44-.02l.03-.96c.13,0,.27,0,.4,0Z"/>
      <path class="cls-15" d="M2.3,19.24v.94c-.12,0-.25,0-.37,0v-.97c.12,0,.27.04.37.03Z"/>
      <path class="cls-7" d="M2.87,19.17c.16.04,0,.64.1.97-.06.01-.2.03-.27.03v-.94s-.09-.03.17-.07Z"/>
      <path class="cls-13" d="M3.11,19.14l.03.99s-.12,0-.17.02c-.11-.33.06-.93-.1-.97.01,0-.07-.1.23-.03Z"/>
      <path class="cls-1" d="M2.7,19.24v.94c-.07,0-.14,0-.2,0v-.94c.07,0,.14,0,.2,0Z"/>
      <path class="cls-19" d="M1.16,19.21c.08,1.41-.28,1.41-.2,0,.07,0,.14,0,.2,0Z"/>
      <path class="cls-13" d="M2.5,19.24v.94c-.07,0-.13,0-.2,0v-.94s.15-.09.2,0Z"/>
    </g>
    <path class="cls-18" d="M2.44,10.45v.07c-.12,0-.25,0-.37,0-.17,0-.34,0-.5,0-.03,0-.03-.03-.07-.03v-2.28s.02,0,.03,0c-.02.15.35,0,.4.12.04.1-.03,1.84,0,2.15.01.02.24-.03.5-.02Z"/>
    <path class="cls-4" d="M1.5,8.2v2.28c-.1,0-.21,0-.3,0v-2.28c.1,0,.2,0,.3,0Z"/>
    <path class="cls-18" d="M1.19,8.2v2.28s-.02,0-.03,0c-.11,0-.13.07-.13.07-.1.01-.15-.04-.23-.03,0-.01,0-.02,0-.03.07,0,.15-.06.17-.12.03-.1.04-1.95,0-2.05-.07-.18-.09.1-.17.08,0-.07-.03-.15.05-.2.12,0,.24,0,.35,0Z"/>
    <path class="cls-18" d="M.79,10.48c0-.53-.04-1.79,0-2.08.08.01.1-.27.17-.08.04.1.03,1.95,0,2.05-.02.06-.1.12-.17.12Z"/>
    <path class="cls-6" d="M2.44,10.52h.64c0,2.72.03,5.45,0,8.17l-.1.08s-.09,0-.13,0c-.09,0-.18,0-.27,0-.3,0-.61-.03-.64-.03v-8.14l.13-.08c.12,0,.25,0,.37,0Z"/>
    <path class="cls-14" d="M3.11,8.2c.04.77-.03,1.55-.03,2.32h-.27c.03-.1-.14-.06-.37-.07-.26,0-.49.04-.5.02-.03-.31.04-2.05,0-2.15-.06-.12-.42.03-.4-.12.29,0,1.47-.02,1.58,0Z"/>
    <g>
      <path class="cls-17" d="M2.8,10.52h-.37v-.07c.23,0,.4-.04.37.07Z"/>
      <path class="cls-2" d="M2.45,8.74l.35.05c-.16.03-.39.04-.35-.05Z"/>
      <path class="cls-16" d="M2.45,9.41c.47-.03.46.09,0,.07v-.07Z"/>
      <path class="cls-16" d="M2.49,9.75c.23-.07.57.12-.03.07-.03,0,.02-.06.03-.07Z"/>
      <path class="cls-2" d="M2.49,9.07c.23-.07.57.12-.03.07-.03,0,.02-.06.03-.07Z"/>
      <path class="cls-16" d="M2.49,10.08c.1-.06.65.1-.03.07-.03,0,0-.05.03-.07Z"/>
      <path class="cls-2" d="M2.49,12.9c.17-.07.59.09-.02.02,0,0,.01-.01.02-.02Z"/>
      <path class="cls-14" d="M2.59,16.96c.04.15.18.02.2.03.2.13-.59.23-.2-.03Z"/>
      <path class="cls-8" d="M2.49,15.15s.29,0,.3,0c.23.14-.54.08-.3,0Z"/>
      <path class="cls-2" d="M2.45,18.3c.49-.03.49.09,0,.07v-.07Z"/>
      <path class="cls-16" d="M2.49,12.6c.25-.08.58.11-.03.07-.03,0,.02-.06.03-.07Z"/>
      <path class="cls-2" d="M2.45,16.15l.35.05c-.16.03-.39.04-.35-.05Z"/>
      <path class="cls-8" d="M2.45,14.01c.47-.03.46.09,0,.07v-.07Z"/>
      <path class="cls-2" d="M2.49,18c.23-.07.57.12-.03.07-.03,0,.02-.06.03-.07Z"/>
      <path class="cls-2" d="M2.49,12.3c.44-.03.44.09,0,.07v-.07Z"/>
      <path class="cls-20" d="M2.45,11.99c.47-.03.44.09,0,.07v-.07Z"/>
      <path class="cls-2" d="M2.49,17.36c.44-.03.44.09,0,.07v-.07Z"/>
      <path class="cls-2" d="M2.52,14.85c.24-.08.51.11-.03.07-.03,0,.02-.06.03-.07Z"/>
      <path class="cls-16" d="M2.49,17.66c.42-.02.43.1,0,.07v-.07Z"/>
      <path class="cls-2" d="M2.49,13.44c.43-.03.42.08,0,.07v-.07Z"/>
      <path class="cls-2" d="M2.49,11.05c.43-.03.42.08,0,.07v-.07Z"/>
      <path class="cls-8" d="M2.52,16.39c.21-.07.5.11-.03.07-.03,0,.02-.06.03-.07Z"/>
      <path class="cls-2" d="M2.49,18.64l.32.05c-.1.04-.25.03-.32-.05Z"/>
      <path class="cls-16" d="M2.49,13.13l.32.05c-.1.04-.25.03-.32-.05Z"/>
      <path class="cls-16" d="M2.49,16.72s.25,0,.27,0c.27.09-.39.05-.27,0Z"/>
      <polygon class="cls-16" points="2.49 15.48 2.8 15.53 2.49 15.55 2.49 15.48"/>
      <path class="cls-2" d="M2.49,11.36l.32.02c-.07.09-.26.06-.32-.02Z"/>
      <path class="cls-3" d="M2.45,15.85c.18-.08.66.09-.02.02,0,0,.01-.01.02-.02Z"/>
      <path class="cls-16" d="M2.49,14.31c.19-.08.61.12-.02.02,0,0,.01-.01.02-.02Z"/>
      <path class="cls-16" d="M2.49,14.58c.17-.07.59.09-.02.02,0,0,.01-.01.02-.02Z"/>
      <path class="cls-16" d="M2.49,11.66c.17-.07.59.09-.02.02,0,0,.01-.01.02-.02Z"/>
      <path class="cls-16" d="M2.49,10.75c.17-.07.59.09-.02.02,0,0,.01-.01.02-.02Z"/>
      <path class="cls-2" d="M2.49,13.74c.17-.07.59.09-.02.02,0,0,.01-.01.02-.02Z"/>
    </g>
  </g>
</svg>
