<?xml version="1.0" encoding="UTF-8"?>
<svg id="Layer_2" xmlns="http://www.w3.org/2000/svg" xmlns:xlink="http://www.w3.org/1999/xlink" viewBox="0 0 100 100">
  <defs>
    <style>
      .enemy_4_cls-1 {
        fill: #2f9390;
      }

      .enemy_4_cls-2 {
        fill: url(#enemy_4_linear-gradient-2);
      }

      .enemy_4_cls-3 {
        fill: #255860;
      }

      .enemy_4_cls-4 {
        fill: #026764;
      }

      .enemy_4_cls-5 {
        fill: #ecfafb;
      }

      .enemy_4_cls-6 {
        fill: #0a1413;
      }

      .enemy_4_cls-7 {
        fill: url(#enemy_4_linear-gradient-4);
      }

      .enemy_4_cls-8 {
        fill: #08777a;
      }

      .enemy_4_cls-9 {
        fill: url(#enemy_4_linear-gradient-3);
      }

      .enemy_4_cls-10 {
        fill: #082222;
      }

      .enemy_4_cls-11 {
        fill: url(#enemy_4_linear-gradient-5);
      }

      .enemy_4_cls-12 {
        fill: #04827c;
      }

      .enemy_4_cls-13 {
        fill: #a6e9dd;
      }

      .enemy_4_cls-14 {
        fill: #ccf6f4;
      }

      .enemy_4_cls-15 {
        fill: #02534e;
      }

      .enemy_4_cls-16 {
        fill: #6ec5bb;
      }

      .enemy_4_cls-17 {
        fill: #013e41;
      }

      .enemy_4_cls-18 {
        fill: #22b8b7;
      }

      .enemy_4_cls-19 {
        fill: #19a5a1;
      }

      .enemy_4_cls-20 {
        fill: url(#enemy_4_linear-gradient);
      }

      .enemy_4_cls-21 {
        fill: #758286;
      }
    </style>
    <linearGradient id="enemy_4_linear-gradient" x1="6.08" y1="4.91" x2="6.32" y2="5.03" gradientUnits="userSpaceOnUse">
      <stop offset="0" stop-color="#02282b"/>
      <stop offset="1" stop-color="#003e3f"/>
    </linearGradient>
    <linearGradient id="enemy_4_linear-gradient-2" x1="1.32" y1="4.19" x2=".98" y2="4.22" gradientUnits="userSpaceOnUse">
      <stop offset="0" stop-color="#034c4c"/>
      <stop offset="1" stop-color="#128a87"/>
    </linearGradient>
    <linearGradient id="enemy_4_linear-gradient-3" x1="6.51" y1="2.81" x2="6.27" y2="2.97" gradientUnits="userSpaceOnUse">
      <stop offset="0" stop-color="#035c5e"/>
      <stop offset="1" stop-color="#003536"/>
    </linearGradient>
    <linearGradient id="enemy_4_linear-gradient-4" x1="3.7" y1="5.84" x2="3.46" y2="6.14" gradientUnits="userSpaceOnUse">
      <stop offset="0" stop-color="#032a2b"/>
      <stop offset="1" stop-color="#034648"/>
    </linearGradient>
    <linearGradient id="enemy_4_linear-gradient-5" x1="6.74" y1="4.01" x2="6.53" y2="4.03" gradientUnits="userSpaceOnUse">
      <stop offset="0" stop-color="#014c4c"/>
      <stop offset="1" stop-color="#012b2b"/>
    </linearGradient>
  </defs>
  <g id="steroids">
    <g id="enemy_4">
      <g>
        <path class="enemy_4_cls-10" d="M5.68,5.77s.02.04.02.05c-.31.1-.06.15-.08.26,0,.04-.19.16-.24.05-.03-.06.04-.09-.01-.18-.02-.03-.21-.12.02-.38.4-.17.29.18.29.2Z"/>
        <path class="enemy_4_cls-10" d="M5.27,6c.08.2.19.39.28.58,0,.01.01.03.02.04.02.03.04.07.05.1,0,.01.02.03.02.04.05.14,0,.19-.15.19-.05-.02-.07-.13-.11-.24-.02-.06-.04-.12-.06-.18l-.2-.46c.06-.04.07-.04.14-.07Z"/>
        <path class="enemy_4_cls-17" d="M6.06,5.51s.08-.08.09-.09c.08.08.43.24.46.25.11.08,0,.27-.11.22-.03-.01-.27-.28-.44-.38Z"/>
        <path class="enemy_4_cls-17" d="M6.71,4.48s-.01,0,.02-.1c.01-.03.03-.03.03-.04.1.02.35.1.4.1.04,0,.18-.1.17.12-.12.15-.16.03-.2.02-.08-.03-.31-.07-.42-.1Z"/>
        <g>
          <path class="enemy_4_cls-17" d="M7.45,3.85s-.02.02-.03.02c-.04,0-.44-.02-.58-.01,0-.05-.05-.08-.04-.14.04-.02.09-.01.13-.02.06,0,.45-.03.48-.02.06.02.07.11.04.16Z"/>
          <path class="enemy_4_cls-1" d="M7.45,3.85s.03-.14-.04-.16c-.02,0-.42.01-.48.02-.02-.03-.07,0-.06-.03.09,0,.5-.06.54-.05.1.02.13.17.04.22Z"/>
        </g>
        <g>
          <path class="enemy_4_cls-20" d="M6.35,4.64c.12.08.17.15.15.31,0,0,0,0,0,.01-.02.11-.17.3-.29.33-.25.06-.3-.14-.25-.34.04-.17.21-.34.39-.31Z"/>
          <g>
            <path class="enemy_4_cls-17" d="M6.89,4.9c-.12-.03-.2-.09-.19-.02.15.11.61.05.44.32-.08.05-.26-.11-.29-.1,0,0-.05.1-.15.05-.14-.07.09-.12-.21-.19,0,0,0,0,0-.01.03,0,.09-.19.13-.28.13.08.35.04.26.23Z"/>
            <path class="enemy_4_cls-8" d="M6.89,4.9c.17.04.46.08.25.3.17-.26-.3-.21-.44-.32-.01-.07.07-.02.19.02Z"/>
          </g>
        </g>
        <g>
          <path class="enemy_4_cls-17" d="M5.9,5.64c.17.19.39.31.58.46-.03.04.05.06.05.11,0,.08-.11.2-.21.18-.06-.01-.04-.08-.08-.03-.01-.01,0-.05-.03-.05,0,0-.03.02-.03.02-.05-.02-.45-.44-.49-.5,0,0-.02-.04-.02-.05.09-.05.17-.16.21-.13Z"/>
          <path class="enemy_4_cls-4" d="M6.25,6.35c.03-.05.02.02.08.03.09.02.21-.1.21-.18,0-.05-.08-.07-.05-.11.02.01.08.03.09.09.01.08-.15.35-.32.17Z"/>
        </g>
        <g>
          <path class="enemy_4_cls-4" d="M7.37,3.13c.02.05-.05.12,0,.16-.03,0-.32.07-.34.07,0,0-.02-.02-.03-.02-.08,0-.16.02-.24-.01,0,0,0-.01,0-.02.16-.03.5-.16.6-.18Z"/>
          <path class="enemy_4_cls-15" d="M7.03,3.36c-.01.22-.04.1-.22.05-.01,0-.01.14-.02.17-.03-.01-.03-.16-.03-.25.07.03.16.01.24.01,0,0,.02.02.03.02Z"/>
          <path class="enemy_4_cls-15" d="M7.43,3.13c.09.1.05.13-.06.16-.05-.04.02-.11,0-.16,0,0,0-.03.06,0Z"/>
        </g>
        <path class="enemy_4_cls-8" d="M1.15,2.28c-.15.45-.25.69-.27,1.18-.05.04.01.27-.04.29,0-.05-.06-.04-.07-.09,0-.03.03-.18-.04-.17,0,0,0-.03.02-.04.01,0,.06-.01.08-.02.02,0,.03.02.04.01.02-.01.04-.39.06-.45-.23-.02-.3.02-.18-.17,0,0,0-.02.07-.01.09.01.13.1.17-.03,0-.03.02-.06.02-.07,0-.04-.37-.13-.37-.19.07-.2.18-.05.42.06.01-.02.06-.15.06-.16-.01-.05-.57-.3-.64-.35-.04-.09-.03-.22.1-.2.06,0,.53.32.62.38Z"/>
        <path class="enemy_4_cls-12" d="M6.74,2.93c-.06,0,.02.1.02.11-.04.03-.08.04-.08.04-.04-.05,0-.13-.02-.2,0-.05-.1-.22-.1-.24.04-.03.03.09.11.09.03,0,.58-.23.62-.22.23.19-.34.21-.58.36.02.01.02.04.03.06Z"/>
        <path class="enemy_4_cls-1" d="M.96,2.8c-.04.13-.07.04-.17.03-.06,0-.06.01-.07.01-.06-.01-.52-.14-.55-.16-.05-.04-.02-.13.03-.15l.75.27Z"/>
        <path class="enemy_4_cls-8" d="M3.59.3c.06.11-.04.05-.05.09,0,.01.04.25.05.26,0,0,.06-.06.07.15-.22,0-.3.1-.29-.09.01,0,.03.03.06,0,.02-.37-.04-.3-.05-.32-.01-.03.06-.17.21-.08Z"/>
        <g>
          <path class="enemy_4_cls-4" d="M5.71.48c-.05.1-.3.41-.37.57.13.1.21.05.22.21-.1-.08-.22-.16-.33-.22.09-.14.16-.28.23-.43.06-.12.1-.39.25-.13Z"/>
          <path class="enemy_4_cls-19" d="M5.71.48c-.15-.27-.19,0-.25.13-.07.14-.15.29-.23.43-.01,0-.03-.01-.04-.02.07-.13.13-.25.19-.39.08-.18.08-.48.35-.23.02.07-.01.07-.02.09Z"/>
        </g>
        <path class="enemy_4_cls-12" d="M1.93,1.03s.08.11.08.12c0,.02-.08.05-.1.07-.09-.21-.33-.48-.15-.51.15.05.05.14.06.17,0,0,.09.14.11.17Z"/>
        <path class="enemy_4_cls-4" d="M5.27.53c-.02.08-.1.06-.15.2-.04.09-.03.15-.02.25-.03-.02-.12-.05-.14-.06.02-.04.13-.3.13-.32,0-.03-.06-.05,0-.14.05.04.11.07.18.07Z"/>
        <path class="enemy_4_cls-4" d="M6.58,2.62c-.07-.08-.04-.1-.04-.11l.27-.15c.16.22.11.16-.23.26Z"/>
        <g>
          <path class="enemy_4_cls-12" d="M2.76.82s-.09.07-.09.08c-.12-.24-.32-.31-.1-.36.08.1.11.32.19.28Z"/>
          <path class="enemy_4_cls-1" d="M2.92.93c-.06.02-.19.08-.23.09-.02-.04-.04-.08-.02-.12,0,0,.07-.07.09-.08.12-.07.09,0,.14.09,0,0,.07.02.02.03Z"/>
        </g>
        <path class="enemy_4_cls-12" d="M.9,4.25c.06.14.14.19-.06.21-.09-.01-.14-.19.06-.21Z"/>
        <path class="enemy_4_cls-12" d="M1.29,1.89c0,.06-.04.06-.04.06-.37-.17.07-.38.04-.06Z"/>
        <path class="enemy_4_cls-1" d="M.82,4.85l.02.02c-.28.16-.61.2-.38.41-.38-.21.19-.35.36-.43Z"/>
        <path class="enemy_4_cls-15" d="M6.74,2.93c.11.25.2-.03.24.23-.03.02-.08.02-.11.03.02-.01-.07-.09-.1-.1,0-.01,0-.04-.01-.05,0-.01-.08-.1-.02-.11Z"/>
        <g>
          <g>
            <path class="enemy_4_cls-8" d="M1.4.86s.03.03.05.05l.44.47s-.06.06-.08.08c-.02-.03-.09.07-.13.1,0,0,0-.01-.02-.01l.02-.02c-.07-.09-.61-.47-.63-.51.01-.01.06.02.06-.02,0,0,.05.06.07.05.14-.11.15-.25.22-.19Z"/>
            <path class="enemy_4_cls-4" d="M1.4.86c-.06-.06-.07.08-.22.19-.02,0-.06-.05-.07-.05-.07-.17.13-.17.23-.2.02.02.03.04.05.06Z"/>
            <path class="enemy_4_cls-18" d="M1.35.8c-.1.03-.3.04-.23.2,0,.04-.05,0-.06.02-.08-.14.1-.33.25-.28.02,0,.04.06.05.06Z"/>
          </g>
          <g>
            <path class="enemy_4_cls-4" d="M1.67,1.54s.01.01.02.01c.03-.03.11-.13.13-.1-.17.17-.33.27-.35.29l-.57-.41s-.04-.03-.05-.07c.08.09-.03-.07.17-.12.02.03-.02.04.05.12.02.02.44.38.47.38.01,0,.1-.07.14-.1Z"/>
            <path class="enemy_4_cls-19" d="M1.02,1.14c-.2.05-.09.21-.17.12-.02-.11.13-.18.17-.12Z"/>
          </g>
        </g>
        <path class="enemy_4_cls-18" d="M5.27.53c-.07,0-.13-.03-.18-.07.04-.06.2-.01.18.07Z"/>
        <g>
          <path class="enemy_4_cls-4" d="M6.8,1.63c-.05,0-.03.08-.05.13.04.02.07-.04.07,0-.02.02-.41.19-.49.26-.03-.06-.12-.17-.16-.22.09.04.09,0,.1,0,.01,0,0,.11.04.1l.02.02c.13-.12.5-.27.41-.35.01,0,.07.05.08.06Z"/>
          <path class="enemy_4_cls-19" d="M6.72,1.57c.09.08-.28.23-.41.35l-.02-.02c.08-.07.27-.18.32-.22.04-.03.03-.11.11-.11Z"/>
          <path class="enemy_4_cls-4" d="M6.8,1.63c.05.06.07.09.02.13,0-.04-.03.02-.07,0,.02-.04,0-.12.05-.13Z"/>
        </g>
        <path class="enemy_4_cls-4" d="M6.87,3.19s-.07.03-.1.04c0-.04,0-.1,0-.14.03.01.12.09.1.1Z"/>
        <g>
          <path class="enemy_4_cls-17" d="M1.31,5.13c-.12.11-.27.19-.4.29-.02.01-.04.13-.17.08-.05-.07-.06-.11-.02-.19.07-.05.51-.24.5-.3l-.08-.13c-.15.09-.31.17-.46.26-.06.04-.17.14-.24.14-.24-.21.1-.25.38-.41l-.02-.02s.26-.12.26-.14c0,0-.02-.04-.03-.09.02.02.15.31.26.49Z"/>
          <path class="enemy_4_cls-12" d="M.73,5.31c-.04.08-.03.12.02.19-.08-.03-.1-.13-.02-.19Z"/>
        </g>
        <g>
          <path class="enemy_4_cls-4" d="M4.58.89s.23.07.26.07c.03,0,.03-.05.06-.03.01.02.14.1.17.15l-.08.08c-.06-.01-.16-.04-.21-.06-.14-.05-.19-.06-.26-.2.02-.01.05,0,.07,0Z"/>
          <g>
            <path class="enemy_4_cls-8" d="M5.09.15c-.03.12-.18.5-.2.66,0,.03-.02.09,0,.12-.02-.02-.03.03-.06.03-.03,0-.29-.03-.26-.07.15,0,.08-.01.13-.15.13-.01.08-.06.08-.08.03-.15.07-.45.1-.56l.2.05Z"/>
            <path class="enemy_4_cls-18" d="M5.09.15l-.2-.05c.02-.08.04-.07.12-.05.13.03.09.09.09.1Z"/>
            <path class="enemy_4_cls-19" d="M4.71.74s-.02-.04.08-.08c0,.02.05.07-.08.08Z"/>
          </g>
        </g>
        <g>
          <path class="enemy_4_cls-15" d="M1.05,4.63s-.04-.06-.05-.06c-.05,0-.57.21-.6.21-.03,0-.05-.05-.06-.07l.03-.12s.39-.1.47-.11c.13-.02.14-.1.2.15Z"/>
          <path class="enemy_4_cls-12" d="M.38,4.59l-.03.12c-.03-.07-.04-.09.03-.12Z"/>
        </g>
        <path class="enemy_4_cls-6" d="M3.31,6.31s.08.03.11.03v.43c-.09-.03-.09-.12-.11.2,0,.12-.04.23.02.19-.01.08.07.01.07.06-.1,0-.21.01-.31-.02-.05-.03-.02-.11,0-.26.03-.21.07-.42.1-.63,0,0,.08,0,.11,0Z"/>
        <path class="enemy_4_cls-10" d="M3.16,6.3c-.05.21-.09.41-.09.62-.02,0-.15,0-.19-.01-.06-.06.03-.17.03-.18,0-.02-.03,0-.03,0-.02-.07.05-.1.07-.15.02-.04.04-.24.07-.33.15.02.13.04.14.04Z"/>
        <path class="enemy_4_cls-10" d="M3.9,6.33c.01.09-.02.11-.02.13-.05-.03-.03.08-.03.22,0,.05,0,.1.01.15,0,0,0,.01,0,.02,0,.03,0,.12.02.13.02.02.43,0,.49-.01,0,.03.03.04-.02.07-.13,0-.45-.03-.49.03-.02-.03-.05-.05-.08-.08-.04,0-.05.04-.07.07-.04-.11-.05-.03-.07-.09.03-.06.03-.47.02-.5,0-.02-.03-.01-.03-.02-.04-.06,0-.03,0-.06,0,0-.08-.03-.07-.07.09,0,.08.01.08.01l.02.07v-.07c.06,0,.14-.04.15-.04.03,0-.01.02.09.02Z"/>
        <g>
          <path class="enemy_4_cls-10" d="M5,6c-.27.13-.22.21.04.09,0,0,0,.01.01.02.17.35.24.29,0,.36-.1-.2-.09-.35-.26-.19.02.07.12.23.13.26.02.09-.09.11-.17.11-.02,0-.07-.3-.09-.34,0-.02,0-.04-.01-.05-.05-.23-.18-.16.26-.38.07,0,.04.02.09.12Z"/>
          <path class="enemy_4_cls-17" d="M5.04,6.09c-.26.12-.31.04-.04-.09.01.03.03.06.04.09Z"/>
        </g>
        <g>
          <path class="enemy_4_cls-17" d="M1.84,5.6s.12.09.16.15c-.02.07-.05.08-.05.09l-.1-.09c-.13.15-.34.35-.46.51-.05.07-.05.1-.07.13-.07.08-.17.07-.22-.04,0-.07.13-.15.19-.25.42-.47.4-.47-.04-.03-.08.08-.15.16-.23.23,0,0,0,0-.01,0,.02-.02-.08-.07-.06-.14,0-.03.48-.39.5-.44,0,0-.01,0-.01-.02.06-.05.12-.11.18-.15.01,0,.02-.02.04-.03.18.15.2.21.18.08Z"/>
          <path class="enemy_4_cls-17" d="M1.96,5.57c.21.12.2.14.13.31,0,0-.07.09-.07.11,0,.01.06.17-.14.17-.15-.09-.01-.18.07-.32,0,0,.03-.02.05-.09-.04-.05-.13-.17-.16-.15-.02-.11-.07-.14.12-.03Z"/>
        </g>
        <g>
          <path class="enemy_4_cls-4" d="M2.49,1.04s0,0,.01.01c0,.01,0,.03.02.05-.13.05-.44.23-.42.15,0-.04.06-.1.1-.11,0,0,.03.02.06.01.06-.03.17-.1.24-.1Z"/>
          <path class="enemy_4_cls-1" d="M2.49,1.04c-.07,0-.17.07-.24.1-.02,0-.05-.01-.06-.01.02-.03.01-.05-.02-.05,0,0,.04-.04.04-.04.02-.01.11-.08.12-.08.09-.04.11,0,.15.08Z"/>
          <g>
            <path class="enemy_4_cls-12" d="M2.06.31c.08.22.18.44.28.65,0,0-.1.07-.12.08-.04-.14-.31-.57-.32-.65.04-.05.1-.08.16-.08Z"/>
            <path class="enemy_4_cls-19" d="M2.06.28s0,.02,0,.03c-.06,0-.12.03-.16.08-.02-.1.08-.13.16-.11Z"/>
          </g>
          <path class="enemy_4_cls-1" d="M2.18,1.08s.04.02.02.05c-.04.02-.1.07-.1.11-.08-.12,0-.1.08-.16Z"/>
        </g>
        <g>
          <g>
            <path class="enemy_4_cls-4" d="M2.96,1.14s-.03-.03-.05-.03c-.02-.03-.02-.08,0-.12-.02.08.17-.01.25-.04.05-.02.11-.03.15-.07,0,0,.07,0,.1.03.04.16-.36.24-.45.24Z"/>
            <path class="enemy_4_cls-1" d="M3.12.79c0,.05.04.11.04.16-.08.03-.27.12-.25.04.03-.08.08-.07.08-.07.03-.02.02-.04.05-.05.06-.04.09.02.08-.08h.01Z"/>
          </g>
          <g>
            <path class="enemy_4_cls-8" d="M3.19.05c.04.11-.02.09-.03.12-.01.03.11.67.13.7,0,.01,0,.01.02.02-.04.04-.1.05-.15.07,0-.06-.03-.11-.04-.16-.04-.21-.05-.42-.11-.62h-.05s.13.52.15.62c.01.1-.01.04-.08.08-.02.01-.02.03-.05.05-.06-.2-.12-.54-.19-.72-.01-.04-.04.03-.04-.08l.43-.08Z"/>
            <path class="enemy_4_cls-18" d="M3.19.05l-.43.08s-.03-.06.04-.09c.13.02.35-.11.4.01Z"/>
          </g>
        </g>
        <g>
          <path class="enemy_4_cls-4" d="M.82,3.44s-.06.01-.08.02c-.01,0-.01.04-.02.04-.02.03-.03.03-.03.03-.08,0-.05-.15-.08-.15.03-.03.13.04.2.06Z"/>
          <path class="enemy_4_cls-8" d="M.7,3.53s.01.07-.01.1c.02-.14-.05-.04-.12-.12,0-.04,0-.11.05-.14.03,0,0,.16.08.15Z"/>
          <g>
            <path class="enemy_4_cls-4" d="M.88,3.46c-.01.21.01.43,0,.64,0,.02.03.04-.01.06h-.14c-.05-.25.22,0,.1-.3-.12.01-.65.13-.68.13-.04,0-.06-.02-.09-.04.04.01.05.02.09.01.02,0,.04,0,.05,0,.01-.1.03-.12-.01-.22.12-.01.58.04.65.01.05-.02-.01-.25.04-.29Z"/>
            <path class="enemy_4_cls-1" d="M.84,3.75c-.07.03-.53-.02-.65-.01-.16.02-.16.15-.04.22-.04,0-.05,0-.09-.01-.09-.08-.06-.24.02-.28.09-.05.54,0,.6-.02,0,0,.01-.01.02-.02.02-.03,0-.07.01-.1,0,0,.01,0,.03-.03.07-.01.03.14.04.17.01.04.07.04.07.09Z"/>
            <path class="enemy_4_cls-4" d="M.19,3.74c.04.1.02.12.01.22,0,0-.03,0-.05,0-.12-.07-.12-.2.04-.22Z"/>
          </g>
        </g>
        <g>
          <path class="enemy_4_cls-1" d="M6.43.84c-.11.1-.2.2-.31.3-.1.09-.2.18-.3.26,0,0-.03-.01-.02.03-.02,0-.04-.02-.06-.03-.02-.01-.05-.03-.05-.03.16-.13.44-.46.56-.56.06,0,.12,0,.18.03Z"/>
          <path class="enemy_4_cls-4" d="M6.56.97c-.03.1-.14.08-.15.09-.15.1-.48.43-.51.43-.02,0-.08-.05-.11-.06,0-.04.02-.03.02-.03.09.03.36-.23.3-.26.11-.1.2-.2.31-.3.18.06.03.21.13.13Z"/>
          <path class="enemy_4_cls-19" d="M6.56.97c-.1.08.05-.07-.13-.13-.06-.02-.12-.02-.18-.03.2-.17.35.04.31.16Z"/>
          <path class="enemy_4_cls-4" d="M5.81,1.4c.1-.08.2-.17.3-.26.06.03-.21.29-.3.26Z"/>
        </g>
        <g>
          <g>
            <path class="enemy_4_cls-17" d="M2.51,6.07h0q-.06-.03-.12-.06c-.14.14-.38.69-.42.74-.1.15-.19,0-.2-.01.02-.12.22-.29.13-.26.12-.17.26-.42.34-.52.03-.03.06-.1.09-.09.15.07.05.09.06.12,0,0,.11.08.12.09Z"/>
            <path class="enemy_4_cls-15" d="M1.77,6.74s0-.02-.01-.02c0,0,0,0-.01-.01.02-.09.1-.16.15-.23.09-.03-.11.14-.13.26Z"/>
          </g>
          <path class="enemy_4_cls-10" d="M2.9,6.24s-.1.32-.11.38c-.02.1-.03.2-.05.3-.01.07-.03.13-.04.2-.26.01-.21,0-.14-.27,0-.04.07-.15.04-.18,0,0-.05,0-.06-.03,0-.01.03-.13.04-.16.03-.12.08-.29.04-.27-.01,0-.09.25-.11.28,0,.01-.03.06-.04.06l-.15-.1s.18-.32.17-.38h0c.08.02.07-.04.12-.05.18-.05.27.18.28.21Z"/>
        </g>
        <path class="enemy_4_cls-17" d="M3.86,7.07c.12.13.01.03-.09.06,0,0-.03.06-.12.1,0,0-.01,0-.02-.01.03-.05.05-.11.08-.16.02-.03.03-.08.07-.07.02.03.05.05.08.08Z"/>
        <g>
          <path class="enemy_4_cls-6" d="M4.66,6.26s0,.03.01.05c-.11-.03.03.23.09.39.04.1.08.2.11.3.02.07.05.09.01.15-.05,0-.09.02-.15.02-.02-.07-.05-.23-.08-.28-.02-.05-.04-.05-.09,0l.06.28c-.11,0-.25,0-.4.02-.2.03-.41.11-.43.11-.08,0-.13-.07-.14-.07.08-.04.11-.1.12-.1.1-.03.2.07.09-.06.04-.06.36-.03.49-.03.04-.03.02-.04.02-.07,0-.05,0-.09-.01-.14-.03-.33-.09-.52-.03-.05h-.2s-.01-.05-.01-.09c0-.07,0-.28,0-.32,0,0-.02,0-.02,0,0-.01-.01-.03-.01-.05.11-.02,0-.1.08-.15.02-.01.37-.07.39-.06.03.02,0,.18.12.14Z"/>
          <path class="enemy_4_cls-10" d="M4.65,6.89c.03.06.06.21.08.28-.04,0-.07,0-.11,0l-.06-.28h.09Z"/>
          <path class="enemy_4_cls-21" d="M4.65,6.89h-.09c.05-.05.07-.05.09,0Z"/>
        </g>
        <g>
          <path class="enemy_4_cls-6" d="M3.57,6.34s.07.06.07.07c0,.03-.04,0,0,.06.01.11-.02.44.01.51.02.06.03-.02.07.09-.03.05-.05.11-.08.16-.03,0-.17,0-.24,0,0-.05-.08.02-.07-.06.27,0,.1-.11.09-.19,0-.02.03-.12.04-.22.01-.13.02-.27.03-.4,0,0,0-.01.08-.01Z"/>
          <path class="enemy_4_cls-3" d="M3.67,6.35v.07s-.01-.04-.02-.07c0,0,.01,0,.02,0Z"/>
        </g>
        <path class="enemy_4_cls-6" d="M4.08,6.33s0,.04.01.05c-.06-.05-.03.11-.01.25,0,.03-.02.02-.03.02-.15,0-.19.05-.17-.19,0-.02.03-.04.02-.13.06,0,.14,0,.18,0Z"/>
        <g>
          <path class="enemy_4_cls-16" d="M5.96,4.95c-.05.2,0,.4.25.34.02.05-.03.08-.06.12,0,0-.09.09-.09.09-.02.02-.14.08-.16.13-.04-.03-.12.08-.21.13,0-.03.11-.37-.29-.2.03-.03.04-.09.04-.1.03-.05.27-.25.33-.31.07-.07.1-.15.19-.21Z"/>
          <path class="enemy_4_cls-13" d="M4.98,1.15c.3.06.54.01.49.13-.07,0-.09.03-.12.06-.01.01-.02.01-.03.03-.08.16,0,.29.13.39h-.36c-.04-.22-.39-.32-.48-.09,0,.02-.02.05-.02.07,0,.04-.21.01-.34.03-.08,0-.56.12-.64.15-.02,0-.04.03-.06.04-.48.16-.74.24-1.09.63-.08.08-.12.23-.32.35,0-.08,0-.12-.06-.17-.24-.22-.54.22-.26.34.05.02.13.03.18.02,0,.15-.2.39-.17.52-.25.07-.24.5.02.61-.06.07-.07.48-.05.49.01,0,.06,0,.07,0,0,0,0,.02,0,.02-.1-.02-.19.03-.24.12-.12.23.11.54.34.55l-.02.12c-.19-.11-.14-.08-.12.03.02.13,0,.07-.18-.08-.01.01-.02.02-.04.03-.05-.08-.13-.15-.19-.22.02-.03-.08-.13-.12-.18,0,0,0,0-.01-.02-.11-.18-.24-.47-.26-.49-.06-.25-.08-.18-.2-.15v-.02c.19-.02.11-.07.05-.21,0,0,.01,0,.01-.01.07.15.21.44.43.32.27-.15.01-.91-.33-.72-.02-.08.07-.47.08-.49,0,0,.07,0,.07-.06.28.11.45-.26.41-.49,0-.03-.04-.07-.05-.1,0,0,.02,0-.01-.03.13-.09.2-.23.34-.3l.14-.2s.13-.13.15-.15c0,0,.07,0,.07-.03.17-.01.37-.19.38-.36.05,0,0-.05.13-.04.11.01.05.08.16-.04-.04.05-.06.11-.05.18.03.29.61.19.44-.18-.01-.03-.02-.03-.03-.04-.01-.02-.02-.03-.04-.04-.05-.12.43-.23.51-.19,0,0,0,.04.05.08.28.28.69.17.63-.14,0-.02-.02-.08-.03-.09.14-.03.28-.03.43-.04,0,0,0-.01,0-.02.05.02.15.05.21.06Z"/>
          <path class="enemy_4_cls-14" d="M3.37.7c-.01.19.07.1.29.09.01,0,.02,0,.04,0,.05,0,.25,0,.27,0,.03-.01,0-.06.04-.05.02,0,.01.04.02.04.02,0,.33.02.49.07,0,.01-.02.02-.02.04,0,0,.02,0,.02,0,.07.14.13.15.26.2,0,0,0,.02,0,.02-.14.01-.29,0-.43.04-.11-.17-.5-.22-.6.01-.02.04-.03.09-.03.13,0,.02.03.07.03.09-.04-.04-.04-.08-.05-.08-.08-.04-.56.07-.51.19-.11-.06-.25-.03-.32.08-.1.12-.04.05-.16.04-.13-.01-.07.04-.13.04,0-.04,0-.07-.01-.11-.02-.06-.07-.08-.08-.1,0,0,0-.01-.01-.02,0-.01-.01-.02-.02-.03.02-.04.49-.15.49-.26.09,0,.49-.07.45-.24-.03-.02-.1-.02-.1-.03-.01,0-.01,0-.02-.02.14-.02.04-.14.05-.17.03-.04.03,0,.03,0Z"/>
          <path class="enemy_4_cls-5" d="M2.06.28c-.08-.02-.18.02-.16.11.01.08.28.51.32.65,0,0-.03.04-.04.04-.09.06-.16.04-.08.16-.01.08.29-.1.42-.15-.01-.01-.01-.03-.02-.05.05.04.08-.06.14-.05.03,0-.01.03.05.02.04,0,.17-.07.23-.09-.02.05-.08.14-.01.18.02,0,.04.03.05.03,0,.11-.48.22-.49.26,0,0,.01.01.02.03-.26-.14-.66.2-.52.47,0,.02.01.03.03.05,0,0,0,0-.04-.03-.03-.03.03-.12-.29-.1-.07-.05-.18-.03-.26,0,.1-.07.05-.07.06-.08.02-.02.18-.12.35-.29.02-.02.08-.05.08-.08l-.44-.47c.05.05.35.38.38.38.03,0,.02-.03.09-.08.02-.01.1-.05.1-.07,0,0-.07-.1-.08-.12l.12.12s.15-.11.16-.12c0-.04-.35-.63-.33-.7.04-.05.15-.14.19-.06Z"/>
          <path class="enemy_4_cls-2" d="M.91,4.24s-.02-.06-.04-.08c.04-.02,0-.04.01-.06.03-.07.06-.22.13-.26.34-.18.6.58.33.72-.22.12-.35-.17-.43-.32Z"/>
          <path class="enemy_4_cls-9" d="M6.56,2.64s0,0,0,.01c0,.02.09.18.1.24.01.06-.02.14.02.2-.02.02-.21.33-.45.02-.25-.33,0-.74.33-.46Z"/>
          <path class="enemy_4_cls-13" d="M6.17,1.81c.04.05.13.16.16.22.03.04.05.09.07.13.01.02.02.05.03.07.02.04.05.11.06.15,0,0,0,0,0,.01-.22-.07-.41-.44-.62-.51-.02,0-.05.01-.05-.02.07-.02.08-.09.09-.15,0-.05,0-.1-.02-.15.06.04.22.19.27.25Z"/>
          <path class="enemy_4_cls-14" d="M4.96.91s.11.04.14.06c.03.02.06.02.09.04.01,0,.03.01.04.02.11.06.23.14.33.22,0,.12-.01.03-.09.03.05-.12-.19-.07-.49-.13l.08-.08s-.16-.12-.17-.15c-.02-.03,0-.09,0-.12.01.03.04.08.07.1Z"/>
          <g>
            <path class="enemy_4_cls-4" d="M7.1,2.06c-.06.05-.49.24-.61.32-.02-.04-.04-.11-.06-.15.07-.05.55-.32.59-.33.09-.02.11.09.09.16Z"/>
            <path class="enemy_4_cls-19" d="M7.1,2.06c.03-.07,0-.18-.09-.16-.03,0-.52.28-.59.33,0-.02-.02-.05-.03-.07.09-.05.57-.34.61-.34.08,0,.22.14.1.24Z"/>
          </g>
          <path class="enemy_4_cls-10" d="M1.44,5.33c-.06-.08-.07-.1-.12-.18.04.05.14.15.12.18Z"/>
          <path class="enemy_4_cls-7" d="M3.74,5.74c.18.08.28.28.15.45-.11.14-.38.14-.52.06-.32-.19-.11-.73.37-.5Z"/>
          <g>
            <path class="enemy_4_cls-11" d="M6.8,3.69s.05,0,.08-.01c0,.04.04,0,.06.03-.04,0-.09,0-.13.02,0,.05.03.08.04.14.02.13.01.36-.1.45-.23.18-.41-.23-.25-.51.1-.17.2-.11.3-.12Z"/>
            <path class="enemy_4_cls-10" d="M6.29,3.69c.12.14.08.44-.08.53-.14.08-.38.05-.43-.14-.09-.35.31-.64.51-.4Z"/>
          </g>
          <path class="enemy_4_cls-4" d="M1.85,4.26c-.26-.11-.27-.54-.02-.61.14-.04.31.04.38.17.15.27-.1.56-.36.45Z"/>
          <g>
            <path class="enemy_4_cls-8" d="M5.68,1.37s.03.02.05.03c.04.05.13.09.16.15.03.05.03.1.02.15-.07-.03-.15-.06-.22-.1-.13-.07-.25-.18-.38-.23,0-.02.02-.02.03-.03.11-.07.22-.02.33.03Z"/>
            <path class="enemy_4_cls-17" d="M5.92,1.71c0,.06-.02.13-.09.15-.12.04-.27-.02-.37-.09-.13-.1-.21-.24-.13-.39.13.05.25.16.38.23.07.04.14.07.22.1Z"/>
          </g>
          <g>
            <path class="enemy_4_cls-17" d="M1.88,4.77s.13.02.23.14c.19.23.07.51-.07.54.03-.26-.14-.5-.4-.55.05-.09.14-.14.24-.12Z"/>
            <path class="enemy_4_cls-4" d="M2.04,5.45s-.04,0-.06,0c-.23-.01-.47-.32-.34-.55.26.05.43.29.4.55Z"/>
          </g>
          <g>
            <path class="enemy_4_cls-4" d="M4.07,2.41c-.17.22-.41.21-.59.01.04-.38.53-.3.59-.01Z"/>
            <path class="enemy_4_cls-17" d="M4.05,2.68c-.08.15-.31.18-.44.09-.12-.08-.14-.23-.13-.35.18.2.42.21.59-.01.02.08.02.2-.02.27Z"/>
          </g>
          <path class="enemy_4_cls-17" d="M5.77,3.04c-.16.08-.35-.05-.33-.23.02-.16.2-.22.33-.13.11.08.14.3,0,.36Z"/>
          <g>
            <path class="enemy_4_cls-17" d="M5.09,1.83c0,.36-.53.26-.5-.08,0-.02.01-.05.02-.07.15.07.31.15.48.15Z"/>
            <path class="enemy_4_cls-4" d="M5.09,1.77s0,.04,0,.06c-.17,0-.33-.08-.48-.15.1-.23.44-.13.48.09Z"/>
          </g>
          <g>
            <path class="enemy_4_cls-4" d="M2.9,4.14c.01.05-.1.01-.1.08,0,.03.15.14.1.38-.24.05-.48-.28-.13-.46.04,0,.09,0,.13.01Z"/>
            <path class="enemy_4_cls-17" d="M3,4.53s-.08.06-.1.06c.05-.24-.1-.35-.1-.38,0-.06.11-.02.1-.08.18.05.23.26.1.39Z"/>
          </g>
          <g>
            <path class="enemy_4_cls-16" d="M5.09,1.83s0-.04,0-.06h.36c.1.07.25.13.37.09,0,.03.03.01.05.02.21.07.4.44.62.51.02.04.04.09.05.12,0,0-.03.03.04.11,0,.01,0,0-.02.02-.33-.28-.58.13-.33.46.24.32.43,0,.45-.02,0,0,.04,0,.08-.04,0,.01,0,.04.01.05,0,.04,0,.1,0,.14,0,.03,0,.05,0,.08,0,0,0,.01,0,.02,0,.09,0,.24.03.25,0,.03-.02.07,0,.11-.1,0-.2-.06-.3.12-.16.28.03.69.25.51,0,.03.01.03.01.04,0,0-.02,0-.03.04-.03.09-.02.09-.02.1-.02.06-.06.13-.08.19-.04.09-.1.28-.13.28.02-.16-.03-.23-.15-.31-.02-.02-.06,0-.07-.05,0-.03.05-.17-.07-.38.17-.1.2-.39.08-.53.09-.19-.32-.57-.51-.65.13-.06.1-.28,0-.36-.13-.09-.31-.03-.33.13-.02,0,0-.02-.02-.03-.08-.04-1.19-.11-1.38-.1.04-.07.04-.19.02-.27-.06-.29-.55-.37-.59.01-.01.13.01.28.13.35-.14.1-.52.51-.59.63-.17.28-.17.69-.19.72,0,0-.03,0-.06.02-.35.18-.11.51.13.46.02,0,.08-.04.1-.06.04.04.07.19.1.27.21.51.57.56.64.94-.49-.23-.69.31-.37.5-.02.11-.01.05-.06.07-.03,0-.1,0-.11,0,0,0,0,0-.04-.01,0,0,0-.02-.14-.04-.04,0-.08,0-.12-.02,0-.03-.09-.26-.28-.21-.04.01-.04.07-.12.04,0,0-.12-.08-.12-.09,0-.02.09-.04-.06-.12-.03,0-.06.06-.09.09,0-.03-.11-.07-.15-.08.07-.17.08-.19-.13-.31l.02-.12s.05,0,.06,0c.14-.03.26-.31.07-.54-.1-.12-.2-.12-.23-.14,0,0,0-.02,0-.02-.01,0-.06,0-.07,0-.02-.01-.02-.42.05-.49.27.11.51-.18.36-.45-.07-.12-.25-.2-.38-.17-.03-.13.17-.37.17-.52.08-.02.14-.11.14-.19.2-.12.24-.26.32-.35.35-.39.61-.47,1.09-.63.02,0,.04-.04.06-.04.09-.03.57-.14.64-.15.13-.02.33.01.34-.03-.03.34.5.44.5.08Z"/>
            <g>
              <g>
                <path class="enemy_4_cls-4" d="M3,2.72c-.04.23-.17.34-.38.42-.33-.23.09-.74.38-.42Z"/>
                <path class="enemy_4_cls-17" d="M2.62,3.14c.21-.08.34-.19.38-.42.25.27-.05.65-.38.42Z"/>
              </g>
              <g>
                <path class="enemy_4_cls-4" d="M2.56,5.2c.22.06.37.26.34.49-.32.1-.62-.26-.45-.52.03.03.08.02.11.03Z"/>
                <path class="enemy_4_cls-17" d="M2.9,5.69c.02-.23-.12-.43-.34-.49.09-.1.25.15.23-.13.32.09.4.53.11.62Z"/>
                <path class="enemy_4_cls-17" d="M2.79,5.07c.02.28-.14.03-.23.13-.03,0-.08,0-.11-.03.08-.12.21-.14.34-.1Z"/>
              </g>
            </g>
          </g>
          <g>
            <path class="enemy_4_cls-1" d="M5.44,2.81c-.02.18.17.31.33.23.19.09.6.46.51.65-.21-.25-.61.05-.51.4.05.18.29.22.43.14.12.21.06.35.07.38,0,.04.05.03.07.05-.19-.02-.35.14-.39.31-.09.06-.12.13-.19.21-.06.07-.3.26-.33.31,0,0-.01.07-.04.1-.23.26-.04.35-.02.38-.04,0-.07.04-.1.05-.07.03-.08.03-.14.07-.02.02-.05.03-.08.04,0,0,0-.01-.01-.02-.01-.03-.03-.06-.04-.09-.05-.1-.01-.13-.09-.12-.43.22-.31.16-.26.38-.12.05-.09-.11-.12-.14-.02-.01-.37.04-.39.06-.07.05.04.13-.08.15-.04,0-.12,0-.18,0-.1,0-.06-.02-.09-.02,0,0-.09.04-.15.04,0,0-.01,0-.02,0,0,0,0,0-.08-.01-.09,0-.08.01-.08.01-.05,0-.07,0-.07-.01-.03,0-.08-.03-.11-.03.05-.02.04.04.06-.07.14.09.41.09.52-.06.13-.17.03-.36-.15-.45-.07-.37-.44-.43-.64-.94-.03-.07-.06-.23-.1-.27.13-.13.08-.34-.1-.39-.04-.01-.09-.01-.13-.01.03-.02.05,0,.06-.02.02-.03.02-.45.19-.72.07-.12.45-.53.59-.63.13.09.36.06.44-.09.19,0,1.3.06,1.38.1.01,0,0,.03.02.03Z"/>
            <g>
              <path class="enemy_4_cls-4" d="M4.96,3.37c.1.41.18.39.38.63.02.03-.05.02.06.05-.15,0-.22.18-.17.31-.03,0,0-.03-.04-.03-.01,0-.23.11-.19.12,0,0,0,0-.04-.01-.08,0-.2.04-.23.12-.08.02-.07-.03-.11-.05-.04-.02-.34-.04-.44-.08-.13.03-.25-.01-.37-.07.03-.16-.11-.27-.26-.24.02-.08.3-.4.34-.42.04-.03.35-.11.59-.3.03-.02.06.01.05-.04.12.13.29.13.42.02Z"/>
              <path class="enemy_4_cls-17" d="M4.56,5.17c.49-.06.42.66-.04.63-.4-.02-.3-.59.04-.63Z"/>
              <path class="enemy_4_cls-17" d="M5.4,4.04s.13,0,.19.08c.18.24-.26.52-.36.24-.05-.13.02-.3.17-.31Z"/>
              <path class="enemy_4_cls-17" d="M3.83,4.35s-.08.13-.13.14c-.31.1-.43-.33-.14-.38.15-.03.29.08.26.24Z"/>
              <g>
                <path class="enemy_4_cls-17" d="M4.99,3.33c-.17.02-.46-.13-.35-.33.05-.09.14-.08.09-.14.29-.05.43.24.26.46Z"/>
                <path class="enemy_4_cls-10" d="M4.73,2.87c.05.06-.04.05-.09.14-.11.2.18.35.35.33,0,.01-.02.03-.03.04-.13.11-.31.11-.42-.02-.11-.18-.02-.44.19-.48Z"/>
              </g>
              <g>
                <path class="enemy_4_cls-17" d="M4.97,4.43c.02.06-.12.02-.1.14.16-.13.22.01.28-.04.18.22-.05.49-.3.35-.11-.06-.16-.22-.12-.33.03-.08.15-.12.23-.12Z"/>
                <path class="enemy_4_cls-17" d="M5.01,4.44c.07.02.1.04.14.09-.06.05-.12-.09-.28.04-.02-.12.12-.08.1-.14.03,0,.03,0,.04.01Z"/>
              </g>
            </g>
          </g>
          <path class="enemy_4_cls-14" d="M1.99,1.95s.06.05.09.06c.04.01.08.01.12.01,0,.04-.06.03-.07.03-.02.01-.1.12-.15.15l-.14.2c-.14.07-.21.21-.34.3.03.02,0,.02.01.03,0,0-.02-.01-.03-.02-.3-.27-.64.3-.39.55.02.02.03.04.06.05,0,.05-.07.05-.07.06-.01.02-.1.41-.08.49-.07.04-.1.19-.13.26.01-.21-.01-.43,0-.64.02-.49.12-.73.27-1.18,0,0,.01-.01.02-.01.01,0,.02.04.07.07.02.01.03.04.07.05.21.06.45-.24.43-.43,0-.03-.03-.11-.06-.13.32-.03.26.07.29.1.03.03.04.02.04.03Z"/>
          <g>
            <path class="enemy_4_cls-17" d="M2.08,2.77c.06.05.06.1.06.17,0,.08-.07.17-.14.19-.05.01-.13,0-.18-.02-.02-.09.04-.07.06-.11,0,0-.02-.03,0-.07,0-.01.02.02.03-.01,0-.01-.01-.03-.01-.04,0,0,.12-.02.04-.04.07-.02,0-.1.14-.08Z"/>
            <path class="enemy_4_cls-8" d="M2.08,2.77c-.15-.03-.07.05-.14.08.08.02-.04.03-.04.04,0,.01.02.03.01.04-.01.03-.03,0-.03.01-.02.04,0,.07,0,.07-.02.03-.08.02-.06.11-.28-.12.02-.56.26-.34Z"/>
          </g>
          <g>
            <path class="enemy_4_cls-17" d="M2.82,1.76s.03,0,.04,0c.17.04.31-.03.4-.18.17.37-.41.47-.44.18Z"/>
            <path class="enemy_4_cls-1" d="M3.19,1.49s.03.02.04.04c-.03,0-.06.06-.12.1-.06.05-.18.14-.26.12-.01,0-.02-.04-.04,0,0-.07.01-.13.05-.18.07-.11.21-.14.32-.08Z"/>
            <path class="enemy_4_cls-4" d="M3.23,1.53s.02.01.03.04c-.09.15-.23.22-.4.18.07.02.19-.07.26-.12.05-.05.09-.11.12-.1Z"/>
          </g>
          <g>
            <path class="enemy_4_cls-17" d="M2.59,1.65c-.02.17-.21.35-.38.36-.04,0-.08,0-.12-.01.2-.11.39-.28.49-.46.01.04.01.07.01.11Z"/>
            <path class="enemy_4_cls-1" d="M2.48,1.42s0,.02.01.02c-.14.2-.32.34-.53.45-.14-.27.26-.61.52-.47Z"/>
            <path class="enemy_4_cls-15" d="M2.58,1.54c-.11.18-.29.35-.49.46-.03,0-.07-.04-.09-.06-.02-.02-.02-.03-.03-.05.22-.11.39-.25.53-.45.01.02.06.04.08.1Z"/>
          </g>
          <g>
            <path class="enemy_4_cls-17" d="M4.37,1.24c.06.31-.36.43-.63.14,0-.02-.03-.07-.03-.09.06.01.09-.05.13-.08.17.1.36.15.53.03Z"/>
            <path class="enemy_4_cls-1" d="M4.34,1.15s.03.07.03.09c-.17.12-.37.07-.53-.03,0,0-.05-.06-.1-.05.1-.23.49-.18.6-.01Z"/>
            <path class="enemy_4_cls-4" d="M3.84,1.21s-.07.09-.13.08c0-.04.01-.09.03-.13.06,0,.09.05.1.05Z"/>
          </g>
          <g>
            <path class="enemy_4_cls-19" d="M1.66,1.83s.06.1.06.13c-.08-.03-.1-.12-.21-.06-.04.02-.24.37-.29.44-.05-.03-.05-.06-.07-.07,0,0,0,.01-.02.01-.09-.06-.56-.37-.62-.38-.12-.02-.13.11-.1.2-.16-.1-.06-.31.14-.24.07.03.47.28.58.35.02-.09.06-.17.1-.26,0,0,.03,0,.04-.06.03,0,.05-.03.11-.06.08-.03.19-.05.26,0Z"/>
            <path class="enemy_4_cls-4" d="M1.72,1.96c.02.2-.21.49-.43.43-.03,0-.05-.04-.07-.05.04-.07.25-.42.29-.44.11-.06.12.03.21.06Z"/>
          </g>
          <g>
            <path class="enemy_4_cls-15" d="M1.49,2.7s.02.02.03.02c0,.03.04.06.05.1.04.23-.13.6-.41.49-.03-.01-.04-.03-.06-.05.17-.14.22-.33.31-.52.04-.07.08.01.08-.04Z"/>
            <path class="enemy_4_cls-1" d="M1.49,2.7s-.04-.03-.08.04c-.09.19-.14.37-.31.52-.24-.25.1-.82.39-.55Z"/>
          </g>
        </g>
      </g>
    </g>
  </g>
</svg>