<?xml version="1.0" encoding="UTF-8"?>
<svg id="steroids" xmlns="http://www.w3.org/2000/svg" xmlns:xlink="http://www.w3.org/1999/xlink" viewBox="0 0 100 100">
  <defs>
    <style>
      .enemy_0_cls-1 {
        fill: url(#enemy_0_linear-gradient-15);
      }

      .enemy_0_cls-2 {
        fill: url(#enemy_0_linear-gradient-13);
      }

      .enemy_0_cls-3 {
        fill: #2a1d24;
      }

      .enemy_0_cls-4 {
        fill: url(#enemy_0_linear-gradient-2);
      }

      .enemy_0_cls-5 {
        fill: url(#enemy_0_linear-gradient-25);
      }

      .enemy_0_cls-6 {
        fill: url(#enemy_0_linear-gradient-10);
      }

      .enemy_0_cls-7 {
        fill: url(#enemy_0_linear-gradient-12);
      }

      .enemy_0_cls-8 {
        fill: url(#enemy_0_linear-gradient-27);
      }

      .enemy_0_cls-9 {
        fill: #4e8c8e;
      }

      .enemy_0_cls-10 {
        fill: url(#enemy_0_linear-gradient-26);
      }

      .enemy_0_cls-11 {
        fill: url(#enemy_0_linear-gradient-4);
      }

      .enemy_0_cls-12 {
        fill: #5ba7ab;
      }

      .enemy_0_cls-13 {
        fill: #3f97a9;
      }

      .enemy_0_cls-14 {
        fill: url(#enemy_0_linear-gradient-3);
      }

      .enemy_0_cls-15 {
        fill: url(#enemy_0_linear-gradient-5);
      }

      .enemy_0_cls-16 {
        fill: url(#enemy_0_linear-gradient-22);
      }

      .enemy_0_cls-17 {
        fill: url(#enemy_0_linear-gradient-24);
      }

      .enemy_0_cls-18 {
        fill: #9ee7f1;
      }

      .enemy_0_cls-19 {
        fill: #44a9c6;
      }

      .enemy_0_cls-20 {
        fill: url(#enemy_0_linear-gradient-8);
      }

      .enemy_0_cls-21 {
        fill: #4b5732;
      }

      .enemy_0_cls-22 {
        fill: #5fb9c2;
      }

      .enemy_0_cls-23 {
        fill: url(#enemy_0_linear-gradient-14);
      }

      .enemy_0_cls-24 {
        fill: url(#enemy_0_linear-gradient-20);
      }

      .enemy_0_cls-25 {
        fill: url(#enemy_0_linear-gradient-17);
      }

      .enemy_0_cls-26 {
        fill: url(#enemy_0_linear-gradient-7);
      }

      .enemy_0_cls-27 {
        fill: #e3a647;
      }

      .enemy_0_cls-28 {
        fill: url(#enemy_0_linear-gradient-9);
      }

      .enemy_0_cls-29 {
        fill: url(#enemy_0_linear-gradient-11);
      }

      .enemy_0_cls-30 {
        fill: url(#enemy_0_linear-gradient-19);
      }

      .enemy_0_cls-31 {
        fill: #5ac0d7;
      }

      .enemy_0_cls-32 {
        fill: url(#enemy_0_linear-gradient-6);
      }

      .enemy_0_cls-33 {
        fill: #356c74;
      }

      .enemy_0_cls-34 {
        fill: #cef2fa;
      }

      .enemy_0_cls-35 {
        fill: url(#enemy_0_linear-gradient-21);
      }

      .enemy_0_cls-36 {
        fill: #f2c050;
      }

      .enemy_0_cls-37 {
        fill: #7dd1d8;
      }

      .enemy_0_cls-38 {
        fill: url(#enemy_0_linear-gradient-16);
      }

      .enemy_0_cls-39 {
        fill: url(#enemy_0_linear-gradient);
      }

      .enemy_0_cls-40 {
        fill: url(#enemy_0_linear-gradient-23);
      }

      .enemy_0_cls-41 {
        fill: #3c808c;
      }

      .enemy_0_cls-42 {
        fill: url(#enemy_0_linear-gradient-18);
      }
    </style>
    <linearGradient id="enemy_0_linear-gradient" x1="6.71" y1=".22" x2="6.29" y2="3.11" gradientUnits="userSpaceOnUse">
      <stop offset="0" stop-color="#90dbe9"/>
      <stop offset="1" stop-color="#458990"/>
    </linearGradient>
    <linearGradient id="enemy_0_linear-gradient-2" x1="11.42" y1="11.02" x2="7.73" y2="11.63" gradientUnits="userSpaceOnUse">
      <stop offset="0" stop-color="#6bc6cf"/>
      <stop offset=".79" stop-color="#447f83"/>
    </linearGradient>
    <linearGradient id="enemy_0_linear-gradient-3" x1="13.17" y1="7.74" x2="12.09" y2="8.39" gradientUnits="userSpaceOnUse">
      <stop offset="0" stop-color="#7cd4dc"/>
      <stop offset="1" stop-color="#62b2b4"/>
    </linearGradient>
    <linearGradient id="enemy_0_linear-gradient-4" x1="13.17" y1="5.49" x2="12.07" y2="6.85" gradientUnits="userSpaceOnUse">
      <stop offset="0" stop-color="#90dde7"/>
      <stop offset="1" stop-color="#69bbbb"/>
    </linearGradient>
    <linearGradient id="enemy_0_linear-gradient-5" x1="1.41" y1="3.3" x2="1.45" y2="4.65" gradientUnits="userSpaceOnUse">
      <stop offset="0" stop-color="#6dbbcc"/>
      <stop offset="1" stop-color="#468f96"/>
    </linearGradient>
    <linearGradient id="enemy_0_linear-gradient-6" x1="11.9" y1="10.29" x2="11.41" y2="10.71" gradientUnits="userSpaceOnUse">
      <stop offset="0" stop-color="#76cdd8"/>
      <stop offset="1" stop-color="#5eadb3"/>
    </linearGradient>
    <linearGradient id="enemy_0_linear-gradient-7" x1=".61" y1="5.05" x2=".62" y2="5.57" gradientUnits="userSpaceOnUse">
      <stop offset="0" stop-color="#58a9bd"/>
      <stop offset="1" stop-color="#418e9b"/>
    </linearGradient>
    <linearGradient id="enemy_0_linear-gradient-8" x1="6.06" y1="2.82" x2="5.64" y2="3.1" gradientUnits="userSpaceOnUse">
      <stop offset="0" stop-color="#73ccde"/>
      <stop offset="1" stop-color="#4eaab6"/>
    </linearGradient>
    <linearGradient id="enemy_0_linear-gradient-9" x1="7.27" y1="3.63" x2="7.91" y2="3.75" gradientUnits="userSpaceOnUse">
      <stop offset="0" stop-color="#54abbc"/>
      <stop offset="1" stop-color="#72cbda"/>
    </linearGradient>
    <linearGradient id="enemy_0_linear-gradient-10" x1="10.63" y1="4.39" x2="10.01" y2="4.79" gradientUnits="userSpaceOnUse">
      <stop offset="0" stop-color="#77d2e0"/>
      <stop offset="1" stop-color="#5ab1c2"/>
    </linearGradient>
    <linearGradient id="enemy_0_linear-gradient-11" x1="3.3" y1="8.7" x2="2.99" y2="8.91" gradientUnits="userSpaceOnUse">
      <stop offset="0" stop-color="#67c2d4"/>
      <stop offset="1" stop-color="#4ba4b4"/>
    </linearGradient>
    <linearGradient id="enemy_0_linear-gradient-12" x1="10.59" y1="9.51" x2="10.13" y2="9.77" gradientUnits="userSpaceOnUse">
      <stop offset="0" stop-color="#6ec8d9"/>
      <stop offset="1" stop-color="#4da3b6"/>
    </linearGradient>
    <linearGradient id="enemy_0_linear-gradient-13" x1="8.97" y1="10.36" x2="8.59" y2="10.53" gradientUnits="userSpaceOnUse">
      <stop offset="0" stop-color="#69c3d4"/>
      <stop offset="1" stop-color="#4ca4b2"/>
    </linearGradient>
    <linearGradient id="enemy_0_linear-gradient-14" x1="4.46" y1=".86" x2="4" y2="1.62" gradientUnits="userSpaceOnUse">
      <stop offset="0" stop-color="#8bd9e6"/>
      <stop offset="1" stop-color="#65b6b9"/>
    </linearGradient>
    <linearGradient id="enemy_0_linear-gradient-15" x1="6.69" y1="11.37" x2="6.32" y2="11.64" gradientUnits="userSpaceOnUse">
      <stop offset="0" stop-color="#6ac4d5"/>
      <stop offset="1" stop-color="#4ba0b2"/>
    </linearGradient>
    <linearGradient id="enemy_0_linear-gradient-16" x1="5.04" y1="4.28" x2="4.71" y2="4.48" gradientUnits="userSpaceOnUse">
      <stop offset="0" stop-color="#6fc7d8"/>
      <stop offset="1" stop-color="#51a8b7"/>
    </linearGradient>
    <linearGradient id="enemy_0_linear-gradient-17" x1="4.22" y1="5.2" x2="3.86" y2="5.55" gradientUnits="userSpaceOnUse">
      <stop offset="0" stop-color="#71c9dc"/>
      <stop offset="1" stop-color="#489fae"/>
    </linearGradient>
    <linearGradient id="enemy_0_linear-gradient-18" x1="7.72" y1="6.88" x2="6.93" y2="8.2" gradientUnits="userSpaceOnUse">
      <stop offset="0" stop-color="#75ccdf"/>
      <stop offset="1" stop-color="#53aebb"/>
    </linearGradient>
    <linearGradient id="enemy_0_linear-gradient-19" x1="5.08" y1="7.47" x2="3.86" y2="8.92" gradientUnits="userSpaceOnUse">
      <stop offset="0" stop-color="#72cad9"/>
      <stop offset="1" stop-color="#56aebc"/>
    </linearGradient>
    <linearGradient id="enemy_0_linear-gradient-20" x1="8.44" y1="4.95" x2="8.91" y2="5.02" gradientUnits="userSpaceOnUse">
      <stop offset="0" stop-color="#52aaba"/>
      <stop offset="1" stop-color="#70c8d8"/>
    </linearGradient>
    <linearGradient id="enemy_0_linear-gradient-21" x1="7.76" y1="9.67" x2="7.27" y2="9.78" gradientUnits="userSpaceOnUse">
      <stop offset="0" stop-color="#6bc6d8"/>
      <stop offset="1" stop-color="#4aa4b5"/>
    </linearGradient>
    <linearGradient id="linear-gradient-22" x1="10.11" y1="6.34" x2="9.5" y2="6.35" gradientUnits="userSpaceOnUse">
      <stop offset="0" stop-color="#75cddd"/>
      <stop offset="1" stop-color="#50a8b7"/>
    </linearGradient>
    <linearGradient id="enemy_0_linear-gradient-23" x1="6.06" y1="9.46" x2="5.55" y2="9.58" gradientUnits="userSpaceOnUse">
      <stop offset="0" stop-color="#6cc6d6"/>
      <stop offset="1" stop-color="#4ca5b3"/>
    </linearGradient>
    <linearGradient id="enemy_0_linear-gradient-24" x1="9.1" y1="9.09" x2="8.7" y2="9.33" gradientUnits="userSpaceOnUse">
      <stop offset="0" stop-color="#6bc4d5"/>
      <stop offset="1" stop-color="#4aa3af"/>
    </linearGradient>
    <linearGradient id="enemy_0_linear-gradient-25" x1="6.34" y1="5.27" x2="5.98" y2="5.45" gradientUnits="userSpaceOnUse">
      <stop offset="0" stop-color="#70c7da"/>
      <stop offset="1" stop-color="#51a8b6"/>
    </linearGradient>
    <linearGradient id="enemy_0_linear-gradient-26" x1="4.76" y1="6.37" x2="5.36" y2="6.5" gradientUnits="userSpaceOnUse">
      <stop offset="0" stop-color="#4fa7b5"/>
      <stop offset="1" stop-color="#6ec7d8"/>
    </linearGradient>
    <linearGradient id="enemy_0_linear-gradient-27" x1="2.31" y1="5.55" x2="2" y2="5.99" gradientUnits="userSpaceOnUse">
      <stop offset="0" stop-color="#75ccdf"/>
      <stop offset="1" stop-color="#51a9b8"/>
    </linearGradient>
  </defs>
    <g id="enemy_0">
      <g>
        <g>
          <path class="enemy_0_cls-39" d="M6.84.68c-.13.02-.16.06-.22.14-.04.05-.1.18-.11.23-.03.19.09,1.14.18,1.3.1.17.35.17.42.02.04-.1,0-.22.02-.32,0-.01.03,0,.04-.02.01-.09.03-.17.04-.26.07-.22.1-.58.04-.79.36-.07.14-.09.22-.3.12-.32.49.08.6.21.24-.84,1.15-.46.71.31-.09-.02-.62-.04-.49.09-.01,0-.19.17-.2.19-.17.26-.07.87-.05,1.18-.15-.04-.27-.03-.4.05-.15.09-.31.46-.38.63-.39-.02-.81,0-1.19.07.71-.5-.09-1.29-.52-.8-.12.13-.14.41-.09.57-.35,0-.87.38-1.15.61-.18.16-.4.47-.44.34.06-.06.12-.12.18-.18.28-.27.6-.49.93-.7.06-.03-.03-.05-.12-.09.2-.05.22-.15.25-.32.05.29.15-.11.18-.22.01-.04.08-.19.07-.23,0-.04-.14-.18-.14-.19-.02-.09.1-.26-.04-.48-.11-.19-.32-.19-.51-.14,0,0-.02,0-.05.02.15-.12.05-.08.05-.1.02-.07.02-.3,0-.37.14-.03.28-.09.42-.13.07-.02.19-.01.2-.03-.12-.15-.26-.34-.22-.53.1-.42.79-.31.86.32.03-1.06.98-.95.91-.09Z"/>
          <path class="enemy_0_cls-37" d="M12.73,5.32s-.18-.02-.19-.02c-.06.04.19.34,0,.42-.15-.34-.68-.09-.94-.09.18-.26.74-.29.8-.31.14-.05.01-.14,0-.14-.04,0-.67.09-.79.05-.03-.02.11-.24.04-.23-.1.3-.41.44-.26.1.16.09-.05-.17.09-.34.06-.08.39-.1.49-.32,0-.13-.4-.42-.51-.44-.43-.07-.11.38-.53.38,0-.04-.01-.04-.02-.05.65-.27-.43-.81.17-.61-.08-.28.03-.26.03-.28,0-.05-.21-.09-.23-.1-.32-.19-.63-.68-.94-.4-.06-.26.09-.24.05-.35-.43-.39-.68-.45-1.25-.53.02-.17.07-.42,0-.58.1-.03.28.02.33,0,.05-.02.02-.09.03-.11.39-.88.88-.43.92-.21.09.54-.58.45.3.82.26-.53.94-.41.86.12-.04.29-.33.12.24.5.64-.81,1.35.26.4.67.1.48.22-.19.78-.02.29.09.49.65-.28.98.27.55.16.2.51.15.64-.08.78.82-.08.96Z"/>
          <path class="enemy_0_cls-4" d="M10.87,10.12s0,.02,0,.04c0,.04.1.36.13.23.01.07.32.54.4.63,0,.01.13.05.22.17.31.43-.13.91-.6.55-.25-.19-.17-.47-.5-.14,0,0,0,0-.07-.09-.04-.05-.2-.29-.22-.31l.12-.2-.33.05c-.22-.29-.09-.56-.36-.28,0,.12.33.77.32.81,0,.04-.23.17-.23.2,0,0,.03,0,.05.05.19.51-.31.77-.58.36,0,0,0-.02-.02-.04,0,0-.03,0-.04,0-.07-.15-.12-1.06-.33-1-.57.36.03.82.03.88,0,.03-.28.23-.4.37-.02.02-.1.07-.11.08,0,.02.05.29.05.35,0,.03,0,.06,0,.09-.13.01-.21.23-.61.13.02-.09,0-.38.04-.51.49-.21.2-1.16-.36-.83-.17-.26.08-.35.04-.47.44-.05.79-.19,1.21-.32.04-.01.6-.03.58-.51.24-.19.47-.39.65-.63.21.29.59.64.94.34Z"/>
          <path class="enemy_0_cls-14" d="M12.95,7.43s.04.03.04.04c.01.15.02.02.23.09.25.08.36.37.21.59-.16.22-.45.1-.67.13,1.22.15.84,1.19-.25.82.03-.29-.29-.53-.47-.72.22-.1.47-.05.29-.12.18-.08-.23-.03-.28-.05-.11-.04-.02-.43-.35-.2-.01-.02-.21-.15-.25-.2-.14-.09-.17-.28-.07-.4.26.12.56.31.7-.07,0,0,.03,0,.02-.05h.02c0,.08-.05.07.05.21.19.27.67.25.79-.06Z"/>
          <path class="enemy_0_cls-12" d="M3.9,1.96c.03.08.03.05.04.05.02.03.09.46.34.09l.14-.07c0,.14.04.1.05.11.03.08.04.44.07.6-.03.25-.05.08-.15.09-.01,0-.21.11-.23.11-.03,0-.16-.02-.34,0-.13.02-.17.07-.21.07,0,0-.09-.04-.18-.02.06-.64-.74-.75-.85-.22-.18-.06-.7.66-.79.83-.13-.02-.02-.14.05-.29.02-.03.13-.18.13-.19-.01-.04-.53-.22-.29-.68.11.3.41.32.69.19.04-.1-.02-.17-.05-.24-.03-.08-.07-.1-.09-.2.14,0,.15.08.17.09.19.05.53-.25.64-.4.02-.03.08-.04.07-.1,0-.04-.24-.17-.13-.53.04.16.13.31.14.47.09.05.24.07.25.07.18.08.32.26.55.16Z"/>
          <path class="enemy_0_cls-11" d="M12.73,5.32c.1.51.16.22.44.18.73-.1.79.63.32.83-.32.14-.48-.04-.41.23-.13.09-.57.07-.51.27-.21,0-.37.11-.49.27-.03-.1-.21-.28-.32-.31-.14-.03-.51.04-.71-.04.06-.03.1,0,.12-.02.02,0,.04-.05.05-.05.11-.05.12.09.32-.19-.31-.15.02-.06.08-.08.02,0,.06-.08.1-.09.07-.02.18.03.25-.04.11-.02.1-.03.11-.04.3.02.57-.23.43-.54.2-.07-.05-.38,0-.42,0,0,.16.02.19.02Z"/>
          <path class="enemy_0_cls-41" d="M2.35,10.16c-.13.61.68.68.85.27l.05.02c-.07.18-.05.48.14.58-.09.06.32.53.43.77l-.23.28c-.36.15-.7-.09-.58-.51.05-.18.2-.1-.03-.33-.45.49-1,.14-.82-.33.11-.28.41-.15.13-.51.05-.1-.02-.22.05-.22Z"/>
          <path class="enemy_0_cls-33" d="M6.01,11.22c-.1.26.04.45.23.61-.06.29-.18.71-.18.99-.37.32-.49.42-.9.07.23-.13.2-.69.23-.82.04-.18.16-.46.18-.59.04-.22-.04-.35-.25-.42.07-.01.19-.07.23-.13.15.08.51.15.45.27Z"/>
          <path class="enemy_0_cls-15" d="M1.82,3.31c-.08.15-.18.26-.05.29-.02.04-.11.18-.04.16-.08.14-.03.27-.04.28-.01.02-.39.2-.43.27.46.19.48.1.8.55.25-.28.18-.16.02.13l-.34-.4c.02.39-.05.22-.58.22l-.08.32c-.03-.05-.13-.14-.18-.16.11-.32-.01-.18-.14-.35-.23-.29-.05-.81.67-.58-.85-.48-.24-1.26.4-.73Z"/>
          <path class="enemy_0_cls-32" d="M11.18,9.79s-.01,0,.04.02c.29.09.64.33.68.32.05,0,.14-.28.19-.07-.18.19.06.19.17.29.46.38.27.96-.4.74-.31-.1-.35-.35-.46-.07-.07-.09-.38-.56-.4-.63-.02-.09.09-.25.05-.36.06-.17-.03-.27.13-.23Z"/>
          <path class="enemy_0_cls-27" d="M5.58,11.49c-.02.13-.14.4-.18.59-.03.14,0,.69-.23.82-.14.08-.36.05-.45-.09-.08-.12-.09-.34-.07-.48,0-.04.26-.76.29-.82.02-.03.04-.08.05-.11.2-.36.58-.37.6.09Z"/>
          <path class="enemy_0_cls-41" d="M2.46,9.94s-.09.15-.11.22c-.07,0,0,.12-.05.22-.17.36-1.62.12-.49-.81.06-.01.25-.09.3-.07.04.01.29.4.35.45Z"/>
          <path class="enemy_0_cls-26" d="M.9,4.97c.06.03.15.11.18.16.18.38-.35.57-.36.6,0,.02.06.09.02.35-.03-.01-.15-.07-.16-.07.2-.3-.21-.14-.4-.44-.24-.41.18-.87.72-.6Z"/>
          <path class="enemy_0_cls-37" d="M3.85,1.38c.02.14,0,.28.02.42,0,0-.04.03-.04.04,0,.02.07.11.07.12-.23.1-.37-.08-.55-.16-.01,0-.16-.02-.25-.07,0-.16-.09-.31-.14-.47.09-.31.49-.38.7-.15.07.07.13.25.18.28Z"/>
          <path class="enemy_0_cls-37" d="M12.98,7.47s-.03-.03-.04-.04c.11-.29-.04-.58-.36-.6-.06-.2.37-.18.51-.27.95.03.81.86-.11.9Z"/>
          <path class="enemy_0_cls-12" d="M1.34,8.95s0-.05,0-.07c.42-.7,1.09-.07.74.39-.13.17-.39.22-.57.1-.15-.1-.14-.26-.17-.42Z"/>
          <path class="enemy_0_cls-37" d="M3.02,1.89c-.11.15-.45.45-.64.4-.03,0-.04-.09-.17-.09-.07-.34.16-.54.5-.49.15.02.21.16.32.18Z"/>
          <path class="enemy_0_cls-37" d="M2.29,2.39c.03.08.09.14.05.24-.27.13-.58.11-.69-.19.14-.26.43-.2.63-.05Z"/>
          <path class="enemy_0_cls-37" d="M8.77,1.18c.05.01.23.13.31.16-.01.02.02.09-.03.11-.05.02-.23-.03-.33,0-.06-.14-.29-.22-.43-.18-.13-.13.4-.11.49-.09Z"/>
          <path class="enemy_0_cls-22" d="M5.07.44c-.04.19.09.39.22.53-.01.01-.13,0-.2.03-.06-.15-.13-.47-.02-.56Z"/>
          <g>
            <path class="enemy_0_cls-41" d="M1.34,7.7c.06.12.21.23.34.23.02.06-.32.19-.46.27-.1.06-.51.33-.54.34-.07.03-.06,0-.1,0-.15-.1-.15-.24-.23-.38.06-.23.28-.28.49-.34.18,0,.33-.12.51-.13Z"/>
            <path class="enemy_0_cls-41" d="M.58,8.55s-.05.03-.13,0c-.13-.12-.15-.21-.11-.38.09.14.08.28.23.38Z"/>
          </g>
          <g>
            <path class="enemy_0_cls-41" d="M.58,6.02s.14.06.16.07c.03.01.32.2.51.29.15.07.38.12.4.13.09.05.24.39.37.49,0,0,0,.05,0,.05.09.03.27-.04.37.02-.22-.01-.53-.02-.43.05-.33-.22-.88.06-.63.58-.18,0-.33.12-.51.13-.31,0-.73-.13-.67-.51.06-.33.55-.33.58-.35.02-.02-.02-.09.22-.24-.02-.17-.22,0-.23,0-1.04.23-.84-.88-.14-.7Z"/>
            <path class="enemy_0_cls-33" d="M.74,6.96l-.02-.23s.21-.18.23,0c-.24.15-.19.22-.22.24Z"/>
          </g>
          <g>
            <path class="enemy_0_cls-41" d="M9.19,12.16s0,.05,0,.07c.06.33.2.66-.16.83-.18.05-.33-.07-.49-.11-.02-.05-.03-.11-.04-.16-.02-.13-.02-.27-.05-.4.12-.14.39-.34.4-.37,0-.06-.6-.52-.03-.88.22-.05.27.85.33,1,0,.02.03,0,.04,0Z"/>
            <path class="enemy_0_cls-34" d="M9.21,12.2l-.02.04s0-.05,0-.07c0,.02.02.03.02.04Z"/>
          </g>
          <path class="enemy_0_cls-41" d="M2.08,3.66c-.26-.02-.45.2-.32.42.03.06.92.63,1.05.48-.02.12.17.4.27.23l-.22-.24c.1-.07.15-.22.09-.32.09.01,0-.03.07-.05.23.15.1.15.53.14.15-.07.04-.12.05-.15.06-.22.3-.14.33-.15.03-.02-.04-.11.12-.05-.06.06-.12.12-.18.18-.43.47-.72,1.02-.99,1.59-.36-.25-1.06-.91-1.51-.52-.57.49.92,1.32,1.33,1.34-.03.08-.08.5-.14.51-.06-.1-.37-.05-.53-.04-.13-.1-.28-.44-.37-.49-.02-.01-.25-.05-.4-.13-.19-.09-.49-.28-.51-.29.05-.27-.02-.34-.02-.35.01-.04.55-.22.36-.6l.08-.32c.52,0,.59.18.58-.22l.34.4c.16-.28.23-.41-.02-.13-.33-.46-.34-.36-.8-.55.04-.07.42-.25.43-.27,0-.01-.05-.14.04-.28.07-.11.22-.16.34-.16v.05Z"/>
          <path class="enemy_0_cls-41" d="M5.45,3.17c.05.16.28.25.43.29-.31.08-.63.18-.92.31-.16-.07-.24-.03-.38.04,0,0,0-.03-.03-.02-.08.05-.18.25-.28.32.11.03.12-.12.18-.06,0,.02,0,.04,0,.05-.1.02-.19.26-.21.05-.35.32-.13.26.21.02,0,.06.01.08.02.13-.24.15-.52.4-.7.61,0,0-.04-.02-.07.03-.06.08-.19.45-.29.6.06.02.07.04.07.05-.11.32-.23.67-.31,1-.01.06.02.08.02.08-.02.1-.04.1-.04.11,0,0-.05.06-.07.19-.05.36,0,1.01.02,1.4-.07,0-.12.02-.18.05-.04.02-.08.07-.11.11l-.05.02c-.24-.34-.18-1.38-.21-1.45-.01-.03-.12,0-.16,0-.1-.05-.28.01-.37-.02-.02,0,0-.05,0-.05.16-.02.47-.06.53.04.06,0,.11-.43.14-.51.07,0,.08-.02.09-.02.36-.05.48-.58.18-.78-.05-.03-.06,0-.09-.02.27-.57.56-1.12.99-1.59.05.13.26-.19.44-.34.28-.24.79-.62,1.15-.61Z"/>
          <path class="enemy_0_cls-9" d="M4.86,3.15c.09.04.18.06.12.09-.33.21-.65.43-.93.7-.16-.05-.09.04-.12.05-.03.02-.27-.07-.33.15,0,.03.1.08-.05.15-.43,0-.3,0-.53-.14,0,0-.05-.15-.16-.04-.02-.02-.08-.06-.11-.09.12,0-.05-.35-.2-.14-.04-.03-.2-.13-.23-.14.1-.02,0-.15-.23-.14-.12,0-.28.05-.34.16-.07.02.01-.12.04-.16.09-.17.61-.89.79-.83-.08.42.33.76.69.51.64.06.18.51.26.56.08.05.24-.26.13-.51.67.45.22-.04,0-.13-.02-.01-.1.03-.1-.05.04-.03.03-.11.05-.14.03,0,.08-.06.21-.07.19-.02.31,0,.34,0,.02,0,.22-.11.23-.11.1,0,.13.16.15-.09.07.39.09.31.32.42Z"/>
          <path class="enemy_0_cls-20" d="M6.07,3.4c-.06.01-.12.04-.18.05-.15-.04-.38-.13-.43-.29-.05-.16-.03-.44.09-.57.44-.48,1.23.31.52.8Z"/>
          <g>
            <path class="enemy_0_cls-28" d="M7.38,4.72c-.66-.03-.27-1.05-.13-1.39.07-.17.23-.54.38-.63.12.02.27-.04.39,0,.01,0,.2.23.21.24.09.21-.18.67-.29.87-.04.25-.19.46-.25.7-.09.1-.18.17-.31.21Z"/>
            <path class="enemy_0_cls-18" d="M8.03,2.65c.1.03.27.21.29.31.04.21-.09.44-.16.63-.04.11-.37.89-.4.93-.09.14-.21.22-.38.21.13-.04.22-.11.31-.21.06-.25.21-.46.25-.7.11-.2.38-.65.29-.87,0-.01-.19-.24-.21-.24-.12-.04-.27.02-.39,0,.13-.08.25-.1.4-.05Z"/>
          </g>
          <g>
            <path class="enemy_0_cls-27" d="M4.68,1.58c-.06.11.13.04.19.05.21.06.27.4.32.58,0,0-.02.03,0,.13-.05.16-.04.33-.07.49-.04.17-.06.27-.25.32-.24-.1-.25-.02-.32-.42-.03-.15-.04-.51-.07-.6,0-.22-.06-.42.16-.54.03-.02.05-.02.05-.02Z"/>
            <path class="enemy_0_cls-36" d="M5.22,2.19l-.04.02c-.04-.18-.1-.52-.32-.58-.06-.02-.25.05-.19-.05.19-.06.39-.05.51.14.13.22.02.38.04.48Z"/>
          </g>
          <path class="enemy_0_cls-12" d="M5.29,2.61c-.03.11-.13.51-.18.22.03-.16.02-.33.07-.49.02.11.08.17.11.27Z"/>
          <path class="enemy_0_cls-31" d="M5.29,2.61c-.03-.1-.08-.17-.11-.27-.02-.09,0-.12,0-.13l.04-.02s.14.15.14.19c0,.03-.06.18-.07.23Z"/>
          <path class="enemy_0_cls-12" d="M10.89,4.31c-.09-.33-.5-.35-.81-.13-.26-.19-.63-.6-.8-.74-.24-.2-.54-.32-.77-.54.09-.07.2-.72.22-.87.56.08.81.15,1.25.53.05.11-.11.09-.05.35.31-.29.62.21.94.4.02,0,.23.05.23.1,0,.02-.11,0-.03.28-.6-.2.48.34-.17.61Z"/>
          <path class="enemy_0_cls-12" d="M11.59,5.62c-.3.03-.39.11-.51.16-.14.06-.09-.09-.09-.1-.12-.25-.27-.48-.32-.77.16-.14.26-.34.23-.56.42,0,.1-.45.53-.38.12.02.52.31.51.44-.09.23-.43.25-.49.32-.14.18.07.43-.09.34-.15.34.16.2.26-.1.07,0-.07.22-.04.23.12.04.76-.06.79-.05.01,0,.14.1,0,.14-.06.02-.62.05-.8.31Z"/>
          <path class="enemy_0_cls-6" d="M10.89,4.31s.01.02.02.05c.03.22-.07.42-.23.56-.52.45-.97.02-.9-.35.02-.1.22-.33.31-.39.32-.22.72-.2.81.13Z"/>
          <path class="enemy_0_cls-22" d="M5.62,10.88s-.05.06-.05.07c-.04.05-.16.11-.23.13-.35.06-1-.67-.99-.73.04,0,.04-.03.05-.06.27-.6,1.41.08,1.23.6Z"/>
          <path class="enemy_0_cls-12" d="M2.89,9.83s.05,0,.07,0c.26.07.33.37.23.6-.17.41-.97.34-.85-.27.01-.07.06-.17.11-.22.12-.12.28-.13.43-.11Z"/>
          <path class="enemy_0_cls-12" d="M3.4,11.02c-.19-.09-.22-.4-.14-.58.11-.28.57-.42.76-.14.26.4-.18.92-.61.71Z"/>
          <path class="enemy_0_cls-12" d="M1.97,7.12c.32.22.13.83-.29.81-.13,0-.29-.12-.34-.23-.25-.51.3-.8.63-.58Z"/>
          <g>
            <path class="enemy_0_cls-29" d="M3.32,9.23c-.46.07-.73-.36-.51-.72.03-.04.07-.08.11-.11.58-.12.81.44.4.83Z"/>
            <path class="enemy_0_cls-18" d="M3.11,8.35c.57-.03.65.69.32.85,0,0-.1.04-.11.04.41-.39.18-.95-.4-.83.06-.03.11-.05.18-.05Z"/>
          </g>
          <path class="enemy_0_cls-13" d="M2.96,9.83s-.05,0-.07,0c.04-.39.53-.3.51-.25l-.44.25Z"/>
          <g>
            <path class="enemy_0_cls-41" d="M2.82,8.51c-.23.36.05.79.51.72,0,0,.1-.03.11-.04.25.41.59.78.96,1.08-.01.03-.02.05-.05.06,0,.06.64.79.99.73.22.06.29.2.25.42-.01-.46-.39-.45-.6-.09-.17-.05-.2,0-.05.11-.03.06-.28.78-.29.82-.02.14,0,.36.07.48-.05.08-.36.04-.46-.02-.38-.23,0-.86-.04-.9-.51-.3-.26.02-.62.18l.23-.28c-.11-.24-.53-.71-.43-.77.43.21.87-.31.61-.71-.18-.29-.65-.14-.76.14l-.05-.02c.09-.22.02-.52-.23-.6l.44-.25c.02-.05-.47-.14-.51.25-.15-.02-.32,0-.43.11-.06-.05-.31-.44-.35-.45-.05-.02-.23.06-.3.07-.27.05-.67.2-.91.05-.34-.21-.09-.81.44-.67.04.15.02.31.17.42.18.12.44.07.57-.1.35-.46-.32-1.09-.74-.39,0-.04-.05-.22-.08-.23-.04-.01-.51.18-.8-.09.08.03.11,0,.13,0,.04,0,.03.03.1,0,.03-.01.44-.29.54-.34.14-.08.48-.21.46-.27.42.02.6-.6.29-.81-.09-.07.22-.07.43-.05.04,0,.15-.02.16,0,.03.07-.03,1.11.21,1.45l.05-.02Z"/>
            <path class="enemy_0_cls-13" d="M2.38,8.26c.06,0,.11.02.1.08-.3.2-1.26.24-.3.05,0-.03.19-.13.2-.13Z"/>
            <path class="enemy_0_cls-13" d="M4.98,11.4s-.04.07-.05.11c-.14-.1-.12-.16.05-.11Z"/>
          </g>
          <path class="enemy_0_cls-9" d="M10.07,4.18c-.09.06-.29.28-.31.39-.07.37.38.81.9.35.05.28.2.52.32.77,0,0-.05.16.09.1-.06.11-.06.18-.05.31-.03-.03,0-.08-.06-.09-.08.1.09.25.17.48,0,.02-.08.07.09.21,0,0-.02.05-.05.05-.02,0-.06-.01-.12.02-.07.03-.18.09-.22.16-.14.25.33.37.5.45.02,0,0,.03,0,.04-.1.11-.07.31.07.4-.11,0-.22,0-.29.11-.01.02-.02.02-.02.02-.03.08-.02.15,0,.23-.16.19-.17.26.1.23v-.05c.06.08.16.18.17.27-.03-.02-.05-.09-.08-.07-.06.03-.12,1.1-.14,1.25-.16-.03-.07.06-.13.23-.05.16-.09.33-.18.13,0-.01,0-.02,0-.04,0-.04.23-.31-.05-.79-.13-.22-.34-.35-.6-.33.22-.68.46-1.46.38-2.18-.09-.81-.73-1.98-1.32-2.55-.28-.28-.75-.54-1.12-.7.07-.19.2-.42.16-.63.05,0,.14-.02.18-.05.22.22.52.34.77.54.17.14.54.55.8.74Z"/>
          <path class="enemy_0_cls-7" d="M10.22,9c.26-.02.47.12.6.33.29.48.06.74.05.79-.35.3-.73-.05-.94-.34-.05-.07-.13-.14-.14-.23-.05-.27.16-.53.43-.55Z"/>
          <path class="enemy_0_cls-33" d="M7.19,11.2c.05.13.2.05.31.04.05.12-.2.21-.04.47-.17.1-.31.5-.13.72-.25.1-.28.38-.34.6-.01-.02-.03-.03-.04-.05-.02-.03-.06-.03-.09-.1-.06-.15-.16-.65-.18-.84.27-.03.47-.49.22-.83.1,0,.19,0,.29,0Z"/>
          <path class="enemy_0_cls-2" d="M9.28,10.41c.02.47-.54.49-.58.51-.03-.02-.06-.04-.09-.05-.45-.27-.21-.92.26-.88.2.02.4.24.41.43Z"/>
          <g>
            <path class="enemy_0_cls-41" d="M7.82,12.54c-.03.13-.01.41-.04.51-.04.17-.14.29-.32.31-.03,0-.08,0-.11,0-.32-.03-.35-.3-.36-.32.07-.22.09-.5.34-.6.11.13.33.17.49.11Z"/>
            <path class="enemy_0_cls-12" d="M7.82,12.54c-.15.06-.38.02-.49-.11-.18-.23-.05-.62.13-.72.56-.33.85.62.36.83Z"/>
          </g>
          <path class="enemy_0_cls-41" d="M8.7,10.91c-.42.14-.77.28-1.21.32-.11.01-.25.1-.31-.04.41-.03,1.04-.18,1.43-.34.03.02.06.04.09.05Z"/>
          <g>
            <path class="enemy_0_cls-12" d="M10,11.06c.12.17.15.09.22.14.01.01.18.25.22.31-.42-.14-.27.22-.16.44.05.1.29.3.09.32,0,.03.2-.04.09.08-.4.14-.51-.26-.67-.52-.02-.04-.05-.04-.05-.05,0-.03.23-.16.23-.2,0-.04-.32-.69-.32-.81.27-.28.14-.01.36.28Z"/>
            <path class="enemy_0_cls-22" d="M10.44,11.51c.07.09.07.09.07.09.16.24.35.61-.05.76.11-.12-.09-.05-.09-.08.2-.03-.04-.23-.09-.32-.11-.22-.25-.58.16-.44Z"/>
            <path class="enemy_0_cls-12" d="M10.22,11.2c-.07-.05-.09.02-.22-.14l.33-.05-.12.2Z"/>
          </g>
          <path class="enemy_0_cls-22" d="M11,10.39c-.03.12-.12-.2-.13-.23.09.2.13.03.18-.13.04.11-.07.28-.05.36Z"/>
          <path class="enemy_0_cls-37" d="M12.58,6.83c.32.01.47.31.36.6-.12.32-.6.33-.79.06-.1-.14-.05-.13-.05-.21,0,0,.05-.03,0-.18.12-.16.27-.28.49-.27Z"/>
          <path class="enemy_0_cls-37" d="M12.02,8.37c-.11-.12-.23-.24-.34-.36.33-.23.24.15.35.2.05.02.46-.04.28.05.19.07-.07.01-.29.12Z"/>
          <g>
            <path class="enemy_0_cls-23" d="M4.68,1.13c.02.07.02.3,0,.37,0,.02.1-.02-.05.1-.22.12-.15.32-.16.54,0,0-.04.03-.05-.11l-.14.07c0-.17-.26-.2-.34-.09,0,0,0,.03-.04-.05,0,0-.07-.1-.07-.12,0,0,.04-.03.04-.04,0-.14,0-.28-.02-.42-.03-.19-.16-.35-.13-.55.02-.13.26-.34.32-.35.15-.04.32.04.42.15.18.19.16.39.18.49,0,.02.04,0,.04,0Z"/>
            <path class="enemy_0_cls-37" d="M4.28,2.1c-.26.37-.32-.06-.34-.09.08-.11.35-.08.34.09Z"/>
          </g>
          <path class="enemy_0_cls-12" d="M11.03,6.09s.13.12.14.13c.1.03.47-.06.57.11-.04,0-.08.08-.1.09-.06.02-.39-.06-.08.08-.2.28-.21.14-.32.19-.18-.13-.08-.19-.09-.21-.09-.23-.25-.38-.17-.48.06,0,.03.06.06.09Z"/>
          <g>
            <path class="enemy_0_cls-36" d="M12.53,5.71c.14.31-.14.56-.43.54,0,0,0-.03,0-.04.02,0,.18.06.41-.23.11-.28-.28-.5-.07-.22-.02.04-.84.15-.95.1v.04l.94.07c-.04.15-.46.15-.63.27-.09.08.16.04.19.04-.07.07-.19.02-.25.04-.1-.17-.47-.08-.57-.11,0,0-.12-.11-.14-.13,0-.13,0-.19.05-.31.12-.05.2-.13.51-.16.26,0,.79-.25.94.09Z"/>
            <path class="enemy_0_cls-36" d="M12.1,6.26s0,.01-.11.04c-.03,0-.28.05-.19-.04.17-.12.59-.12.63-.27l-.94-.07v-.04c.1.05.93-.06.95-.1-.21-.28.18-.07.07.22-.22.29-.38.22-.41.23-.02,0,0,.04,0,.04Z"/>
          </g>
          <g>
            <path class="enemy_0_cls-41" d="M6.68,12.03c.02.19.12.69.18.84.03.07.07.07.09.1-.11.22-.19.36-.45.36-.32,0-.43-.22-.43-.51,0-.28.12-.71.18-.99.1.09.3.21.43.2Z"/>
            <path class="enemy_0_cls-1" d="M6.9,11.2c.25.34.05.8-.22.83-.14.01-.33-.11-.43-.2-.2-.16-.34-.36-.23-.61,0-.02.08-.11.09-.13.22-.18.61-.13.79.11Z"/>
          </g>
          <path class="enemy_0_cls-41" d="M6.1,11.09s-.08.11-.09.13c.06-.12-.3-.19-.45-.27,0,0,.05-.07.05-.07l.49.22Z"/>
          <g>
            <path class="enemy_0_cls-12" d="M11.84,9.22c.1.13.07.13.23.14.17.01.27,0,.36-.16.04,0,.08.02.13.04-.14.19.21.98.43.69-.14.24-.45.19-.68.16-.11-.01-.16-.11-.24-.02-.05-.21-.14.07-.19.07-.04,0-.39-.23-.68-.32.2-.02.14-.95.16-1,.02-.05.1.01.05-.1.15.13.26.36.42.51Z"/>
            <path class="enemy_0_cls-37" d="M13,9.92c-.23.3-.57-.49-.43-.69.32.09.64.33.43.69Z"/>
            <path class="enemy_0_cls-12" d="M11.39,8.62c.19.15.31.41.45.6-.16-.15-.27-.38-.42-.51.05.11-.03.05-.05.1-.02.05.04.98-.16,1-.05-.01-.03-.02-.04-.02.01-.14.08-1.22.14-1.25.03-.01.06.05.08.07Z"/>
          </g>
          <g>
            <path class="enemy_0_cls-36" d="M11.43,7.81s.24.18.25.2c.12.12.23.24.34.36.18.19.5.43.47.72,0,0-.05.09-.05.11-.09.17-.2.17-.36.16-.08-.02-.17-.09-.23-.14-.14-.18-.27-.45-.45-.6-.01-.09-.11-.19-.16-.27-.04-.06-.09-.11-.11-.18-.02-.08-.03-.15,0-.23-.1.15.65,1.14.74,1.24.11.11.18.19.34.16,0-.17-.06-.32-.13-.47,0,0,.03-.02.02-.04-.02-.04-.46-.51-.56-.63-.27-.33-.17-.43-.4-.28.07-.1.17-.11.29-.11Z"/>
            <path class="enemy_0_cls-12" d="M12.08,9.36c-.17-.01-.14-.01-.23-.14.06.06.15.12.23.14Z"/>
            <path class="enemy_0_cls-27" d="M11.12,7.93s0,0,.02-.02c.23-.15.13-.05.4.28.1.12.54.59.56.63,0,.02-.02.03-.02.04.07.15.12.3.13.47-.16.02-.24-.05-.34-.16-.09-.09-.84-1.09-.74-1.24Z"/>
          </g>
          <path class="enemy_0_cls-13" d="M11.23,8.35v.05c-.28.03-.27-.04-.11-.23.02.07.07.12.11.18Z"/>
          <path class="enemy_0_cls-38" d="M4.97,3.76c.29.13.68.98.19,1.19-.41.18-.62-.35-.68-.67,0-.05-.02-.07-.02-.13,0-.02,0-.05,0-.07,0-.02,0-.04,0-.05.02-.12.05-.15.13-.23.14-.07.22-.11.38-.04Z"/>
          <path class="enemy_0_cls-25" d="M3.77,4.9c1.08.01,1.05.97.35.9-.05,0-.59-.21-.64-.23,0,0-.02-.03-.07-.05.1-.14.23-.52.29-.6.03-.04.07-.02.07-.03Z"/>
          <g>
            <path class="enemy_0_cls-21" d="M7.26,3.33c-.14.34-.53,1.36.13,1.39.17,0,.29-.07.38-.21.03-.04.35-.82.4-.93.37.15.84.42,1.12.7.59.57,1.22,1.73,1.32,2.55.08.72-.16,1.5-.38,2.18-.27.02-.48.28-.43.55.02.09.09.16.14.23-.18.24-.41.45-.65.63,0-.2-.21-.42-.41-.43-.47-.04-.71.62-.26.88-.38.16-1.01.31-1.43.34-.1,0-.19,0-.29,0-.18-.24-.58-.29-.79-.11l-.49-.22c.18-.51-.95-1.19-1.23-.6-.37-.31-.71-.67-.96-1.08.33-.16.25-.87-.32-.85-.03-.39-.07-1.04-.02-1.4.02-.13.07-.18.07-.19.01.27.18.47.45.51.79.1.48-1.21-.25-.79-.06.04-.12.12-.16.18,0,0-.03-.02-.02-.08.07-.33.2-.68.31-1,.05.03.59.23.64.23.7.07.73-.89-.35-.9.19-.22.46-.46.7-.61.05.32.26.85.68.67.49-.21.1-1.06-.19-1.19.29-.13.61-.23.92-.31.06-.01.12-.04.18-.05.39-.07.8-.09,1.19-.07Z"/>
            <g>
              <path class="enemy_0_cls-42" d="M6.38,6.91c.34-.01.65.63.7.65.08.03.96-.44,1.14-.47.39-.07.64.19.55.53-.11.39-1.56.9-1.92.8-.22-.06-.81-.77-.84-.98-.03-.23.11-.52.37-.53Z"/>
              <path class="enemy_0_cls-30" d="M4.72,7.41c.35,0,1.09,0,.98.55-.09.44-1.08.22-1.14.29.04.34.42,1,0,1.22-.76.39-.72-1.19-.75-1.27,0-.03-.33-.18-.11-.52.16-.24.75-.26,1.02-.26Z"/>
              <path class="enemy_0_cls-24" d="M8.8,4.16c.2-.02.42.15.44.35.02.16-.22,1.38-.73,1.31-.6-.08-.12-1.62.29-1.66Z"/>
              <path class="enemy_0_cls-35" d="M7.48,9.09c.71-.11.7,1.4-.05,1.25-.46-.09-.4-1.18.05-1.25Z"/>
              <path class="enemy_0_cls-16" d="M9.9,5.8c.91-.1.35,1.27-.31,1.07-.51-.15-.2-1.01.31-1.07Z"/>
              <path class="enemy_0_cls-40" d="M5.81,8.98c.84-.15.54,1.35-.2,1.01-.39-.18-.19-.94.2-1.01Z"/>
              <path class="enemy_0_cls-17" d="M8.95,8.77c.61-.02.62.75.07.83-.76.12-.76-.81-.07-.83Z"/>
              <path class="enemy_0_cls-22" d="M9.49,7.68c.69-.1.78.76.2.81-.58.05-.75-.74-.2-.81Z"/>
              <g>
                <path class="enemy_0_cls-5" d="M6.34,6.22c-.12-.01-.24-.13-.31-.23-.04-.06-.37-.89-.38-.96-.04-.21-.02-.38.18-.5.12-.03.27-.06.38.03.08.07.38.84.49,1.01.03.19-.01.53-.23.6-.05.02-.15-.03-.14.04Z"/>
                <path class="enemy_0_cls-18" d="M6.34,6.22c-.01-.07.09-.02.14-.04.21-.07.25-.41.23-.6-.11-.17-.4-.94-.49-1.01-.11-.09-.26-.05-.38-.03.2-.11.39-.08.52.12.03.04.43.94.43.99.04.31-.13.6-.45.57Z"/>
              </g>
              <g>
                <path class="enemy_0_cls-10" d="M4.79,6.91c-.29-.08-.42-.53.16-.85.04.05.14-.05.19-.05.03,0,.34,0,.36,0,.05.02.15.19.12.37-.02.08-.25.34-.33.39-.09.05-.1.02-.11.02-.03.01-.09.1-.39.13Z"/>
                <path class="enemy_0_cls-18" d="M4.79,6.91c.3-.02.36-.11.39-.13,0,0,.02.04.11-.02.08-.05.32-.31.33-.39.04-.18-.07-.35-.12-.37-.02,0-.33,0-.36,0-.05,0-.15.1-.19.05.5-.27.8-.08.74.3-.04.23-.55.65-.9.55Z"/>
              </g>
            </g>
          </g>
          <g>
            <path class="enemy_0_cls-12" d="M3.61,7.27c-.27-.03-.44-.24-.45-.51,0,0,.02-.01.04-.11.04-.06.1-.14.16-.18.24,0,.4-.03.56.12.17.31.05.62-.31.68Z"/>
            <path class="enemy_0_cls-18" d="M3.61,7.27c.36-.06.48-.37.31-.68-.16-.15-.32-.12-.56-.12.73-.41,1.04.89.25.79Z"/>
          </g>
          <path class="enemy_0_cls-13" d="M2.8,4.56s.04,0,.05-.02l.22.24c-.1.18-.29-.11-.27-.23Z"/>
          <path class="enemy_0_cls-12" d="M2.31,3.75c-.09-.04-.13-.08-.23-.09v-.05c.23,0,.33.12.23.14Z"/>
          <g>
            <path class="enemy_0_cls-8" d="M2.87,5.71s.04-.01.09.02c-.05.05.06.12.07.17.05.24-.03.49-.25.6-.01,0-.02.02-.09.02-.4-.02-1.9-.84-1.33-1.34.44-.39,1.15.28,1.51.52Z"/>
            <path class="enemy_0_cls-18" d="M2.78,6.51c.22-.12.31-.37.25-.6-.01-.05-.12-.12-.07-.17.3.2.18.72-.18.78Z"/>
          </g>
          <path class="enemy_0_cls-41" d="M4.46,4.09s0,.05,0,.07c-.34.25-.56.31-.21-.02.02.2.11-.03.21-.05Z"/>
          <path class="enemy_0_cls-41" d="M4.59,3.8c-.08.09-.11.11-.13.23-.06-.06-.07.1-.18.06.1-.06.2-.27.28-.32.02-.01.03.02.03.02Z"/>
          <g>
            <path class="enemy_0_cls-22" d="M3.41,2.99s-.04.13-.05.16c0,.02-.1.12-.11.13-.35.26-.77-.09-.69-.51.11-.54.9-.43.85.22Z"/>
            <path class="enemy_0_cls-31" d="M3.59,3.01s-.02.12-.05.14c-.05.04-.13.01-.18,0,.01-.03.05-.14.05-.16.09-.03.17.02.18.02Z"/>
            <path class="enemy_0_cls-12" d="M3.54,3.15c0,.08.07.04.1.05.22.09.67.58,0,.13.12.25-.05.55-.13.51-.08-.05.38-.5-.26-.56,0,0,.1-.11.11-.13.06.01.13.04.18,0Z"/>
          </g>
          <g>
            <g>
              <path class="enemy_0_cls-36" d="M7.24.97c.06.22.04.58-.04.79.03-.27.05-.54,0-.8-.12.09-.07-.26-.4-.17-.06.02-.05.02-.09.05l-.09-.02c.06-.08.08-.12.22-.14.19-.03.34.1.4.29Z"/>
              <path class="enemy_0_cls-36" d="M7.2,1.76c-.01.09-.02.17-.04.26,0,.01-.03,0-.04.02-.02.1.03.22-.02.32-.06.15-.32.15-.42-.02-.09-.16-.21-1.11-.18-1.3,0-.05.07-.17.11-.23l.09.02s-.11.17-.11.19c0,.06.13,1.21.16,1.28.01.03.13.12.15.1,0-.54-.17-1.08-.12-1.62.33-.09.28.26.4.17.05.26.03.53,0,.8Z"/>
              <path class="enemy_0_cls-27" d="M6.81.79c-.05.54.11,1.08.12,1.62-.03.02-.14-.07-.15-.1-.03-.07-.17-1.22-.16-1.28,0-.02.09-.17.11-.19.04-.04.03-.04.09-.05Z"/>
            </g>
            <g>
              <path class="enemy_0_cls-36" d="M8.72,1.45c.07.15.02.41,0,.58-.02.15-.13.8-.22.87-.04.03-.13.06-.18.05-.02-.1-.19-.28-.29-.31-.02-.32-.11-.92.05-1.18.01-.02.19-.19.2-.19.14-.04.37.04.43.18Z"/>
              <path class="enemy_0_cls-27" d="M8.31,1.36c.14.03,0,.14,0,.15-.06.42.06.9,0,1.33,0-.05-.11-.14-.12-.15-.02-.06-.05-1.05-.04-1.14,0-.01.12-.19.17-.19Z"/>
            </g>
          </g>
          <g>
            <path class="enemy_0_cls-36" d="M12.1,7.1c.05.15,0,.17,0,.18h-.02l-.04-.03c-.01.05.02.08.02.08,0,0-.06.05-.07.07-.19-.11-.9-.46-1.03-.49-.03,0-.07,0-.11,0,.04-.07.14-.13.22-.16.2.08.57,0,.71.04.11.02.29.21.32.31Z"/>
            <path class="enemy_0_cls-27" d="M10.96,6.92s-.03.06,0,.09c.04.04.92.46.97.45.02,0,.02-.05.05-.05.01-.03.07-.07.07-.07-.15.39-.44.2-.7.07,0,0,0-.03,0-.04-.17-.08-.63-.2-.5-.45.03,0,.08,0,.11,0Z"/>
            <path class="enemy_0_cls-27" d="M12.08,7.28c0,.06-.02.05-.02.05,0,0-.03-.03-.02-.08l.04.03Z"/>
            <path class="enemy_0_cls-27" d="M11.99,7.41s-.02.05-.05.05c-.05,0-.93-.42-.97-.45-.04-.03-.03-.05,0-.09.13.02.84.38,1.03.49Z"/>
          </g>
          <g>
            <path class="enemy_0_cls-36" d="M2.08,3.66c.1,0,.15.05.23.09.03.01.19.11.23.14.02.02.19.13.2.14.03.03.09.07.11.09.02.01.09.08.09.09.06.11,0,.25-.09.32-.01.01-.03.02-.05.02-.13.16-1.01-.42-1.05-.48-.12-.23.06-.45.32-.42Z"/>
            <path class="enemy_0_cls-19" d="M3.02,4.16c-.06.02.02.07-.07.05,0,0-.08-.08-.09-.09.12-.12.15.03.16.04Z"/>
            <path class="enemy_0_cls-12" d="M2.75,4.04s-.18-.13-.2-.14c.15-.2.32.15.2.14Z"/>
            <path class="enemy_0_cls-27" d="M1.87,3.87c.12.06,1.01.55,1,.6-.07.09-.18,0-.3-.06-.11-.06-.72-.43-.7-.54Z"/>
          </g>
        </g>
        <path class="enemy_0_cls-3" d="M6.99,13.03s.04.29.36.32v.04c-.27-.02-.85.06-.85-.05.26,0,.35-.14.45-.36.01.02.02.04.04.05Z"/>
      </g>
    </g>
</svg>