<?xml version="1.0" encoding="UTF-8"?>
<svg id="svgElement" xmlns="http://www.w3.org/2000/svg" xmlns:xlink="http://www.w3.org/1999/xlink" viewBox="0 0 100 100">
  <defs>
    <style>
      .enemy_3_cls-1 {
        fill: #03b0b9;
      }

      .enemy_3_cls-2 {
        fill: #74232e;
      }

      .enemy_3_cls-3 {
        fill: #382f2e;
      }

      .enemy_3_cls-4 {
        fill: #3b2923;
      }

      .enemy_3_cls-5 {
        fill: #023a37;
      }

      .enemy_3_cls-6 {
        fill: #8fc6e8;
      }

      .enemy_3_cls-7 {
        fill: #2acbcc;
      }

      .enemy_3_cls-8 {
        fill: #112429;
      }

      .enemy_3_cls-9 {
        fill: #93e6fb;
      }

      .enemy_3_cls-10 {
        fill: #02dfe6;
      }

      .enemy_3_cls-11 {
        fill: #dde9e8;
      }

      .enemy_3_cls-12 {
        fill: #066770;
      }

      .enemy_3_cls-13 {
        fill: #b13e57;
      }

      .enemy_3_cls-14 {
        fill: #0a858a;
      }

      .enemy_3_cls-15 {
        fill: #3b262b;
      }

      .enemy_3_cls-16 {
        fill: #0d7783;
      }

      .enemy_3_cls-17 {
        fill: #2e373a;
      }

      .enemy_3_cls-18 {
        fill: #032927;
      }

      .enemy_3_cls-19 {
        fill: #3f1c1a;
      }

      .enemy_3_cls-20 {
        fill: #121919;
      }

      .enemy_3_cls-21 {
        fill: #2d4c5c;
      }

      .enemy_3_cls-22 {
        fill: #7d223d;
      }

      .enemy_3_cls-23 {
        fill: #131012;
      }

      .enemy_3_cls-24 {
        fill: #330e17;
      }

      .enemy_3_cls-25 {
        fill: #5b202b;
      }

      .enemy_3_cls-26 {
        fill: #489bc6;
      }

      .enemy_3_cls-27 {
        fill: #025871;
      }

      .enemy_3_cls-28 {
        fill: #97344c;
      }

      .enemy_3_cls-29 {
        fill: #033b48;
      }

      .enemy_3_cls-30 {
        fill: #cb3d5f;
      }

      .enemy_3_cls-31 {
        fill: #ccf6fc;
      }

      .enemy_3_cls-32 {
        fill: #e9f0fc;
      }

      .enemy_3_cls-33 {
        fill: #064b54;
      }

      .enemy_3_cls-34 {
        fill: url(#enemy_3_linear-gradient);
      }

      .enemy_3_cls-35 {
        fill: #1a9da4;
      }

      .enemy_3_cls-36 {
        fill: #0a2f35;
      }
    </style>
    <linearGradient id="enemy_3_linear-gradient" x1="6.59" y1="2.67" x2="4.09" y2="6.03" gradientUnits="userSpaceOnUse">
      <stop offset="0" stop-color="#79c6c0"/>
      <stop offset="1" stop-color="#056b77"/>
    </linearGradient>
  </defs>
  <g id="steroids">
    <g id="enemy_3">
      <path class="enemy_3_cls-29" d="M7.48,8.58c.17.36.33.23.38.4.04.13-.02.22-.12.29-.05,0-.03.01-.04.01-.23.02-.24-.13-.28-.16-.01-.13.03-.18.02-.19,0-.02-.06-.08-.07-.1-.03-.06-.06-.12-.1-.17.01,0,.2-.08.21-.09Z"/>
      <path class="enemy_3_cls-29" d="M2.38,8.67c-.01.06-.06.1-.09.16-.08.18-.03.17-.06.29-.03.13-.17.18-.29.16-.02-.02-.06-.03-.09-.05-.07-.08-.08-.17-.04-.27.05-.13.18-.12.19-.12.04-.02.12-.19.17-.22.06-.04.16.05.21.05Z"/>
      <g>
        <path class="enemy_3_cls-14" d="M7.63.77c.09.02.17.1.17.2,0,.06,0,.05-.02.09l-.23-.28s.04-.01.09,0Z"/>
        <path class="enemy_3_cls-29" d="M7.54.77l.23.28c-.03.05-.26.2-.4.46-.06-.02-.11-.04-.17-.05.02-.06.06-.12.09-.17.02-.03.11-.19.11-.2,0-.03-.1-.27.15-.32Z"/>
      </g>
      <path class="enemy_3_cls-24" d="M2.85,8.13c-.02.1.03.22-.12.39-.08.09-.22.16-.34.15-.05,0-.15-.09-.21-.05.03-.05-.02-.08-.06-.11-.2-.61.39-.62.43-.65.06.07.24.16.28.23,0,.01-.04.05.02.04Z"/>
      <g>
        <path class="enemy_3_cls-28" d="M1.45,3.45c-.05.23-.14-.15-.36-.18-.24-.04-.24.16-.34.02v-.02s.07-.06.12-.09c.33-.15.61.1.57.27Z"/>
        <path class="enemy_3_cls-24" d="M1.45,3.45s.01,0,.02.01c-.05.06-.05.1-.05.11-.02.04-.13.24-.13.25-.04.05-.07,0-.07.06-.06,0-.19.05-.36-.07-.12-.08-.19-.24-.18-.38,0-.03.03-.1.05-.12,0,0,0-.02.02-.01.1.13.09-.06.34-.02.22.04.31.42.36.18Z"/>
      </g>
      <g>
        <path class="enemy_3_cls-36" d="M8.48,5.21c.06,0,.09.12.18.16-.07.07-.55,0-.68.01,0,0-.02,0-.01-.09,0,0,.02-.06.02-.07.13.01.46-.02.49-.01Z"/>
        <path class="enemy_3_cls-14" d="M8.67,5.37c-.09-.04-.12-.15-.18-.16.06-.14.31.03.18.16Z"/>
      </g>
      <path class="enemy_3_cls-5" d="M7.98,4.83s0-.09-.01-.13l.17-.04c.07.15.02.12-.15.17Z"/>
      <path class="enemy_3_cls-18" d="M7.93,5.69s0-.07.01-.11c.15.02.15.12-.01.11Z"/>
      <g>
        <g>
          <path class="enemy_3_cls-29" d="M9.63,3.14c-.03.06-.07.07-.1.11-.28-.03-.34.08-.59.17,0-.03-.02-.1-.05-.12,0-.02-.01-.04-.01-.04.06-.05.33-.19.36-.22.02-.03.03-.12.12-.17l.27.27Z"/>
          <path class="enemy_3_cls-14" d="M9.63,3.14l-.27-.27s0,0,.02-.01c.17-.05.32.12.24.28Z"/>
        </g>
        <g>
          <path class="enemy_3_cls-24" d="M8.9,3.3s.05.09.05.12c0,.1-.01.15-.06.23-.19.31-.5.2-.53.21-.04,0-.4.24-.48.28,0-.01-.09-.21-.11-.26.06-.03.38-.17.39-.2,0,0-.02-.02-.02-.04,0-.02-.02-.01-.04-.11,0-.01-.02-.02-.01-.05.11-.07.04-.11.18-.24.08.07.26-.08.47.06.07.05.07.17.19.08-.01-.02-.01-.06-.02-.08Z"/>
          <path class="enemy_3_cls-28" d="M8.84,3.23s.05.03.05.04c0,0,0,.01.01.04,0,.02.01.06.02.08-.12.09-.12-.03-.19-.08-.21-.14-.4,0-.47-.06.16-.15.41-.15.57-.01Z"/>
        </g>
        <g>
          <path class="enemy_3_cls-36" d="M8.13,3.64l-.4.18s-.03-.08-.04-.09c.1-.09.28-.12.4-.21.02.1.03.09.04.11Z"/>
          <path class="enemy_3_cls-12" d="M8.08,3.49s.01.04.01.05c-.12.09-.31.11-.4.21-.01-.02-.02-.05-.04-.07.1-.06.38-.15.43-.18Z"/>
          <path class="enemy_3_cls-33" d="M8.13,3.64s.03.04.02.04c0,.03-.34.17-.39.2,0,0-.02-.03-.04-.06l.4-.18Z"/>
        </g>
      </g>
      <g>
        <g>
          <path class="enemy_3_cls-29" d="M9.25,6.91s.04-.04.06-.05l.23.23c-.02.05-.03.08-.05.12-.27.16-.27-.08-.36-.16-.02-.02-.13-.06-.17-.07-.06-.03-.12-.07-.17-.1,0,0,.07-.12.07-.12.06,0,.33.2.35.2.03,0,.03-.05.03-.05Z"/>
          <path class="enemy_3_cls-14" d="M9.56,7.08s0,0-.01.01l-.23-.23c.14-.03.24.09.24.22Z"/>
        </g>
        <g>
          <path class="enemy_3_cls-24" d="M8.9,6.7s0,0,0,.01c0,0-.01.02-.02.05,0,0-.07.12-.07.12-.22.22-.65.09-.71-.22-.02-.11.08-.23.13-.32.12.04.23-.01.37.05.22.1.15.32.3.31Z"/>
          <path class="enemy_3_cls-28" d="M8.84,6.43c.05.08.07.18.06.27-.15.02-.08-.21-.3-.31-.14-.06-.25,0-.37-.05.01-.02.02-.05.04-.07.09.01.25-.09.47.06,0,0,.1.09.1.1Z"/>
        </g>
        <path class="enemy_3_cls-16" d="M9.25,6.91s0,.05-.03.05c-.02,0-.29-.19-.35-.2.01-.03.02-.04.02-.05l.35.2Z"/>
        <g>
          <path class="enemy_3_cls-33" d="M8.26,6.27s-.02.05-.04.07c-.07-.02-.28-.13-.44-.17,0-.02.02-.05.02-.07.11.02.42.17.45.17Z"/>
          <path class="cls-23" d="M8.23,6.35c-.06.09-.15.2-.13.32l-.48-.12s.03-.07.05-.1c0-.02.02-.03.02-.05.03-.07.07-.15.1-.22.16.04.37.15.44.17Z"/>
        </g>
      </g>
      <g>
        <path class="enemy_3_cls-29" d="M.74,6.71c.01.11.1.15.06.21-.02.03-.1.06-.13.09-.05.04-.15.08-.15.09-.03.03-.07.26-.32.15-.05-.09-.1-.1-.06-.24.03-.11.11-.16.23-.16.09,0,.01.09.25-.05.04-.02.09-.06.13-.07Z"/>
        <path class="enemy_3_cls-24" d="M1.32,6.26c.03.15.28.32.22.43-.07.23-.27.34-.51.31-.1-.01-.17-.1-.23-.07.04-.06-.05-.1-.06-.21-.02-.22.2-.43.34-.45.08-.01.16.01.24,0Z"/>
        <path class="enemy_3_cls-23" d="M1.97,6.51l-.43.18c.06-.11-.19-.28-.22-.43.08-.01.37-.16.48-.21.04.14.16.32.17.45Z"/>
      </g>
      <g>
        <path class="enemy_3_cls-8" d="M1.65,5.22s0,.09.01.13c-.14,0-.59.09-.67.06.1-.02.09-.1.12-.18.18-.02.36,0,.54-.01Z"/>
        <path class="enemy_3_cls-29" d="M1.11,5.23c-.03.08-.02.17-.12.18-.21-.06.01-.37.12-.18Z"/>
      </g>
      <path class="enemy_3_cls-36" d="M1.68,4.7s0,.09-.01.13c-.27-.04-.3-.25.01-.13Z"/>
      <g>
        <g>
          <path class="enemy_3_cls-29" d="M6.1,1.66c-.09.15-.19.3-.26.46-.05-.02-.11-.03-.16-.05.06-.11.17-.55.23-.6l.18.18Z"/>
          <path class="enemy_3_cls-14" d="M6.1,1.66l-.18-.18c.09-.08.16-.02.23.06.03.05-.03.09-.05.13Z"/>
        </g>
        <g>
          <path class="enemy_3_cls-36" d="M5.57,1.79c-.02.08-.07.14-.1.22,0,0-.02.02-.04.01-.03,0-.07-.03-.1-.04.03-.09.03-.19.07-.28l.17.09Z"/>
          <path class="enemy_3_cls-35" d="M5.57,1.79l-.17-.09s0-.09.08-.06c.17.12.11.1.09.15Z"/>
        </g>
      </g>
      <g>
        <g>
          <path class="enemy_3_cls-33" d="M4.68.03l.24.27s-.04.06-.04.07c0,.04,0,.3,0,.4v.02c-.05,0-.14,0-.18,0,0-.09.01-.33,0-.37,0-.03-.27-.16-.05-.39,0,0,.02,0,.02,0Z"/>
          <path class="enemy_3_cls-14" d="M4.86.04c.19.14.07.22.06.26l-.24-.27s.05-.03.1-.02c.01,0,.06.03.08.04Z"/>
        </g>
        <path class="enemy_3_cls-8" d="M5.07,1.66s0,.04,0,.06c0,.06.03.15.02.21-.03,0-.29.01-.38.01.09-.18.12-.27-.12-.24,0-.03-.01-.02-.04-.05.14.04.44.12.51.01Z"/>
        <g>
          <path class="enemy_3_cls-22" d="M4.89.78h0c-.2-.01-.07.02-.12.11-.13-.02-.23.05-.21,0,.04-.04.05-.06.11-.09.02,0,.02-.02.04-.02.04,0,.13,0,.18,0Z"/>
          <path class="enemy_3_cls-28" d="M4.89.8c.11.01.17.08.23.16-.04,0-.07-.09-.11-.04.1.12.22.41.1.47-.01-.17-.16-.46-.34-.49.05-.09-.08-.12.12-.1Z"/>
          <path class="enemy_3_cls-28" d="M5.12.95c.19.24.16.55-.05.77,0-.03,0-.03,0-.06,0-.04.05-.13.04-.28.12-.06,0-.35-.1-.47.04-.05.07.04.11.04Z"/>
          <path class="enemy_3_cls-24" d="M4.77.89c.18.03.33.32.34.49.01.15-.03.24-.04.28-.07.11-.37.03-.51-.01-.01-.01-.15-.09-.17-.29-.02-.19.04-.34.17-.47-.02.05.08-.02.21,0Z"/>
        </g>
        <path class="enemy_3_cls-29" d="M4.72,1.94c-.06,0-.12,0-.12-.01,0-.01,0-.22,0-.23.24-.02.21.06.12.24Z"/>
      </g>
      <path class="enemy_3_cls-29" d="M3.48,2.29c-.08.08-.1.05-.11.05l-.1-.18c.12-.14.15,0,.21.13Z"/>
      <g>
        <path class="enemy_3_cls-36" d="M4.06,1.61c0,.17.06.26.09.43-.04.01-.09.02-.13.04-.04-.11-.07-.27-.11-.37,0,0-.07-.05-.09-.12.07.08.11.05.18-.01,0,0,.03,0,.06.04Z"/>
        <g>
          <path class="enemy_3_cls-33" d="M3.91,1.42s.05.13.09.16c-.08.06-.11.09-.18.01-.01-.07.01-.16.1-.17Z"/>
          <path class="enemy_3_cls-14" d="M4.06,1.61s-.06-.03-.06-.04c-.04-.03-.09-.13-.09-.16.22.02.15.18.15.2Z"/>
        </g>
      </g>
      <g>
        <path class="enemy_3_cls-22" d="M2.41,1.47s0,0,.01,0c.03,0,.07,0,.1,0-.05.02-.05,0-.11.04-.02.01-.08.07-.06.1-.12.02-.13.09-.17.01.03-.05.08-.06.07-.1.04-.01.08-.04.12-.05.01,0,.02,0,.04,0Z"/>
        <path class="enemy_3_cls-28" d="M2.86,2.07s-.08.05-.1.06c0-.01.06-.18.02-.28.07-.15-.16-.38-.38-.34.06-.03.06-.02.11-.04.27.03.53.37.34.6Z"/>
        <path class="enemy_3_cls-24" d="M2.79,1.85c.03.1-.02.27-.02.28,0,0-.02.04-.02.04,0,0-.16.07-.17.07-.35.08-.57-.33-.39-.62.05.07.05,0,.17-.01.16-.03.38.08.44.24Z"/>
        <path class="enemy_3_cls-28" d="M2.79,1.85c-.06-.16-.28-.27-.44-.24-.02-.03.04-.09.06-.1.22-.04.45.19.38.34Z"/>
      </g>
      <g>
        <g>
          <path class="enemy_3_cls-28" d="M7.37,1.53c.09.03.1.1.15.13.11.3-.11.63-.43.59.1-.06.23-.04.31-.19.11-.2.02-.44-.21-.48,0-.06.13-.07.18-.05Z"/>
          <path class="enemy_3_cls-28" d="M7.2,1.47c.06,0,.11.03.17.05h0c-.06,0-.18,0-.18.06-.12-.02-.21,0-.33.02.11-.11.18-.15.34-.13Z"/>
          <path class="enemy_3_cls-24" d="M7.19,1.58c.23.04.32.28.21.48-.08.15-.21.13-.31.19-.01,0-.03.02-.04.02-.2-.15-.16.06-.38.27-.03-.02-.08-.05-.11-.07.07-.18.34-.33.18-.39.03-.08-.1-.25.11-.48.12-.02.21-.05.33-.02Z"/>
        </g>
        <path class="enemy_3_cls-29" d="M6.56,2.47s-.09-.05-.09-.07c.02,0,.26-.3.27-.32.16.06-.11.21-.18.39Z"/>
        <path class="enemy_3_clsenemy_3_cls-29" d="M7.05,2.27s-.19.29-.26.37c-.02-.02-.09-.07-.12-.1.22-.21.18-.42.38-.27Z"/>
      </g>
      <g>
        <path class="enemy_3_cls-29" d="M7.97,2.82c-.07.07-.46.31-.59.44-.03-.04-.06-.08-.1-.12.11-.07.49-.48.53-.5l.16.18Z"/>
        <path class="enemy_3_cls-35" d="M7.97,2.82l-.16-.18c.13-.08.27.07.16.18Z"/>
      </g>
      <g>
        <g>
          <path class="enemy_3_cls-29" d="M1.95.81c.35.27.21.29.22.32,0,.02.17.29.2.34-.04,0-.08.03-.12.05,0,0,0,0-.01,0-.03-.04-.17-.29-.18-.3-.06-.05-.23-.03-.22-.24,0-.08.05-.15.12-.17Z"/>
          <path class="enemy_3_cls-14" d="M2.19.86c.07.1,0,.18.04.29,0,.02.15.26.18.32-.01,0-.02,0-.04,0-.03-.05-.19-.32-.2-.34-.01-.03.13-.05-.22-.32.08-.02.18-.02.23.05Z"/>
        </g>
        <g>
          <path class="enemy_3_cls-29" d="M2.86,2.07l.31.38s.02,0-.13.11l-.29-.39s.02-.03.02-.04c.02,0,.09-.06.1-.06Z"/>
          <path class="enemy_3_cls-20" d="M2.74,2.16l.29.39c-.06.04-.23.15-.24.16l-.22-.48s.16-.07.17-.07Z"/>
        </g>
      </g>
      <g>
        <g>
          <path class="enemy_3_cls-29" d="M.17,2.86c-.1.1.39.31.56.44-.02.03-.05.09-.05.12,0,0-.02,0-.02,0-.05-.02-.3-.18-.32-.18-.05,0-.16.06-.26-.01-.14-.1-.06-.35.1-.37Z"/>
          <path class="enemy_3_cls-14" d="M.27,2.87c.14.23.27.25.49.39v.02s-.02,0-.02.01c-.17-.13-.66-.34-.56-.44.06,0,.08.01.1.01Z"/>
        </g>
        <g>
          <path class="enemy_3_cls-23" d="M1.98,3.73s-.16.41-.17.43c-.09-.03-.5-.29-.53-.29-.04,0-.05.01-.06.01,0-.06.03,0,.07-.06,0-.01.12-.22.13-.25.05.02.34.16.36.16.04,0,.12-.04.19,0Z"/>
          <path class="enemy_3_cls-29" d="M2,3.67s-.01.04-.02.06c-.07-.04-.15,0-.19,0-.02,0-.31-.14-.36-.16,0,0,0-.05.05-.11.18.07.35.13.53.21Z"/>
        </g>
      </g>
      <path class="enemy_3_cls-36" d="M2.16,3.41s0,.03-.02.07c-.03.05-.06.04-.06.04-.37-.13-.22-.39.09-.11Z"/>
      <g>
        <path class="enemy_3_cls-29" d="M1.79,2.64c-.06.08.09.11.19.18.07.05.15.16.19.13.06.06.13.12.2.18,0,0,.01.02.01.02-.02.03-.11.1-.11.1-.24-.23-.79-.45-.48-.62Z"/>
        <path class="enemy_3_cls-14" d="M2.17,2.96s-.12-.08-.19-.13c-.1-.07-.25-.1-.19-.18.07-.06.24.18.38.32Z"/>
      </g>
      <path class="enemy_3_cls-23" d="M3.14,7.78c-.07.09-.28.25-.29.35-.07,0-.02-.03-.02-.04-.04-.07-.22-.16-.28-.23.02-.01.18-.34.22-.39.05.04.33.28.38.31Z"/>
      <path class="enemy_3_cls-36" d="M2.3,6.97c-.17.12-.42.5-.54.48-.28-.18.23-.35.45-.59,0,0,.02.01.1.11Z"/>
      <g>
        <path class="enemy_3_cls-24" d="M7.19,7.87c.23,0,.44.22.38.53,0,.05-.06.16-.09.18,0,0-.2.08-.21.09-.25.03-.56-.34-.44-.57.02-.04.3-.22.35-.22Z"/>
        <path class="enemy_3_cls-23" d="M7.19,7.87c-.05,0-.34.18-.35.22l-.32-.37c.07-.05.3-.22.35-.27l.32.42Z"/>
      </g>
      <g>
        <path class="enemy_3_cls-36" d="M7.79,7.25c.14.12.26.14.24.26-.15.23-.25,0-.37-.12-.05-.11-.03-.25.12-.15Z"/>
        <path class="enemy_3_cls-8" d="M7.79,7.25c-.16-.1-.17.04-.12.15-.13-.13-.24-.26-.38-.38.03-.04.07-.09.1-.13.15.11.27.25.4.37Z"/>
      </g>
      <path class="enemy_3_cls-18" d="M7.49,6.73s.06-.09.07-.11c.36.13.17.33-.07.11Z"/>
      <path class="enemy_3_cls-36" d="M5.4,8.2l.08.24c-.17.02-.13-.02-.17-.21,0,0-.04,0,.09-.04Z"/>
      <path class="enemy_3_cls-11" d="M3.79,8.09c0,.14-.06.06-.16.05.01-.03.03-.07.04-.1.05.02.07.02.12.05Z"/>
      <g>
        <path class="enemy_3_cls-8" d="M3.98,8.17c-.05.09-.15.58-.17.61-.03.04-.14.05-.18.01-.13-.05.14-.45.18-.67.03-.05.16.05.17.05Z"/>
        <g>
          <path class="enemy_3_cls-36" d="M3.67,8.05s-.02.07-.04.1c-.09.21-.01.38-.25.32-.12-.1,0-.2.06-.29.25.12.17-.13.01-.04.03-.04.06-.09.09-.13.02,0,.1.03.13.05Z"/>
          <path class="enemy_3_cls-8" d="M3.43,8.17s0-.01.01-.04c.16-.1.24.16-.01.04Z"/>
        </g>
      </g>
      <path class="enemy_3_cls-36" d="M4.31,8.23c-.06.25-.02.33-.21.25l.07-.28s-.03-.02.13,0c.01,0,0,.02,0,.02Z"/>
      <g>
        <g>
          <path class="enemy_3_cls-24" d="M5.24,8.79s-.05.17-.07.22c-.03.05-.1.13-.15.16-.03.02-.07.04-.11.05-.06.01-.13-.02-.2.01,0-.02-.04-.03-.06-.05-.05-.05-.15-.13-.2-.17-.03-.07-.06-.14-.06-.22-.02-.29.13-.35.15-.37h.57q-.02-.07-.03-.15s0,0,.01,0c.03.17.15.34.15.51Z"/>
          <path class="enemy_3_cls-29" d="M4.91,9.46s.18.13.1.38c-.02,0-.26.19-.37,0-.03-.05-.03-.16-.02-.21.02-.1.09-.06.1-.25,0,.13.09.08.2.09Z"/>
          <path class="enemy_3_cls-27" d="M4.91,9.22c0,.07-.01.2,0,.24-.11,0-.19.05-.2-.09,0-.03,0-.13,0-.15.06-.03.13,0,.2-.01Z"/>
          <path class="enemy_3_cls-23" d="M5.08,8.28l.03.16h-.57s.02-.08.05-.12c.01-.02.06-.05.06-.06.09.01.36.02.43.01Z"/>
        </g>
        <path class="enemy_3_cls-29" d="M1.71,5.65s-.28.11-.29.1c-.09-.15.08-.12.28-.21.07-.03.15-.04.12-.18,0-.02-.11-.17-.13-.18-.03,0-.01.02-.03.02,0-.03,0-.06,0-.09.11,0,.28,0,.31.14.03.21-.16.28-.18.29-.07.06-.07.09-.08.1Z"/>
        <path class="enemy_3_cls-29" d="M1.7,5.54c0-.12-.04-.17-.04-.18,0-.04.01-.09-.01-.13,0,0,0-.01.01-.01.02,0,0-.03.03-.02.02,0,.12.15.13.18.02.14-.05.14-.12.18Z"/>
        <path class="enemy_3_cls-36" d="M6.1,7.98c.05.2.46.54.04.55-.06-.03-.08-.31-.18-.49,0,0,.03-.03.12-.07,0,0,.01.02.02.01Z"/>
        <path class="enemy_3_cls-12" d="M3.86,4.82c-.02.06-.04.12-.06.18-.21-.12-.52-.19-.75-.15-.02,0-.35.19-.39.18-.01,0-.08-.09-.18-.1-.19-.01-.18.15-.25-.02.47-.15.7-.33,1.22-.2.26.07.37.22.42.1Z"/>
        <path class="enemy_3_cls-24" d="M6.38,6.84s.02.12.01.16c-.03.3-.44.35-.55.14-.17-.32.29-.62.54-.3Z"/>
        <path class="enemy_3_cls-20" d="M4.66,8.24s-.1-.01-.12-.01c.09-.18-.04-.33.22-.24-.02.06-.02.23-.1.25Z"/>
        <g>
          <path class="enemy_3_cls-33" d="M2.32,3.74s-.04.08-.07.07c.03-.1-.06-.15-.15-.16-.13.1-.05.23.1.23-.14.35-.12.48,0,.84,0,.07,0,.12.02.18.07.18.06.01.25.02.11,0,.17.1.18.1.04,0,.37-.18.39-.18.23-.05.54.02.75.15-.07.26-.06.39.04.64,0,.02.07.08.07.1,0,.01-.03.03-.02.04.06.11.18.18.24.25.03.03,0,.07.04.1.05.03.06-.03.09-.02.01,0,.13.12.2.13.05,0,.08-.03.1-.02,0,0,.06.06.13.07.26.04.23-.09.26-.1.03-.02.15.04.16.04.01,0,.1-.05.13-.06.03-.01.18-.1.21-.12.12.11.24.67.28.68.11.06.58-.2.67.11-.24-.32-.71-.02-.54.3.11.21.52.16.55-.14.13.18.49.17.61.32-.05.05-.09.1-.13.15-.05.05-.29.22-.35.27-.13.09-.28.19-.42.26,0,0-.02-.01-.02-.01-.09.04-.11.07-.12.07-.17.07-.39.12-.56.16-.12.03-.08.04-.09.04,0,0-.08,0-.2.01,0,0-.02.02-.02.02,0,0,0,0-.01,0-.07,0-.34,0-.43-.01,0,0,0-.01,0-.02.08-.02.08-.19.1-.25-.26-.1-.13.06-.22.24-.06,0-.13-.02-.19-.02,0,0-.02.03-.03.02,0,0,0-.02,0-.02-.16-.02-.12,0-.13,0,0,0-.01-.03-.13-.05-.04,0-.06.01-.07.01-.01,0-.14-.1-.17-.05,0-.03-.02-.02-.02-.02-.05-.03-.08-.03-.12-.05-.04-.01-.11-.04-.13-.05-.04-.02-.35-.19-.39-.22-.05-.03-.33-.26-.38-.31-.07-.07-.4-.42-.46-.5-.08-.1-.09-.1-.1-.11-.08-.1-.14-.27-.23-.35-.01-.13-.13-.31-.17-.45-.04-.13-.03-.28-.09-.4,0,0,.01-.04.08-.1.01-.01.21-.08.18-.29-.02-.14-.19-.14-.31-.14,0-.09,0-.26.01-.29,0-.04.05-.09.01-.13.06-.17.07-.37.12-.54,0-.02.15-.39.17-.43,0-.02.01-.04.02-.06.01-.03.06-.07.07-.1.02-.03,0-.04,0-.04,0,0,.03,0,.06-.04.02-.04.02-.06.02-.07,0,0,.04-.03.06-.06,0,.05.08.02.14.06.15.09.01.19-.06.31,0,.02.01.02.01.02Z"/>
          <g>
            <path class="enemy_3_cls-24" d="M3.61,7.15c.37-.07.4.49.07.48-.27-.01-.31-.43-.07-.48Z"/>
            <path class="enemy_3_cls-14" d="M4.67,7.01c.32-.04.33.45.06.48-.32.03-.32-.45-.06-.48Z"/>
            <path class="enemy_3_cls-24" d="M2.82,6.65c.35-.07.36.43.09.45-.3.03-.31-.4-.09-.45Z"/>
            <path class="enemy_3_cls-29" d="M6.07,7.62c.31-.07.22.39-.14.18-.02-.07.11-.17.14-.18Z"/>
            <path class="enemy_3_cls-8" d="M2.24,6.53h.07c.21.31-.39.27-.07,0Z"/>
            <path class="enemy_3_cls-36" d="M6.7,7.29s.14.08.13.12c-.22.26-.24-.11-.13-.12Z"/>
            <g>
              <path class="enemy_3_cls-24" d="M2.69,5.31c.02-.34-.14-.28-.09.03.03.06.05.02.07,0-.08.32-.56,0-.43-.26.11-.2.58-.07.44.24Z"/>
              <path class="enemy_3_cls-25" d="M2.69,5.31s0,0-.01.02c-.03.03-.04.06-.07,0-.06-.31.11-.37.09-.03Z"/>
            </g>
            <path class="enemy_3_cls-10" d="M5.42,6.58c.27.06-.06.32-.07.06l.07-.06Z"/>
            <g>
              <path class="enemy_3_cls-24" d="M2.6,5.91c.06.39-.62.38-.37-.13.12-.09.34-.02.37.13Z"/>
              <g>
                <path class="enemy_3_cls-16" d="M2.49,5.67c.07.03.16.09.18.17,0,0-.02.05-.07.06-.02-.15-.25-.22-.37-.13,0-.02,0-.19.26-.1Z"/>
                <path class="enemy_3_cls-12" d="M2.75,5.78c-.06.08-.07.06-.07.06-.03-.08-.11-.15-.18-.17,0-.04.07-.01.06-.1.07.06.17.1.2.21Z"/>
                <path class="enemy_3_cls-16" d="M2.75,5.78c-.02-.1-.12-.14-.2-.21-.2-.17.23.07.24.14,0,.04-.03.05-.05.07Z"/>
              </g>
            </g>
            <path class="enemy_3_cls-7" d="M3.79,6.46c.24.08-.09.28-.06.04l.06-.04Z"/>
          </g>
        </g>
        <g>
          <path class="enemy_3_cls-12" d="M6.99,6.74s.06.02.07.01c.03-.01.44-.31.61-.31-.02.03-.03.07-.05.1,0,0-.02.03-.05.07-.01.02-.05.08-.07.11-.03.04-.08.12-.11.16-.03.04-.07.1-.1.13-.09.11-.18.2-.28.29-.12-.15-.48-.14-.61-.32,0-.04,0-.12-.01-.16-.09-.31-.56-.05-.67-.11-.03-.02-.15-.58-.28-.68.16-.12.18-.16.27-.33.15.15.37.36.49.53.32.45.26.91.79.5Z"/>
          <path class="enemy_3_cls-16" d="M7.69,6.4s-.02.03-.02.05c-.17,0-.57.29-.61.31,0,0-.07,0-.07-.01.2-.16.39-.49.42-.49.02,0,.23.14.28.15Z"/>
        </g>
        <g>
          <path class="enemy_3_cls-12" d="M2.35,3.74c-.1.09-.08.31.05.35-.03.16-.18.51-.2.64-.12-.37-.14-.5,0-.84,0-.02.05-.07.05-.07.03,0,.06-.05.07-.07,0,0,.02,0,.02,0Z"/>
          <path class="enemy_3_cls-29" d="M2.25,3.82s-.04.05-.05.07c-.16,0-.24-.13-.1-.23.09,0,.18.06.15.16Z"/>
          <g>
            <path class="enemy_3_cls-24" d="M2.53,3.72c.14.11.05.09.05.1,0,.05,0,.24.07.18-.04.1-.16.14-.26.1-.13-.05-.15-.27-.05-.35.05,0,.06-.05.18-.02Z"/>
            <path class="enemy_3_cls-2" d="M2.65,4c-.07.06-.07-.13-.07-.18,0-.01.1,0-.05-.1.14.03.18.15.12.28Z"/>
          </g>
        </g>
        <g>
          <path class="enemy_3_cls-34" d="M4.72,1.94c.09,0,.35-.01.38-.01.02,0,0,.02.02.02.07,0,.15.01.21.02.03,0,.07.03.1.04.03,0,.03-.01.04-.01.01,0,.16.06.21.07.05.02.11.03.16.05.11.04.55.31.64.27,0,.02.04.04.09.07.03.02.08.05.11.07.03.03.1.08.12.1.03.02.47.47.49.5.03.04.07.08.1.12.05.07.18.29.23.39.01.02.04.02.04.02.01.02.02.05.04.07,0,0,.02.04.04.09.01.03.04.06.04.06.02.04.11.24.11.26.02.07.09.47.1.55,0,.04,0,.09.01.13,0,.12.02.27.01.39,0,0-.02.06-.02.07,0,.09.01.09.01.09,0,.02-.02.02-.02.03,0,.05,0,.13-.01.17,0,.04-.02.07-.01.11-.07.11-.08.3-.12.42,0,.02-.02.05-.02.07-.03.07-.06.15-.1.22-.04,0-.26-.15-.28-.15-.03,0-.22.33-.42.49-.54.42-.48-.05-.79-.5-.12-.17-.34-.38-.49-.53.41-.79-.18-1.09-.21-1.14,0-.02,0-.12-.03-.14-.03-.01-.08.02-.1.01-.01,0-.09-.1-.23-.15-.27-.09-.63-.06-.88.09-.15.09-.15.19-.22.1.07.11-.08.15-.18.34-.06.12-.16-.03-.42-.1-.51-.13-.74.05-1.22.2-.03-.06-.03-.12-.02-.18.01-.13.17-.47.2-.64.1.04.21,0,.26-.1.05-.13.02-.25-.12-.28-.12-.03-.13.02-.18.02,0,0-.02,0-.02,0,0,0-.02,0-.01-.02.07-.12.21-.22.06-.31-.06-.04-.14-.01-.14-.06.04-.06.05-.08.05-.09,0,0,.09-.07.11-.1,0,0-.02-.01-.01-.02.03-.04.39-.41.42-.43.01,0,.19-.12.24-.16.15-.1.13-.11.13-.11,0,0,0,.02.09-.02.05-.03.11-.08.12-.09,0,0,.03.03.11-.05.18-.04.35-.15.53-.21.04-.01.09-.02.13-.04.08-.02.43-.06.45-.11,0,.02.06.01.12.01Z"/>
          <g>
            <path class="enemy_3_cls-16" d="M5.19,3.34c-.32.58-1.04.2-.95-.34,0-.05.06-.11.07-.13-.08.56.47.84.88.46Z"/>
            <path class="enemy_3_cls-16" d="M5.83,3.8c-.07.49.5.75.82.37-.16.34-.54.43-.78.1-.11-.15-.18-.48-.04-.47Z"/>
            <path class="enemy_3_cls-14" d="M6.98,3.25s.15.2.32.09c.05,0-.14.3-.23.24-.15-.18-.25-.18-.09-.33Z"/>
            <path class="enemy_3_cls-24" d="M3.74,4c.12.48-.55.22-.15-.07-.13.18.19.3.15.07Z"/>
            <path class="enemy_3_cls-8" d="M4.8,1.99c.12-.03.09.06.1.24-.19.03-.19-.03-.1-.24Z"/>
            <g>
              <path class="enemy_3_cls-24" d="M7.37,5.61c-.21.02-.36-.18-.32-.38.21-.35.51-.13.54.06.02.14-.07.31-.22.32Z"/>
              <path class="enemy_3_cls-16" d="M7.05,5.23c-.04.2.1.4.32.38-.08.11-.42-.04-.38-.3.01-.07.06-.08.06-.08Z"/>
            </g>
            <path class="enemy_3_cls-22" d="M3.74,4c.04.23-.28.1-.15-.07.05,0,.14.02.15.07Z"/>
            <g>
              <path class="enemy_3_cls-24" d="M4.57,2.71c.24,0,.5,0,.57.28,0,.02.01.05.01.07,0,0,0,.03,0,.05,0,.04-.08.11.09.06l.04-.24c.02.16-.01.27-.09.4-.41.37-.96.1-.88-.46.04-.07.08-.12.13-.17.03.04.08.01.12.01Z"/>
              <path class="enemy_3_cls-22" d="M5.28,2.93l-.04.24c.01-.05-.03-.02-.09-.06,0-.02,0-.05,0-.05.13-.03.1-.15.06-.24-.07-.19-.3-.29-.48-.26-.02,0-.23.1-.17.15-.05,0-.09.03-.12-.01.32-.32.79-.14.83.23Z"/>
              <path class="enemy_3_cls-28" d="M5.22,2.82c-.09.02.05.16-.07.17-.08-.28-.33-.29-.57-.28-.06-.04.15-.14.17-.15.18-.03.42.07.48.26Z"/>
              <path class="enemy_3_cls-28" d="M5.16,3.07s0-.06-.01-.07c.12,0-.01-.15.07-.17.03.09.07.22-.06.24Z"/>
              <path class="enemy_3_cls-25" d="M5.24,3.18c-.17.04-.08-.02-.09-.06.05.04.1,0,.09.06Z"/>
            </g>
            <g>
              <path class="enemy_3_cls-24" d="M6.05,3.55s-.01.02-.01.02c.04.05.29,0,.45.1.12.08.11.25.18.11,0,0,.05,0,0-.11.1.19.08.31-.01.5-.32.38-.89.12-.82-.37.02-.11.11-.22.2-.28.03,0,.02,0,.02.02Z"/>
              <path class="enemy_3_cls-22" d="M6.66,3.67c.05.12,0,.1,0,.11-.05-.26-.4-.4-.61-.23,0-.02,0-.03-.02-.02.23-.15.5-.1.64.15Z"/>
              <path class="enemy_3_cls-28" d="M6.66,3.78c-.07.14-.06-.03-.18-.11-.15-.11-.4-.06-.45-.1,0,0,.02-.01.01-.02.22-.17.56-.03.61.23Z"/>
            </g>
            <g>
              <path class="enemy_3_cls-16" d="M7.03,4.17c-.15.27.16.57.4.42-.21.26-.56.02-.51-.28,0-.03.06-.16.11-.14Z"/>
              <g>
                <path class="enemy_3_cls-24" d="M7.43,4.59c-.24.16-.56-.14-.4-.42.21-.37.75.19.4.42Z"/>
                <path class="enemy_3_cls-28" d="M7.23,4.07c.11-.04.35.33.2.31-.05-.24-.27-.26-.2-.31Z"/>
              </g>
            </g>
            <g>
              <path class="enemy_3_cls-24" d="M6.18,2.76c.02.05.22.24.26.21.01-.01,0-.04,0-.05,0-.03.01-.06.01-.09,0-.11-.05-.08-.09-.16.16.04.15.39-.06.45-.2.06-.35-.16-.14-.37Z"/>
              <path class="enemy_3_cls-28" d="M6.38,2.68c.04.08.08.05.09.16-.06-.11,0,0-.07.04-.02.01-.16,0,.06.05,0,.01,0,.04,0,.05-.04.03-.25-.15-.26-.21.06-.06.1-.11.2-.09Z"/>
              <path class="enemy_3_cls-28" d="M6.47,2.84s0,.06-.01.09c-.21-.05-.08-.03-.06-.05.06-.04.01-.14.07-.04Z"/>
            </g>
            <g>
              <path class="enemy_3_cls-24" d="M3.8,2.53c-.22.23.43.62.31.1.12.22-.07.47-.32.39-.19-.06-.24-.4.02-.49Z"/>
              <g>
                <path class="enemy_3_cls-25" d="M4.11,2.63c.12.52-.53.13-.31-.1.12-.04.24-.03.31.1Z"/>
                <path class="enemy_3_cls-13" d="M3.94,2.56c.06-.02.25.12-.01.15-.03-.06-.06-.13.01-.15Z"/>
              </g>
            </g>
            <g>
              <path class="enemy_3_cls-24" d="M6.26,5.43c-.04.13.15.22.23.13-.28.62-.62.07-.23-.13Z"/>
              <g>
                <path class="enemy_3_cls-22" d="M6.49,5.56c-.08.09-.27,0-.23-.13.13-.07.22-.01.23.13Z"/>
                <path class="enemy_3_cls-30" d="M6.36,5.44c.08,0,.05.11,0,.03v-.03Z"/>
              </g>
            </g>
          </g>
        </g>
        <g>
          <path class="enemy_3_cls-7" d="M5.71,5.71c-.09.17-.11.21-.27.33-.02.02-.18.11-.21.12.05-.08,0-.06.01-.1.21-.11.31-.29.43-.47-.04-.05-.03,0-.1.02l-.02-.04c.16-.18.13.07.17-.15,0,0,.01-.01.01-.06,0,0,.04-.11-.02-.1-.15.02-.18.24-.2.08.14-.21.33-.03.19-.34-.15.14.07-.37-.18-.04-.12.02.08-.18.08-.19,0-.08-.2-.11-.21-.12-.03-.06.08-.02-.04-.14-.05-.05-.05-.03-.05-.04-.21-.14-.47-.19-.18.08l-.06.06c-.15-.12-.03-.26-.12-.28-.1-.03-.22,0-.32.01-.03,0-.03.02-.05.02-.01,0-.03-.03-.03-.02-.02,0-.08.04-.09.05-.04.01-.07.03-.11.05,0,0-.04,0-.05.01-.02.01-.05.02-.06.05-.04,0-.06.05-.09.07-.2.18-.13.14.1.36-.03.07-.13-.06-.25-.14-.15.17-.11.41-.18.47.06.36.1.28.11.29,0,0-.02.13.03.15.05.02.42-.21.48-.07l-.03.04s.02-.15-.43.08c.05.06.12.18.18.23l-.04.04c-.07-.07-.19-.14-.24-.25,0,0,.03-.02.02-.04,0-.01-.07-.08-.07-.1-.09-.25-.1-.38-.04-.64.02-.06.04-.12.06-.18.1-.19.25-.23.18-.34.07.1.07-.01.22-.1.25-.15.61-.18.88-.09.15.05.22.14.23.15.02,0,.07-.03.1-.01.04.02.02.12.03.14.03.06.61.36.21,1.14Z"/>
          <path class="enemy_3_cls-1" d="M5.24,6.06s.03.02-.01.1c-.03.01-.12.06-.13.06,0,0-.13-.05-.16-.04-.02,0,0,.14-.26.1-.07-.01-.13-.07-.13-.07-.02,0-.04.03-.1.02-.07-.01-.18-.13-.2-.13-.02,0-.04.05-.09.02-.05-.03-.02-.07-.04-.1l.04-.04s.22.12.26.15l.13-.13c.16.03-.24.16.15.17.23,0,.05-.11.35-.05v-.15c.11.08-.02.19.18.09Z"/>
          <path class="enemy_3_cls-35" d="M4.63,4.34c.07.18.07.04.16.12.18.16.04.2-.06.01-.06-.01-.12.21-.12.24,0,.04.14.11.13.12,0,.02-.06.03-.07.08-.02.05.06.1.06.12,0,.03-.28.12-.12.39.09.16.19.09.22.15-.1.06-.15-.09-.24,0l-.02-.03c.09-.04,0-.18-.09-.13.1-.08.02-.06.06-.16-.01-.03-.48-.01-.2-.06.06-.02.05-.58.04-.62,0,0-.09-.08-.1-.13,0,0,.04,0,.05-.01.03.04.06.09.1.12-.02.21.04.45-.04.64.2.03.12-.07.26-.15l-.04-.12c-.29.16.04-.08.04-.1-.07-.14-.14-.11-.15-.12-.01-.01.17-.14.06-.35.02,0,.01-.02.05-.02Z"/>
          <path class="enemy_3_cls-4" d="M4.58,4.37c.11.21-.07.33-.06.35,0,0,.07-.02.15.12,0,.02-.33.26-.04.1l.04.12c-.13.08-.06.18-.26.15.07-.19.02-.43.04-.64,0,0,.07.04.1.06.08-.1.02-.21-.09-.23.01,0,.08-.04.09-.05,0,0,.02.03.03.02Z"/>
          <path class="enemy_3_cls-3" d="M4.31,4.73s-.08-.05-.09-.06c0,0-.07-.08-.07-.1.03-.02.04-.07.09-.07.1-.07.21.26.07.23Z"/>
          <path class="enemy_3_cls-3" d="M4.46,4.39c.11.02.17.13.09.23-.03-.03-.1-.06-.1-.06-.04-.03-.07-.08-.1-.12.04-.02.07-.03.11-.05Z"/>
          <path class="enemy_3_cls-17" d="M4.95,4.33s-.02.01-.02.04c-.11-.01-.1.04-.06.12l-.07-.02c-.09-.08-.09.06-.16-.12.09-.01.22-.04.32-.01Z"/>
          <g>
            <path class="enemy_3_cls-36" d="M4.62,5.42c.06.06.18.12.26.12.1,0,.08-.05.13,0,.11.09.04.38.12.32.04-.22-.11-.35-.1-.37,0,0,.02,0,.06-.09,0,0,0,0,0-.01.06.06.09-.01.06-.07,0,0,0,0,.02-.01,0,0,0-.06.04-.09,0,0,0,0,.01.01.02.03.02.05.06.06,0,0,.04,0,.06,0-.09.05-.03.02,0,.07-.15-.07-.13.14,0,.05.01.02.02,0,.04.04-.09-.04.04.21.08.22.05.01.05-.03.08-.04,0,0,.02,0,.04-.01.06-.03.06-.07.1-.02-.12.18-.22.36-.43.47-.2.1-.06,0-.18-.09v.15c-.3-.06-.13.06-.35.05-.38-.01.01-.14-.15-.17l-.13.13s-.25-.14-.26-.15c-.06-.05-.13-.16-.18-.23.45-.23.41-.08.43-.08l.03-.04c-.07-.14-.43.09-.48.07-.05-.02-.03-.15-.03-.15,0-.02-.05.07-.11-.29.07-.07.03-.3.18-.47.12.08.22.21.25.14-.22-.22-.3-.18-.1-.36,0,.02.07.09.07.1-.11,0,.08.18.09.06.14.03.03-.3-.07-.23.01-.03.04-.04.06-.05,0,.04.1.12.1.13,0,.03.01.59-.04.62-.28.04.19.02.2.06-.04.1.04.08-.06.16.09-.05.17.1.09.13l.02.03c.08-.1.14.06.24,0-.03-.06-.13,0-.22-.15Z"/>
            <g>
              <path class="enemy_3_cls-14" d="M5.08,5.39c-.04.1-.06.09-.06.09,0,.02.14.15.1.37-.07.06,0-.24-.12-.32-.05-.04-.04.01-.13,0,.09-.03.14-.09.21-.15Z"/>
              <path class="enemy_3_cls-14" d="M4.03,5.03s.08.09.17.18c0,.1-.27-.15-.17-.18Z"/>
              <path class="enemy_3_cls-14" d="M4.77,5.77c-.02-.08-.1,0-.01.01-.19.09,0-.26.04-.02h-.02Z"/>
              <path class="enemy_3_cls-14" d="M5.29,5.62l.08.04c.03.09-.19.11-.08-.04Z"/>
              <path class="enemy_3_cls-14" d="M4.48,5.78l.07.02c.05.13-.17.09-.07-.02Z"/>
              <path class="enemy_3_cls-14" d="M4.93,5.81c.14.04.02.18-.04.07l.04-.07Z"/>
              <path class="enemy_3_cls-14" d="M5.34,5.36s0,.04,0,.05c-.13.09-.15-.12,0-.05Z"/>
              <path class="enemy_3_cls-14" d="M4.22,5.32c.14-.01.06.16-.02.07l.02-.07Z"/>
              <path class="enemy_3_cls-14" d="M4.28,5.81l.07.03c-.01.12-.16.06-.07-.03Z"/>
              <path class="enemy_3_cls-35" d="M4.31,4.73c0,.12-.2-.07-.09-.06,0,0,.08.06.09.06Z"/>
              <path class="enemy_3_cls-14" d="M4.43,5.43c.12.06-.05.17-.06.03l.06-.03Z"/>
              <path class="enemy_3_cls-1" d="M5.3,5.81l.06.03c0,.13-.15.05-.06-.03Z"/>
              <path class="enemy_3_cls-7" d="M4.25,5.45l.06.02c.02.12-.15.07-.06-.02Z"/>
              <path class="enemy_3_cls-6" d="M5.48,5.71l.06.03c0,.11-.15.05-.06-.03Z"/>
              <path class="enemy_3_cls-35" d="M3.98,5.31c.13-.02.05.15-.02.06l.02-.06Z"/>
              <path class="enemy_3_cls-6" d="M4.93,5.61c.15.01.01.14-.02.07l.02-.07Z"/>
              <path class="enemy_3_cls-35" d="M5.14,5.31c.03.06,0,.13-.06.07.06-.14.02-.04.06-.07Z"/>
              <path class="enemy_3_cls-14" d="M4.74,5.93s-.03-.03-.02-.05c.07-.04.16.27.02.05Z"/>
              <path class="enemy_3_cls-14" d="M4.53,5.59h.06c.06.09-.12.09-.06,0Z"/>
              <path class="enemy_3_cls-9" d="M5.24,5.48c.1,0,.05.14-.02.06l.02-.06Z"/>
              <path class="enemy_3_cls-16" d="M4.15,5.43h.03c-.17.15-.24.1-.03,0Z"/>
              <path class="enemy_3_cls-26" d="M5.21,5.97c.1.01.04.12-.02.04l.02-.04Z"/>
              <path class="enemy_3_cls-26" d="M5.18,5.49l.03.02c0,.1-.09.05-.03-.02Z"/>
              <path class="enemy_3_cls-27" d="M4.74,5.93c-.08.03-.08,0-.02-.05,0,.02.01.03.02.05Z"/>
              <path class="enemy_3_cls-4" d="M4.77,5.77h-.01c-.08,0,0-.08.01,0Z"/>
              <path class="enemy_3_cls-31" d="M4.08,5.59c.05,0,.01.06-.02.02l.02-.02Z"/>
            </g>
          </g>
          <g>
            <path class="enemy_3_cls-15" d="M5.01,5.05s0-.05.1,0c.08.08,0,.16-.01.17-.13-.18-.08-.06-.07.17.04.02.04-.04.06-.1h.09s-.02.02-.02.02c-.04.03,0-.07-.06.07,0,0,0,0,0,.01-.07.06-.12.12-.21.15-.08,0-.2-.06-.26-.12-.15-.26.12-.35.12-.39,0-.02-.08-.07-.06-.12.11.24.21.07.25.1-.05.1,0,.05.06.11l.02-.07Z"/>
            <path class="enemy_3_cls-19" d="M5.1,5.22s0,.02-.01.06c-.03.06-.02.13-.06.1,0-.23-.06-.35.07-.17Z"/>
          </g>
          <path class="enemy_3_cls-21" d="M4.92,4.37c-.03.09.02.14-.06.12-.04-.08-.05-.14.06-.12Z"/>
          <g>
            <path class="enemy_3_cls-3" d="M5.3,4.48l-.21.39c.1.13.1-.24.26-.35.11.12,0,.08.04.14,0,.01.21.04.21.12,0,.01-.2.21-.08.19.25-.34.03.17.18.04.14.3-.05.13-.19.34.02.16.05-.06.2-.08.06,0,.02.09.02.1-.07-.07-.12.08-.01.06-.04.22-.01-.03-.17.15l.02.04s-.03,0-.04.01c0-.07-.06.04-.09,0,0,0,0-.05-.07-.19-.02-.04-.03-.01-.04-.04,0,0,0-.04,0-.05-.03-.06-.09-.03,0-.07.14-.01.09-.16-.09-.03l.02.03s-.04-.03-.06-.06c.11-.03-.12-.15.14-.17.07-.04-.02-.12-.2.03,0,.01.05.12.05.13-.04.03-.03.08-.04.09h-.09s0-.06.01-.07c0-.01.09-.09.01-.17-.02-.13-.1-.01-.2-.15-.12.13.13.07.03.15.01.05.02.01.07,0l-.02.07c-.06-.06-.11,0-.06-.11-.04-.03-.14.14-.25-.1.01-.05.07-.06.07-.08,0-.02-.13-.08-.13-.12,0-.03.05-.25.12-.24.1.19.23.15.06-.01l.07.02c.08.01.03-.03.06-.12,0-.02,0-.02.02-.04.09.02-.03.16.12.28l.06-.06c-.29-.27-.02-.22.18-.08Z"/>
            <g>
              <path class="enemy_3_cls-35" d="M5.35,4.51c-.15.11-.16.47-.26.35l.21-.39s0-.01.05.04Z"/>
              <path class="enemy_3_cls-32" d="M5.73,5.36s-.01.05-.01.06c-.11.02-.06-.13.01-.06Z"/>
              <path class="enemy_3_cls-35" d="M5.22,5.22s-.01-.01-.01-.01c0,0-.05-.11-.05-.13.18-.15.27-.07.2-.03-.26.02-.03.14-.14.17Z"/>
              <path class="enemy_3_cls-14" d="M5.38,5.44c.07.14.07.18.07.19.03.04.08-.07.09,0-.03.01-.03.05-.08.04-.04-.01-.17-.26-.08-.22Z"/>
              <path class="enemy_3_cls-14" d="M5.34,5.28s-.05,0-.06,0l-.02-.03c.17-.12.22.02.09.03Z"/>
              <path class="enemy_3_cls-35" d="M5.11,5.05c-.09-.05-.09,0-.1,0-.05.02-.06.06-.07,0,.1-.09-.15-.02-.03-.15.1.13.19.02.2.15Z"/>
              <path class="enemy_3_cls-35" d="M4.93,4.66c.12-.03.11.22-.06.06l.06-.06Z"/>
              <path class="enemy_3_cls-35" d="M5.36,4.73c.17.03-.06.19-.06.08l.06-.08Z"/>
              <path class="enemy_3_cls-35" d="M5.54,5.05c.11,0,.03.13-.04.06l.04-.06Z"/>
              <path class="enemy_3_cls-32" d="M5.49,5.44c.08-.02.04.14-.03.04l.03-.04Z"/>
            </g>
          </g>
        </g>
      </g>
    </g>
  </g>
</svg>