<?xml version="1.0" encoding="UTF-8"?>
<svg id="Layer_2" xmlns="http://www.w3.org/2000/svg" xmlns:xlink="http://www.w3.org/1999/xlink" viewBox="0 0 10.49 10.99">
  <defs>
    <style>
      .cls-1 {
        fill: #522826;
      }

      .cls-2 {
        fill: #ed7075;
      }

      .cls-3 {
        fill: #39121e;
      }

      .cls-4 {
        fill: #09cde7;
      }

      .cls-5 {
        fill: #985c4c;
      }

      .cls-6 {
        fill: #06a2b9;
      }

      .cls-7 {
        fill: #faebcb;
      }

      .cls-8 {
        fill: #8d5c42;
      }

      .cls-9 {
        fill: #683735;
      }

      .cls-10 {
        fill: #803341;
      }

      .cls-11 {
        fill: #545349;
      }

      .cls-12 {
        fill: #f9eaeb;
      }

      .cls-13 {
        fill: #d09b75;
      }

      .cls-14 {
        fill: #c0374a;
      }

      .cls-15 {
        fill: #8b4c44;
      }

      .cls-16 {
        fill: #a5575b;
      }

      .cls-17 {
        fill: #7b5134;
      }

      .cls-18 {
        fill: #850c1b;
      }

      .cls-19 {
        fill: #b87a58;
      }

      .cls-20 {
        fill: #e7585e;
      }

      .cls-21 {
        fill: #e1aa79;
      }

      .cls-22 {
        fill: #01b8d6;
      }

      .cls-23 {
        fill: #615548;
      }

      .cls-24 {
        fill: #561c2d;
      }

      .cls-25 {
        fill: #681c25;
      }

      .cls-26 {
        fill: #ab263a;
      }

      .cls-27 {
        fill: #d44d5b;
      }

      .cls-28 {
        fill: #f9d0a6;
      }

      .cls-29 {
        fill: #884a4e;
      }

      .cls-30 {
        fill: url(#linear-gradient);
      }
    </style>
    <linearGradient id="linear-gradient" x1="3.7" y1="5.11" x2="3.93" y2="5.48" gradientUnits="userSpaceOnUse">
      <stop offset="0" stop-color="#36d9ef"/>
      <stop offset="1" stop-color="#01a9b5"/>
    </linearGradient>
  </defs>
  <g id="Steroids">
    <g id="Enemy_x5F_2">
      <path class="cls-27" d="M9.87,1.88c.15.26.19.57.22.59.02.02.4-.15.4.2,0,.39-.36.24-.4.29-.1.42.49.09.25.64-.02,0-.04.02-.05.04.06-.25.11-.38-.23-.4-.04.14-.06.28-.12.42-.02.05-.05.11-.07.16,0,0-.03,0-.04,0-.02.05-.1.29-.11.32-.05.08-.08.12-.14.18-.11.11-.19.2-.18.1.2-.44.33-.95.25-1.43-.03-.19-.23-.65-.34-.81-.02-.02-.19-.16-.2-.17-.01-.01-.03-.02-.04-.04-.09-.1-.13-.21-.28-.34-.23-.21-.6-.39-.91-.43-1.21-.16-1.69.74-2.4,1.47-.25.26-.52.5-.78.75-.52.51-1.07,1.01-1.61,1.51-.18.3-.48.55-.7.83-.09.12-.14.21-.14.23-.3.41-.62.84-.83,1.3-.26.57-.34,1-.05,1.59l-.05.05c.14.42.33.83.52,1.23-.04.24-.05.07-.22,0-.17-.06-.14.16-.23.28-.3.37-.77-.34-.04-.54,0-.03-.25-.28-.29-.32-.06-.06-.07-.14-.16-.16-.11-.52-.19-.26-.39-.32-.15-.05-.35-.41.14-.6,0-.09-.27-.02-.32-.23-.08-.3.14-.33.2-.54-.46.05-.34.03-.49-.08-.08-.16,0-.31.15-.38.18-.05.32.32.39.26l.14-.47c-.66.19-.47-.82.12-.32.03,0,.1-.16.14-.22.15-.22.1-.17.11-.18.12-.16.24-.33.36-.49,0,0,.02.02.14-.14.12-.15.24-.3.36-.45.04-.06.08-.13.13-.18.1-.12.2-.23.29-.36.01-.02.13-.13.13-.15,0-.04-.54-.47-.6-.6-.05-.12.05-.17-.14-.32.21.07.12.19.2.33.02.03.46.48.55.55.04,0,.32-.31.37-.36,0,0,.12-.08.15-.11.02-.02-.02-.03,0-.04.01,0,.12-.08.22-.18,0,.04.15-.07.21-.11.37-.28.67-.63,1.01-.94.14-.12.3-.22.43-.34.76-.68,1.21-1.43,2.33-1.5,1.09-.06,2,.43,2.73,1.21.08,0-.15-.29-.06-.27Z"/>
      <path class="cls-2" d="M9.8,1.81s.04.02.07.07c-.09-.02.14.28.06.27-.73-.78-1.63-1.27-2.73-1.21-1.12.07-1.57.82-2.33,1.5-.14.12-.3.22-.43.34-.34.31-.64.66-1.01.94-.06.04-.22.15-.21.11.06-.06.12-.16.18-.22.08-.08.19-.14.27-.22,0,0,.01-.01.02-.02.01-.01.09-.13.2-.23,0,0,.02-.03.02-.04.07-.07.13-.13.2-.2.13-.13.27-.25.4-.38,0,0,.02.03.16-.11.05-.05.03-.05.04-.05.07-.07.15-.13.22-.2.08-.08.09-.1.09-.11.06-.06.12-.1.18-.16.1-.1.19-.21.29-.31.19-.2.12-.17.13-.18,0,0,.06-.02.16-.13.03-.03.08-.12.16-.2.1.04.21-.08.32-.13,0,0,0,.04.07.02.07-.03.11-.12.38-.16.9-.14,1.91.16,2.65.67.16.11.32.31.44.32Z"/>
      <path class="cls-2" d="M7.65.48c.07,0,.17.04.24.05.08.01.11-.02.12-.02,0,0,0,.03,0,.04.15.04.44.12.57.18.11.05.27.22.27.14.08.08.18.13.26.2.02.02.03-.02.03-.02.01.01.21.21.25.25.04.04.29.31.31.32,0,0,0,.05.09.18-.12-.01-.28-.21-.44-.32-.74-.51-1.75-.81-2.65-.67-.27.04-.31.13-.38.16-.07.03-.07-.02-.07-.02-.1.05-.22.17-.32.13.02-.02.02-.05.02-.05.01-.01.3-.22.32-.23.04-.02.19-.12.2-.13.04-.02.22-.07.29-.09.06-.02.36-.12.38-.13.12-.02.37,0,.51.02Z"/>
      <path class="cls-2" d="M3.9,3.15c-.1.1-.19.22-.2.23-.11-.1-.75-.87-.8-.88-.02,0-.26.07-.35-.06-.14-.21.12-.46.3-.39.07.03.67.89,1.06,1.1Z"/>
      <path class="cls-27" d="M3.68,3.4c-.08.08-.19.14-.27.22-.3-.06-.59-.18-.89-.23-.06-.01-.78.05-.23-.43.25-.04.21.2.27.23.05.03.98.19,1.13.22Z"/>
      <path class="cls-2" d="M3.81,2.24c.1.22.17.46.31.67-.07.07-.13.13-.2.2-.07-.1-.33-.63-.36-.66-.07-.06-.32-.03-.18-.38.3-.25.34-.03.43.17Z"/>
      <path class="cls-20" d="M2.07,5.06c-.04.06-.08.12-.13.18-.19-.31-1.34-.73-.66-1.05.33.03.19.24.23.35.01.04.49.44.56.51Z"/>
      <path class="cls-2" d="M1.75,3.63c.19.15.1.2.14.32.05.12.59.55.6.6,0,.02-.11.14-.13.15-.25-.15-.48-.42-.7-.6,0,0-.11,0-.17-.08-.12-.18.08-.41.25-.39Z"/>
      <path class="cls-2" d="M5.61,1.41s.06-.02-.13.18c-.09-.04-.43-.35-.46-.36-.03,0-.51.04-.32-.33.24-.46.64.3.9.51Z"/>
      <path class="cls-2" d="M5.2,1.9c-.06.06-.13.11-.18.16-.33-.39-.81-.46-.78-.7.33-.61.42.13.96.53Z"/>
      <path class="cls-27" d="M1.59,5.69c-.13.17-.14.14-.14.14-.13-.09-.73-.35-.78-.42-.17-.29.3-.54.42-.25.07.18-.13.15.51.53Z"/>
      <path class="cls-2" d="M6.48.67s-.16.1-.2.13c-.14-.15-.67-.48-.32-.69.35-.2.43.34.51.56Z"/>
      <path class="cls-27" d="M3.01,4.01s.03.02,0,.04c-.03.03-.15.1-.15.11-.36-.24-.72-.22-.69-.46.31-.64.35.09.83.32Z"/>
      <path class="cls-2" d="M5.95,1.04s0,.04-.02.05c-.08.08-.14.17-.16.2-.07-.17-.41-.33-.38-.51.31-.45.5-.16.56.26Z"/>
      <path class="cls-27" d="M1.08,6.32s.05-.03-.11.18c-.3-.15-.77-.16-.42-.58.31-.18.34.27.53.4Z"/>
      <path class="cls-2" d="M7.13.35s.03.04.02.11c-.02,0-.32.11-.38.13-.03-.11-.15-.26-.13-.37.02-.09.4-.38.49.14Z"/>
      <path class="cls-18" d="M9.2,5.35s.1,0,.14,0c.33.09.05,1.05-.58.04l-.28.24c.29.43.28.21.37.19.26-.05.38.32.19.47-.27.2-.42-.2-.65-.42,0,0-.01-.09-.1-.09-.17.18-.19.14-.15.25.01.04.38.69.42.71.06.05.57.11.21.51-.49.09-.34-.31-.35-.37,0-.04-.37-.69-.44-.79l-.39.33c.41.62.34.42.55.5.27.1.15.6-.22.51-.22-.05-.13-.37-.14-.41,0-.03-.3-.4-.33-.48l-.48.42c.63.78.54.47.73.55.25.11.08.62-.25.43-.15-.08-.11-.27-.12-.28-.02-.03-.36-.45-.42-.51,0,0-.02-.11-.1-.07l-.38.43c-.05-.21.42-.66.53-.86.23-.25.6-.65.79-.9.02-.03.17-.33.23-.42.1-.14.45-.51.47-.54.02-.03.03-.11.05-.14.03-.05.11-.1.14-.14.03-.05,0-.1.13-.24.3-.32.54-.78.58-1.23,0-.08,0-.24,0-.32.07,0,0,.14.11.26-.02.84-.24,1.7-.79,2.35.18.12.15-.22.29-.04l-.13.14c.46.8.91.02.36-.1Z"/>
      <path class="cls-26" d="M9.58,4.32c-.01.07-.14.18-.14.19,0,.08.33.13.2.4-.16.34-.38.06-.42.06-.02,0-.22.23-.26.26.18.2.24.11.25.12.55.12.1.9-.36.1l.13-.14c-.14-.19-.11.16-.29.04.56-.65.77-1.51.79-2.35-.12-.12-.04-.25-.11-.26-.02-.26-.11-.51-.25-.72.01.02.18.15.2.17.12.16.31.62.34.81.08.48-.05.99-.25,1.43,0,.1.07,0,.18-.1Z"/>
      <g>
        <path class="cls-26" d="M9.87,3.82c.75.13.25.94-.14.32.01-.02.09-.27.11-.32,0-.02.04,0,.04,0Z"/>
        <path class="cls-14" d="M10.29,3.63c-.12.1-.19.01-.34.02.06-.13.08-.28.12-.42.34.02.28.14.23.4Z"/>
      </g>
      <path class="cls-2" d="M9.06.49c-.01.09-.16.27-.2.38,0,.08-.16-.09-.27-.14,0-.04-.03-.06-.04-.09-.12-.4.4-.51.51-.14Z"/>
      <path class="cls-2" d="M8.01.51s-.04.03-.12.02c-.07-.01-.17-.05-.24-.05-.43-.54.6-.74.36.04Z"/>
      <path class="cls-2" d="M9.4,1.31s-.24-.24-.25-.25c.23-.76,1.04.03.25.25Z"/>
      <path class="cls-27" d="M9.87,1.88c-.03-.05-.07-.07-.07-.07-.09-.13-.08-.17-.09-.18.21-.5.7-.16.49.17-.09.13-.19.08-.32.08Z"/>
      <path class="cls-18" d="M2.29,10.59c.06.03.09.01.18.07h-.07c-.05.41-.41.42-.49.16-.04-.14,0-.24.07-.36.04-.02.2.07.31.13Z"/>
      <path class="cls-26" d="M1.37,8.87s.03.05.04.07h-.04c.38.5.6,1.08.96,1.6l-.04.05c-.11-.06-.26-.15-.31-.13l-.36-.31c.16.06.18.23.22,0-.2-.4-.38-.8-.52-1.23l.05-.05Z"/>
      <g>
        <path class="cls-14" d="M.9,9.41c.09.02.1.1.16.16-.14.13-.21.43-.43.38.04-.04-.05-.04-.05-.08-.01-.05.06-.32.04-.44.07-.02.22-.03.29-.02Z"/>
        <path class="cls-27" d="M.61,9.43c.03.13-.05.39-.04.44,0,.04.1.04.05.08-.19-.04-.29-.44-.02-.52Z"/>
      </g>
      <g>
        <path class="cls-2" d="M4.93,2.17c-.07.07-.15.13-.22.2-.57-.45-.67-.33-.04.05-.14.14-.16.1-.16.11-.08-.06-.56-.33-.58-.36-.13-.18.1-.49.39-.29.24-.59.22.22.6.29Z"/>
        <path class="cls-12" d="M4.71,2.37s.01,0-.04.05"/>
      </g>
      <path class="cls-18" d="M1.41,8.94c.26.47.83.95,1.37,1.03-.05.07-.38-.11-.36-.05.34.29.58.29.6.32.03.05-.04.09-.04.09.02.06.09.05.07.22-.03.21-.18.16-.19.17-.08.05-.02.14-.23.07-.07-.02-.11-.11-.15-.14-.09-.06-.12-.04-.18-.07l.04-.05c-.36-.52-.58-1.1-.96-1.59h.04Z"/>
      <path class="cls-18" d="M6.91,7.17c-.07-.14-.29.19-.45.37.46.58.39.37.57.41.36.06.18.65-.2.45-.15-.08-.13-.27-.14-.28-.02-.04-.34-.45-.36-.43-.05.12-.44.7-.43.76,0,.03.29.4.32.41.04.01.62.02.22.52-.45.1-.34-.23-.35-.26-.03-.09-.23-.38-.3-.51-.02.07-.21.33-.21.35,0,.03.32.55.34.58.1.1.22.08.29.16.19.23-.08.58-.35.41-.17-.11-.06-.37-.06-.39,0-.03-.3-.46-.33-.55-.4.53-.08.31.05.53.16.29-.19.64-.51.23-.32.26.14.23.06.56-.34.51-.48-.04-.51-.05-.03-.01-.49.28-.63.27-.06.03-1.56.21-1.44-.04.05.03.08.12.15.14.22.07.16-.03.23-.07.01,0,.16.04.19-.17.02-.16-.05-.15-.07-.22,0,0,.06-.05.04-.09-.02-.03-.26-.04-.6-.32-.02-.06.32.12.36.05.5.07.97-.03,1.34-.38.47-.44,1.03-2.08,1.92-3.1.86-.97,2.27-1.7,2.74-2.21-.12.14-.09.19-.13.24-.03.04-.11.1-.14.14-.02.03-.03.12-.05.14-.02.03-.37.41-.47.54-.06.08-.21.39-.23.42-.2.26-.57.65-.79.9-.11.19-.59.65-.53.86l.38-.43c.08-.04.09.07.1.07Z"/>
      <g>
        <path class="cls-7" d="M7.89,1.2c-.02.09-.14.06-.22.07-.11.01-.06-.02-.23.04-.09-.01-.19.03-.25.05-.42.12-.32.24-.68.43-.6.64-1.23,1.25-1.85,1.87-.14.14-.29.34-.42.47-.58.6-1.26,1.13-1.73,1.82-.26.2-.58.82-.74,1.01-.02.02-.18.11-.34.32.21-.46.53-.89.83-1.3.75-.92,1.62-1.72,2.46-2.56.26-.25.52-.49.78-.75.71-.73,1.19-1.63,2.4-1.47Z"/>
        <path class="cls-7" d="M9.08,1.97l-.16-.02c-.1-.13-.36-.36-.5-.43-.24-.13-.33-.12-.34-.13-.05-.01-.15-.08-.2-.09-.05-.01-.23.07-.21-.04.08,0,.19.01.22-.07.31.04.68.23.91.43.15.13.19.24.28.34Z"/>
        <path class="cls-28" d="M9.08,1.97s.02.02.04.04c.15.21.23.46.25.72,0,.08,0,.24,0,.32-.11-.01-.03.08-.04.12-.01.06-.16.57-.2.43.21-.54.16-1.19-.22-1.65l.16.02Z"/>
        <path class="cls-26" d="M4.71,3.42c-.83.84-1.7,1.65-2.46,2.56,0-.01.05-.11.14-.23.22-.28.52-.53.7-.83.53-.5,1.08-1,1.61-1.51Z"/>
        <g>
          <path class="cls-13" d="M7.67,1.27c-.02.11.15.03.21.04.05,0,.15.08.2.09.02,0,.11,0,.34.13.13.08.39.31.5.43.38.46.43,1.11.22,1.65.04.13.19-.38.2-.43,0-.04-.07-.13.04-.12-.03.44-.27.91-.58,1.23-.48.51-1.89,1.24-2.74,2.21-.9,1.02-1.46,2.66-1.92,3.1-.37.35-.85.45-1.34.38-.55-.08-1.11-.55-1.37-1.03-.01-.02-.03-.05-.04-.07-.29-.59-.2-1.02.05-1.59.16-.21.33-.3.34-.32.16-.19.48-.81.74-1.01.48-.7,1.15-1.22,1.73-1.82.13-.13.28-.33.42-.47.62-.62,1.25-1.23,1.85-1.87.36-.2.26-.31.68-.43.23.01.24-.05.25-.05.18-.06.12-.02.23-.04Z"/>
          <g>
            <path class="cls-24" d="M7.87,2.21s.02.06.17.07l-.05-.09s.07-.01.09-.02c0,0-.02.01.04,0-.14.28.16.47.36.25,0,.05-.04.04-.04.1,0,.01.09.26.09.28.02.11.03.21.04.32l-.05.04c-.23-.24-.22.05-.6-.2-.01,0-.06,0-.07,0-.03-.02-.19-.45-.49-.05-.26-.01-.21-.09-.32-.16-.02-.01-.02-.02-.02-.02.09-.07.44-.36.4-.46,0-.01-.09-.01-.13-.12.16.16.35.14.43-.07.06.13.04.07.14.13Z"/>
            <path class="cls-30" d="M4.02,4.9s.15.14.16.15c.32.5-.3.9-.65.6-.05-.04-.14-.21-.14-.27-.04-.35.3-.63.63-.49Z"/>
            <path class="cls-10" d="M2.43,6.99c.02.06.08.15.14.16v.04c-.08.03-.06.19-.11.28l-.27.54-.09.66s-.05,0-.09.09c-.02.05-.03.1-.02.14.02.09.09.14.16.18h-.04c-.33-.13-.15-.94-.16-1.24-.14.04-.07-.34-.03-.14.31-.33.33-.66.35-.7.04-.05.08,0,.09-.05.02.09.03.09.05.02Z"/>
            <path class="cls-24" d="M5.47,3.67v.02c-.04.08,0,.2.07.25.09.06.13.02.14.05.02.03-.05.03-.05.05,0,.03.03.13.04.16,0,.02-.11.17.06.12-.19.49-.68.48-.72.51-.03.02.03.05-.03.16.02-.21-.11-.35-.32-.29.03-.03.28-.07.18-.34.11.13.35.08.38-.09.16-.05.34-.24.2-.32.06-.12-.06-.13.05-.27Z"/>
            <path class="cls-21" d="M5.95,6.43l.06.06c-.6.56-1.22,2.06-1.44,2.38-.05.08-.18.22-.18.07.17-.22.23-.5.36-.74.38-.57.66-1.29,1.2-1.78Z"/>
            <path class="cls-10" d="M7.33,1.9c-.04.1-.08.14-.04.25.04.1.12.1.13.12.04.1-.31.39-.4.46-.16-.07-.31.01-.34.09h-.02c.16-.24.05-.2.04-.29,0-.03,0-.08.04-.11.04.04.09.02.11-.02,0-.01,0-.07,0-.08,0-.01.04-.01.23-.19,0,0,.05,0,.05,0,.05-.05.11-.17.21-.23Z"/>
            <path class="cls-9" d="M7.11,4.68c.08.04.1,0,.11,0,.04,0,.09,0,.11,0-.04.03-.09.03-.13.05-.09.06-.14.06-.16.16-.07,0-.29.19-.3.25-.12-.14-.18.19-.34.14-.23.28-.48.57-.77.79l-.02-.04c.03-.07,0-.12.02-.16l.05.04c.07-.2.1-.13.11-.14.12-.12.22-.25.34-.36,0,0,.08-.03.09-.04.1-.09.18-.22.2-.23,0,0,.06,0,.07,0,.04-.03.22-.32.62-.47Z"/>
            <path class="cls-8" d="M2.71,9.16s.02.03.02.07c-.05.41.38.36.38.13h.02v.11c.09-.08.2-.05.3-.07.03,0,.26-.19.17,0-.13.06-.62.3-.73.26-.08-.15-.18-.2-.21-.23-.01-.01.02-.18-.21-.21-.07-.15-.19-.08-.32-.13h.04c.06,0,.09-.01.14-.04,0,0,.02,0,.05-.02.06.03.31.13.34.13Z"/>
            <path class="cls-1" d="M3.93,8.89c-.08-.09-.06.02-.18.09-.01-.08-.27-.3.26-.51.06.01.06.17.15.11.2.11.47-.17.18-.36.15.01.15.12.18.24-.28.31-.35.15-.37.15-.05.02-.02.1-.03.1-.02.01-.04-.03-.2.17Z"/>
            <path class="cls-10" d="M6.46,3.15c-.07-.15-.34-.13-.38.05,0,.02,0,.05,0,.07l.07.14s-.02.02-.02.02c-.11.03-.19.22-.34.16-.01,0-.05-.04-.05-.04,0-.34.28-.27.3-.29.02-.02-.03-.06.15-.27.21.06.34.01.47-.18-.03.17.02.29-.2.32Z"/>
            <path class="cls-4" d="M7.67,1.9c.03.06.05.17.05.18-.09.21-.28.23-.43.07-.04-.11,0-.15.04-.25.24-.16.25-.03.34,0Z"/>
            <path class="cls-9" d="M8.57,3.13s.04.11.04.16c-.01.27-.21.27-.23.48-.26.04-.5.63-.63.46.04-.03.09-.1.13-.14.14-.03.19-.16.07-.14.03-.04.12-.15.14-.18.03-.03.16-.19.17-.2.06-.03.26.02.28-.16,0-.06,0-.14-.02-.2,0,0,0-.02,0-.04l.05-.04Z"/>
            <path class="cls-4" d="M8.48,2.43c-.2.21-.5.03-.36-.25.03,0,.13-.14.3-.04.14.09.06.27.06.29Z"/>
            <path class="cls-19" d="M3.26,6.02s-.14.17-.16.18c-.02.01-.29.01-.25.31,0,.01,0,.03,0,.04-.17.18-.22.16-.23.18-.03.02-.11.06-.14.12-.01.02-.03.12-.04.15-.02.07-.04.07-.05-.02-.03-.14.13-.19.14-.24,0-.02-.04-.19.04-.27.02-.02.17-.08.21-.12.03-.02.07-.13.14-.16.04-.02.16-.01.18-.02.05-.02.04-.13.17-.14Z"/>
            <path class="cls-4" d="M5.2,4.12s.03.09.02.14c-.03.17-.27.22-.38.09,0,0,0-.02-.02-.02,0-.03,0-.5.38-.22Z"/>
            <path class="cls-22" d="M4.53,7.7s-.01.02-.02.04c-.16.17-.42.09-.4-.15.12-.24.44-.15.42.12Z"/>
            <path class="cls-22" d="M4.33,8.22s.01,0,.02,0c.29.19.02.47-.18.36-.15-.08-.14-.35.16-.36Z"/>
            <path class="cls-10" d="M6.69,2.53c.01.09.13.05-.04.29-.13.19-.26.24-.47.18.13-.14.16-.13.16-.14.07-.08.26-.39.34-.33Z"/>
            <path class="cls-22" d="M7.43,4.41s.03.07.02.13c-.02.03-.05.08-.07.11-.05,0-.05.04-.05.04-.02,0-.07,0-.11,0-.35-.06-.09-.56.22-.27Z"/>
            <path class="cls-22" d="M5.16,6.83s.17.07.11.27c-.06.08-.17.08-.25.09-.22-.13-.09-.39.14-.36Z"/>
            <path class="cls-4" d="M4.37,4.65v.05c-.08.12-.2.19-.32.09,0-.02-.14-.27.21-.31l.12.16Z"/>
            <path class="cls-17" d="M5.63,6.09c-.09.19-.19.23-.2.24-.05.08-.06.2-.09.29,0,.01-.09.12-.09.13-.04.14.14.18.02.35.06-.2-.09-.24-.11-.27-.03-.06-.03-.13,0-.18.18-.08.14-.2.14-.22.15-.29.28-.31.31-.38l.02.04Z"/>
            <path class="cls-9" d="M4.84,4.36c.09.27-.15.31-.18.34-.02.02-.09.07-.09.07-.05.03-.17-.02-.2-.07v-.05c.1.02.16-.08.17-.09.02,0,.21.04.28-.22.02,0,.02.01.02.02Z"/>
            <path class="cls-1" d="M7.94,3.94s-.06.13-.07.14c-.03.04-.09.11-.13.14-.03.02-.06.04-.08.07-.04-.17-.2.22-.21.23.01-.06-.02-.09-.02-.13,0-.09.05-.16.13-.23.19-.17.17-.04.31-.23.06-.08-.01-.12.22-.2-.02.03-.11.14-.14.18Z"/>
            <path class="cls-19" d="M3.54,5.66l-.02.04c-.14-.06-.28.07-.23.29,0,.01,0,.02,0,.04h-.02c-.16-.37.04-.36.13-.63,0,.06.1.23.14.27Z"/>
            <g>
              <path class="cls-4" d="M5.74,3.56s.04.03.05.04c0,0,.05.05.05.05.07.23-.09.35-.31.29-.07-.05-.11-.17-.07-.25,0,.39.33.03.31-.05l-.09-.08s.04,0,.05,0Z"/>
              <path class="cls-4" d="M5.68,3.56l.09.08c.02.07-.3.43-.31.05v-.02c.06-.07.13-.11.22-.11Z"/>
            </g>
            <path class="cls-29" d="M8.08,2.17s-.07.01-.09.02c-.05,0-.07.05-.13.02-.11-.06-.08,0-.14-.13,0,0-.02-.12-.05-.18.01,0,.02-.03.05-.02.04.02.15.12.21.14l-.07.04c.13.11.15.04.27.09l-.04.03Z"/>
            <path class="cls-10" d="M8.63,2.62l.02.05s-.03.01-.02.14c0,.04-.02.09.04.11,0,.17.02.39-.05.36,0-.05-.04-.15-.04-.16-.01-.11-.02-.22-.04-.32.1-.1.03-.15.04-.15.01-.03.05-.02.05-.03Z"/>
            <path class="cls-9" d="M4.82,7.26c.06.18,0,.1-.02.14-.06.11-.19.32-.25.24.03-.07-.04-.13.27-.38Z"/>
            <path class="cls-9" d="M5.21,4.27s0-.1-.02-.14c.05-.05.19-.13.22-.18.14.08-.04.27-.2.32Z"/>
            <path class="cls-8" d="M7.04,4.9c.02-.11.07-.11.16-.16.02.06.1,0,.14.02-.31.33-.28.15-.3.14Z"/>
            <path class="cls-5" d="M8.69,2.7c.05.16.06.33.04.51l-.04-.51Z"/>
            <path class="cls-7" d="M7.43,1.31s-.03.07-.25.05c.07-.02.16-.07.25-.05Z"/>
            <path class="cls-5" d="M8.64,2.68l-.02-.05s-.01-.06,0-.07c.1.11.01.12,0,.13Z"/>
            <path class="cls-15" d="M8.66,2.93c-.06-.02-.03-.07-.04-.11.05-.01.03.04.04.11Z"/>
            <path class="cls-16" d="M6.84,2.41s-.07.06-.11.02c0,0,.09-.02.11-.02Z"/>
            <path class="cls-23" d="M7.38,4.65c-.05.05-.05.03-.05.04,0,0,0-.04.05-.04Z"/>
            <path class="cls-9" d="M3.93,8.89l-.03.04.03-.04Z"/>
            <path class="cls-24" d="M6.14,3.44c.23.09.27,0,.28,0-.02.08.04.19.03.26,0,.03-.39.52-.42.53-.2.05-.08-.43-.17-.58,0,0-.05-.05-.05-.05.15.06.23-.13.34-.16Z"/>
            <path class="cls-24" d="M7.11,4.68c-.4.15-.58.44-.62.47,0,0-.06,0-.07,0-.02.01-.1.15-.2.23,0,0-.08.03-.09.04-.12.11-.23.24-.34.36,0,0-.04-.06-.11.14l-.05-.04s-.02-.06-.02-.08c0-.03.32-.5.35-.51,0,0,.02.02.1,0,.15-.04.13.08.25-.22.01-.03-.02-.06.03-.11,0,0,.1-.03.13-.05.07-.06.14-.14.22-.2.1-.07.22-.1.31-.18.02,0,.04.11.12.14Z"/>
            <path class="cls-24" d="M2.31,7.88c-.02.05-.02.11-.02.16,0,.22.09.15.11.21,0,.02-.13.35-.14.36-.02.02-.12.04-.14.06l.09-.66.27-.54c.04-.09.03-.25.11-.28.3-.1,0,.51-.02.53-.06.05-.19,0-.25.15Z"/>
            <path class="cls-22" d="M8.52,3.2c.02.06.03.13.02.2-.2.31-.56.04-.42-.21.09-.15.3-.11.4,0Z"/>
            <path class="cls-22" d="M7.87,3.96c-.09.18-.45.11-.42-.15.05-.31.56-.15.42.15Z"/>
            <path class="cls-4" d="M2.81,6.78c.1.19,0,.43-.23.38-.06-.01-.12-.1-.14-.16.01-.03.03-.13.04-.15.03-.06.12-.09.14-.12.09-.02.13.03.2.05Z"/>
            <g>
              <path class="cls-11" d="M3.37,9.2c.05,0,.14.12.34-.07-.08.15-.23.17-.34.07Z"/>
              <path class="cls-22" d="M3.72,9.12c-.2.19-.29.07-.34.07-.32-.28.42-.61.34-.07Z"/>
            </g>
            <path class="cls-4" d="M2.29,8.04c0-.06,0-.11.02-.16.12-.12.26-.1.36.03.09.31-.32.44-.38.14Z"/>
            <path class="cls-22" d="M6.32,5.08c-.12.3-.1.17-.25.22-.41-.12.06-.64.25-.22Z"/>
            <path class="cls-22" d="M5.3,6.43s.03.14-.14.22c-.56.03-.05-.71.14-.22Z"/>
            <path class="cls-4" d="M3.1,6.2s.02.01.04.02c.27.22-.08.57-.29.29-.03-.3.23-.29.25-.31Z"/>
            <path class="cls-22" d="M3.1,9.36c0,.24-.43.28-.38-.13.13-.16.38-.07.38.13Z"/>
            <path class="cls-6" d="M3.52,5.69c.27.17,0,.53-.23.29-.04-.22.09-.35.23-.29Z"/>
            <path class="cls-4" d="M6.46,3.15c.09.2-.13.37-.31.27l-.07-.14c.33-.08.3-.36,0-.07.04-.18.31-.2.38-.05Z"/>
            <g>
              <path class="cls-3" d="M8.52,3.17s0,.03,0,.04c-.09-.12-.31-.16-.4,0-.15.24.22.52.42.21-.02.18-.22.13-.28.16-.01,0-.15.17-.17.2-.23.08-.15.11-.22.2.15-.3-.37-.46-.42-.15-.04.26.33.34.42.15-.14.19-.12.06-.31.23-.08.07-.13.14-.13.23-.3-.29-.57.21-.22.27,0,0-.03.04-.11,0-.07-.04-.09-.14-.12-.14-.09.08-.2.11-.31.18-.08.06-.14.13-.22.2-.02.02-.12.05-.13.05-.05.05-.02.08-.03.11-.2-.43-.67.1-.25.22-.08.02-.09,0-.1,0-.03.01-.35.48-.35.51,0,.02.03.04.02.08-.01.05.01.09-.02.16-.03.06-.15.09-.31.38-.19-.49-.71.24-.14.22-.03.05-.03.13,0,.18-.24-.03-.36.23-.14.36-.08,0-.09-.04-.1-.04-.02,0-.06.08-.1.11-.31.25-.24.31-.27.38,0,0,0,.03-.02.05.03-.27-.29-.36-.42-.12-.02.25.24.32.4.15-.09.16-.13.03-.22.24-.04.09-.09.25.04.24-.3,0-.31.28-.16.36-.09.06-.1-.1-.15-.11-.53.21-.27.43-.26.51.02.14-.03.14-.04.14.08-.54-.66-.21-.34.07-.09,0-.16.15-.25.16h-.02c0-.2-.25-.28-.38-.13,0-.04.03-.06-.02-.07,0,0,.18-.04.14-.08-.31-.36-.46-.06-.49-.05-.04.02-.05.02-.05.02.17-.16.03-.41-.2-.36-.03,0-.06.06-.09.07.04-.09.07-.07.09-.09.03-.02.13-.04.14-.06.01-.01.15-.34.14-.36-.02-.06-.11,0-.11-.21.06.3.47.18.38-.14-.1-.12-.24-.15-.36-.03.06-.15.19-.1.25-.15.03-.02.32-.64.02-.53v-.04c.24.05.33-.19.23-.38.04.02.04.05.05.05.26-.23.02-.19,0-.29,0,0,0-.02,0-.04.21.28.56-.07.29-.29.19.06.3-.14.14-.2,0-.01,0-.03,0-.04.23.24.51-.12.23-.29l.02-.04c.35.29.97-.1.65-.6-.01-.02-.15-.15-.16-.15-.01-.1.02-.1.02-.11.13.1.24.03.32-.09.03.05.15.11.2.07,0,0-.03.09-.04.11,0,.01,0,.02,0,.04.02.25.35.28.45.07.05-.11,0-.15.03-.16.04-.02.53-.02.72-.51-.18.05-.06-.1-.06-.12,0-.03-.04-.13-.04-.16,0-.02.07-.03.05-.05-.01-.02-.05.02-.14-.05.22.06.38-.06.31-.29.09.15-.03.63.17.58.03,0,.42-.5.42-.53.02-.08-.05-.18-.03-.26-.01,0-.05.09-.28,0,0,0,0-.02.02-.02.18.1.4-.08.31-.27.22-.04.16-.15.2-.32h.02c-.18.38.66.41.36-.07.11.07.06.15.32.16.3-.39.46.03.49.05,0,0,.06,0,.07,0,.39.25.38-.05.6.2Z"/>
              <g>
                <path class="cls-22" d="M6.54,4.05c.31-.08.41.35.18.43-.33.13-.44-.37-.18-.43Z"/>
                <path class="cls-4" d="M6.85,3.56c.32-.05.37.43.07.45-.29.02-.33-.41-.07-.45Z"/>
                <path class="cls-4" d="M7.57,2.79c.26-.02.34.39.09.43-.34.06-.36-.41-.09-.43Z"/>
                <path class="cls-4" d="M5.87,4.27c.36-.09.41.5.02.42-.21-.04-.2-.37-.02-.42Z"/>
                <path class="cls-22" d="M2.79,8.49c.32-.06.37.37.13.42-.31.05-.37-.37-.13-.42Z"/>
                <path class="cls-22" d="M5.39,5.06c.35-.08.39.51,0,.42-.18-.04-.18-.38,0-.42Z"/>
                <path class="cls-22" d="M4.14,6.74c.37-.04.29.56-.09.4-.18-.08-.09-.38.09-.4Z"/>
                <path class="cls-4" d="M3.04,7.1c.31-.05.32.43.04.43-.28,0-.27-.4-.04-.43Z"/>
                <path class="cls-6" d="M2.98,7.95c.28-.04.36.37.11.42-.33.07-.35-.38-.11-.42Z"/>
                <path class="cls-22" d="M4.34,6.18c.28-.02.31.37.07.42-.33.06-.34-.39-.07-.42Z"/>
                <path class="cls-22" d="M4.52,5.58c.31-.04.33.5-.09.4-.16-.1-.09-.38.09-.4Z"/>
                <path class="cls-22" d="M3.6,8.08c.38-.1.39.45.02.38-.19-.04-.18-.34-.02-.38Z"/>
                <path class="cls-22" d="M5.35,5.75c.3-.07.35.37.09.4-.29.03-.3-.35-.09-.4Z"/>
                <path class="cls-22" d="M3.65,6.99c.55.21-.23.63-.15.1l.15-.1Z"/>
              </g>
            </g>
            <path class="cls-1" d="M2.71,9.16s-.28-.1-.34-.13c.03-.01.17-.32.49.05.04.04-.14.08-.14.08Z"/>
            <g>
              <path class="cls-22" d="M4.98,4.99c-.1.21-.44.18-.45-.07.2.11.34.12.36-.14-.19-.13-.24-.03-.36.1,0-.02.03-.1.04-.11,0,0,.07-.06.09-.07.21-.06.35.07.32.29Z"/>
              <path class="cls-4" d="M4.53,4.92s0-.02,0-.04c.12-.13.17-.23.36-.1-.02.25-.17.24-.36.14Z"/>
            </g>
            <g>
              <path class="cls-22" d="M2.31,9.05c-.05.03-.08.05-.14.04-.08-.04-.15-.09-.16-.18.08.04.11.19.23.14-.12-.22.04-.34-.13-.35.23-.05.37.2.2.36Z"/>
              <path class="cls-4" d="M2,8.91s0-.1.02-.14c.04,0,.06-.06.09-.07.16,0,0,.14.13.35-.12.05-.15-.1-.23-.14Z"/>
            </g>
            <path class="cls-25" d="M2.81,6.78c-.07-.03-.11-.07-.2-.05.02-.02.07,0,.23-.18.03.1.26.06,0,.29,0,0,0-.04-.05-.05Z"/>
            <path class="cls-25" d="M3.14,6.22s-.04,0-.04-.02c.02-.01.16-.17.16-.18h.02c.15.06.05.26-.14.2Z"/>
            <path class="cls-10" d="M7.99,2.19l.05.09c-.15-.01-.16-.07-.17-.07.06.03.08,0,.13-.02Z"/>
            <path class="cls-4" d="M6.08,3.27s0-.05,0-.07c.3-.29.33,0,0,.07Z"/>
            <path class="cls-9" d="M7.87,4.09s.06-.13.07-.14c.12-.01.07.12-.07.14Z"/>
            <g>
              <path class="cls-4" d="M7.02,2.73s0,0,.02.02c.3.48-.54.45-.36.07.04-.08.19-.16.34-.09Z"/>
              <path class="cls-22" d="M7.05,2.84c.08.3-.32.25-.32.17.09-.1.25-.06.32-.17Z"/>
            </g>
          </g>
        </g>
      </g>
    </g>
  </g>
</svg>