<?xml version="1.0" encoding="UTF-8"?>
<svg id="svgElement" xmlns="http://www.w3.org/2000/svg" xmlns:xlink="http://www.w3.org/1999/xlink" viewBox="0 0 100 100">
  <defs>
    <style>
      .enemy_1_cls-1 {
        fill: #7b5617;
      }

      .enemy_1_cls-2 {
        fill: #adb324;
      }

      .enemy_1_cls-3 {
        fill: #5b843a;
      }

      .enemy_1_cls-4 {
        fill: #f48d36;
      }

      .enemy_1_cls-5 {
        fill: #10141b;
      }

      .enemy_1_cls-6 {
        fill: #f2cb1f;
      }

      .enemy_1_cls-7 {
        fill: #456832;
      }

      .enemy_1_cls-8 {
        fill: #ef803a;
      }

      .enemy_1_cls-9 {
        fill: #287b76;
      }

      .enemy_1_cls-10 {
        fill: #736747;
      }

      .enemy_1_cls-11 {
        fill: #fcfdf1;
      }

      .enemy_1_cls-12 {
        fill: #10291c;
      }

      .enemy_1_cls-13 {
        fill: #6d933e;
      }

      .enemy_1_cls-14 {
        fill: #529dc6;
      }

      .enemy_1_cls-15 {
        fill: #0e1b1b;
      }

      .enemy_1_cls-16 {
        fill: #907987;
      }

      .enemy_1_cls-17 {
        fill: #7ba552;
      }

      .enemy_1_cls-18 {
        fill: #294b29;
      }

      .enemy_1_cls-19 {
        fill: #bb7f1c;
      }

      .enemy_1_cls-20 {
        fill: #173a24;
      }

      .enemy_1_cls-21 {
        fill: #706f4f;
      }

      .enemy_1_cls-22 {
        fill: #deecc3;
      }

      .enemy_1_cls-23 {
        fill: url(#enemy_1_linear-gradient);
      }

      .enemy_1_cls-24 {
        fill: #507530;
      }
    </style>
    <linearGradient id="enemy_1_linear-gradient" x1="5.77" y1="11.53" x2="4.36" y2="11.58" gradientUnits="userSpaceOnUse">
      <stop offset="0" stop-color="#11141b"/>
      <stop offset="1" stop-color="#0d241e"/>
    </linearGradient>
  </defs>
  <g id="steroids">
    <g id="enemy_1">
      <path class="enemy_1_cls-23" d="M5.84,11.2c-.03.28.18.48.18.58,0,.27-.48.54-.54,0-.03-.22-.03,0-.28-.05-.29-.05-.07-.6-.32-.41.03.09.03.29.05.33-.24.44-.71.4-.74.05,0-.02,0-.04,0-.05.02-.29.3-.23.29-.6.03-.03.01-.03.06-.04.06,0,.9.16,1.29.18Z"/>
      <path class="enemy_1_cls-5" d="M8.86,10.8c.06.12.16.48.18.51.07.12.27.12.27.33,0,.37-.49.4-.56.04,0-.04.02-.51-.07-.78-.05-.11.17-.1.18-.11Z"/>
      <path class="enemy_1_cls-5" d="M9.2,10.66c.21.32.79.55.3.85-.38.05-.35-.5-.5-.76.01,0-.03-.03,0-.04.18-.09.2-.05.21-.05Z"/>
      <path class="enemy_1_cls-3" d="M12.16,4.03s0,.01,0,.02c0,0-.03,0-.04,0,0,.04.05,0,.02.06-.12.07-.32.09-.27.2-.2-.6-.27-.3-.78-.32.04-.25-.34-.35-.43-.14-.08.2.12.39.31.28-.21.14-.26-.11-.31.21-.07.07-.55.34-.6.33-.04,0-.1-.09-.15-.09-.06-.16-.15-.32-.23-.47.37.06.33-.12.35-.13.01,0,.06,0,.08,0,.08-.02.29.02.27-.29.05.1-.02.23.17.27.08-.06.13-.24.23-.27.14-.04.38.16.72-.13.08.08.19.38.22.38.02,0,.07-.18.44,0,0,.03,0,.05,0,.08Z"/>
      <path class="enemy_1_cls-17" d="M6.58.06c-.05.17-.37.81-.38.89,0,.04.03.02.04.05-.17,0-.34.04-.51.05-.12-.4.11-.74.51-.54-.14-.31.04-.65.33-.45Z"/>
      <path class="enemy_1_cls-13" d="M1.66,3.62c-.05.08-.1.16-.14.23-.3-.16-1.21-.37-.62-.79.28,0,.23.18.34.29.02.02.35.23.42.27Z"/>
      <path class="enemy_1_cls-13" d="M.79,6.38c.09.08.05.29.07.43-.06-.13-.46.22-.65-.06-.24-.36.33-.59.58-.37Z"/>
      <path class="enemy_1_cls-12" d="M10.74,9.54c.07-.14.21-.2.31-.31.14.28.77.29.52.71-.42.31-.47-.29-.66-.55-.02,0-.14.12-.17.14Z"/>
      <path class="enemy_1_cls-24" d="M12.74,5.98c.11.32-.27.36-.27.39,0,.03.34.28-.13.46,0,0-.02.02-.14,0,0-.14.04-.44.04-.49h.14s-.08-.03-.08-.04c-.08-.06-.06-.18-.07-.29.21.04.39.21.52-.04Z"/>
      <path class="enemy_1_cls-3" d="M12.54,5.22s-.06.03-.09.04l-.32-.04s-.03-.03-.04-.05c0-.02,0-.18-.04-.35.34-.23.81.02.49.4Z"/>
      <path class="enemy_1_cls-5" d="M10.36,9.9c.07-.06.2-.18.29-.25.67.29-.03,1.01-.29.25Z"/>
      <path class="enemy_1_cls-3" d="M8.43,1.29s-.15-.03-.16-.06c.04-.21.12-.4.2-.6.1-.13.28-.27.27-.44.4.2-.22.51-.31,1.1Z"/>
      <path class="enemy_1_cls-3" d="M9.27,1.32c-.14.36-.22.17-.56.05,0-.08,0-.15.02-.23.04.05.41-.12.34-.18.19.06.16.2.2.36Z"/>
      <path class="enemy_1_cls-20" d="M11.24,9.01s.13-.21.32-.45c.49.49.03.82-.32.45Z"/>
      <g>
        <path class="enemy_1_cls-5" d="M9.73,10.35c.07.13.35.35.36.47.01.2-.2.33-.37.23-.15-.09-.12-.44-.19-.6.06-.04.13-.1.17-.13,0,0,.02.02.03.02Z"/>
        <path class="enemy_1_cls-5" d="M9.76,10.33c.07-.04.29-.2.36-.25.28.18.23.48-.08.58l-.28-.32Z"/>
      </g>
      <path class="enemy_1_cls-17" d="M2.14,2.91c-.07.09-.27.37-.34.47-.41-.28-.04-.84.34-.47Z"/>
      <path class="enemy_1_cls-18" d="M12.16,8.53c.19.36-.27.62-.43.14.03-.15-.04-.12.12-.2.16-.08.19-.05.32.05Z"/>
      <path class="enemy_1_cls-3" d="M12.2,5.64c-.01-.1-.02-.21-.04-.31.04,0,.07,0,.11,0,.14.11.54.17.58-.09.12.12.09.31-.06.38-.24.11-.57-.08-.59.02Z"/>
      <path class="enemy_1_cls-3" d="M9.46,1.58c-.08.08-.08.14-.22-.03l.51-.73c.08.06.11.14.09.24,0,.03-.34.48-.38.51Z"/>
      <path class="enemy_1_cls-13" d="M4.64,1.27s0,.09-.13.03c-.08-.32-.08-.53,0-.86.34.12.14.55.13.83Z"/>
      <g>
        <path class="enemy_1_cls-3" d="M12.72,8.09l-.72-.45c.04-.12.1-.26.13-.38.35.17.16.34.21.38.03.03.66.07.39.45Z"/>
        <path class="enemy_1_cls-18" d="M12.72,8.09c-.18.25-.56-.13-.78-.2,0-.01-.02,0,.05-.25l.72.45Z"/>
      </g>
      <path class="enemy_1_cls-13" d="M11.6,2.98v-.07c-.23.07-.22-.16-.45.07-.03-.04-.07-.07-.11-.11.1-.04.16-.22.24-.27.23-.15.51.1.32.38Z"/>
      <g>
        <path class="enemy_1_cls-7" d="M12.34,6.83s.08.03.11.04c.03,0,.53.23.55.25.02.02-.03.12,0,.14l.14-.09c-.15.25-.44-.06-.92-.16-.09-.02-.02-.11-.02-.18.12.02.14,0,.14,0Z"/>
        <path class="enemy_1_cls-17" d="M13.14,7.17l-.14.09s.02-.12,0-.14c-.02-.02-.52-.24-.55-.25.52-.17.87.01.69.31Z"/>
      </g>
      <g>
        <path class="enemy_1_cls-3" d="M.86,5.98c-.12-.11-.57.27-.74.11.22.06.05-.07.4-.4.12.03.28.06.38-.04-.02.11-.02.21-.04.32Z"/>
        <path class="enemy_1_cls-17" d="M.52,5.69c-.34.32-.18.45-.4.4-.24-.16-.09-.51.19-.49.06,0,.17.08.21.09Z"/>
      </g>
      <g>
        <path class="enemy_1_cls-13" d="M2.38,2.12c.09-.12.16.06.24.13.08.06.11-.01.1.07-.08.07-.27.25-.34.32-.1-.1-.57-.45-.6-.53-.07-.26.26-.44.49-.14.11.14.1.37.11.15Z"/>
        <path class="enemy_1_cls-17" d="M2.96,2.1c-.02.07-.16.15-.23.22.01-.09-.02-.02-.1-.07-.08-.06-.16-.24-.24-.13,0-.12.02-.23.17-.25.22-.03.38.22.41.23Z"/>
      </g>
      <g>
        <path class="enemy_1_cls-17" d="M.92,7.23s.02.01.04.11c-.16.12-.34.19-.51.29,0,.12-.08.09-.17.17-.06.05.03.18-.2.06-.27-.54.4-.42.44-.43.02,0,.14-.14.41-.2Z"/>
        <path class="enemy_1_cls-3" d="M.97,7.52s-.73.46-.82.42l-.08-.07c.23.11.14,0,.2-.06.09-.08.16-.05.17-.17.17-.1.36-.17.51-.29.03.16.08.12.02.18Z"/>
      </g>
      <path class="enemy_1_cls-13" d="M12.74,5.98c-.14.25-.32.07-.52.04,0-.06,0-.13,0-.2.17-.04.46-.04.52.16Z"/>
      <g>
        <path class="enemy_1_cls-13" d="M4.33,1.29s.11.06.05.11c-.24.09-.49.19-.71.31-.09-.15-.39-.42-.43-.49.12.05.34-.04.34-.19,0-.07-.08-.09-.04-.15.18.08.14.26.19.42.04.02.15-.47.6,0Z"/>
        <path class="enemy_1_cls-17" d="M3.53.87c-.05.06.04.08.04.15,0,.15-.22.24-.34.19-.16-.25.05-.46.31-.34Z"/>
      </g>
      <path class="enemy_1_cls-17" d="M7.88,1.16c-.16-.03-.4-.03-.49-.18.01-.01.04-.22.3-.16.13.03.22.21.19.34Z"/>
      <path class="enemy_1_cls-13" d="M11.13,2.3c-.05.08-.07,0-.08,0-.04,0,.02.56-.41,0,.06-.15.38-.23.49,0Z"/>
      <g>
        <path class="enemy_1_cls-3" d="M2.2,8.63c.01.07.1.13.09.17,0,.03-.29.33-.37.39-.05.04-.17-.11.06.2-.11.16-.33.71-.58.38.08-.05.15-.04.22-.14.01-.02.18-.38.18-.41,0-.05-.1-.18-.13-.23.19-.1.39-.18.52-.36Z"/>
        <path class="enemy_1_cls-17" d="M1.8,9.23s-.17.39-.18.41c-.07.1-.14.08-.22.14-.21-.29.15-.47.4-.54Z"/>
      </g>
      <path class="enemy_1_cls-3" d="M11.13,2.3c.09.19-.02.39-.22.43-.03-.03-.19-.14-.29-.23,0-.07,0-.13.02-.2.43.56.37,0,.41,0,.01,0,.03.08.08,0Z"/>
      <g>
        <path class="enemy_1_cls-17" d="M3.05,1.59c-.11-.03-.09.22-.27.22-.1-.1-.61-.38-.03-.58.21.06.22.2.3.36Z"/>
        <path class="enemy_1_cls-3" d="M3.05,1.59c.06.11.1.23.16.34-.01,0-.14.14-.22.16-.06-.1-.13-.21-.22-.29.18,0,.16-.24.27-.22Z"/>
      </g>
      <g>
        <path class="enemy_1_cls-3" d="M6.51.76s-.07.02.1.16c.22-.29.19-.36.43-.23v-.09s.05.06.06.1c.06.21-.08.28-.07.35-.15-.02-.32-.07-.33-.07-.07,0-.35.02-.46.02,0-.03-.04,0-.04-.05,0-.09.33-.72.38-.89.26.18-.08.45-.07.7Z"/>
        <path class="enemy_1_cls-13" d="M7.04.6v.09c-.24-.13-.2-.05-.42.23-.16-.14-.1-.14-.1-.16.09-.22.34-.4.52-.16Z"/>
      </g>
      <g>
        <path class="enemy_1_cls-17" d="M1.49,8.78c-.22.14-.42.31-.58.52-.25-.07-.22-.4,0-.49.09-.04.48-.04.51-.22.03.05.05.15.07.18Z"/>
        <path class="enemy_1_cls-3" d="M1.62,8.92c-.19-.01-.49.41-.7.38.15-.22.36-.38.58-.52,0,0,.04,0,.13.14Z"/>
      </g>
      <path class="enemy_1_cls-17" d="M12.31,3.06c.09.24-.15.23-.3.29-.14.06-.26.17-.3.09.4-.22.3-.5.6-.38Z"/>
      <g>
        <path class="enemy_1_cls-13" d="M2.2,10.31c-.12.09-.26.11-.36-.03-.16-.22.13-.47.27-.62.05.19.07.38.09.57,0,.02.06.01,0,.08Z"/>
        <path class="enemy_1_cls-7" d="M2.34,9.81c-.02.22.07.35-.14.51.06-.07,0-.06,0-.08-.02-.19-.04-.38-.09-.57.01-.02.01-.05.04-.05.06.07.13.13.2.2Z"/>
      </g>
      <path class="enemy_1_cls-13" d="M12.85,5.24c-.03.26-.43.2-.58.09.13-.02.17-.07.18-.07.03-.01.06-.03.09-.04.15-.05.18-.11.31.02Z"/>
      <g>
        <path class="enemy_1_cls-13" d="M10.05,1.5c.08.07-.05.11-.05.12,0,.02.09.05-.16.32-.07-.04-.2-.1-.22-.18-.04-.21.19-.43.43-.25Z"/>
        <path class="enemy_1_cls-3" d="M10.01,2.01c-.07.02-.12-.04-.18-.07.25-.27.15-.3.16-.32,0-.01.13-.05.05-.12.2.15.16.38-.04.51Z"/>
      </g>
      <path class="enemy_1_cls-24" d="M11.6,2.98c-.07.1-.18.15-.29.2-.02-.03-.05-.01-.07-.05-.01-.02-.06-.11-.09-.15.23-.24.22,0,.46-.07v.07Z"/>
      <g>
        <path class="enemy_1_cls-17" d="M1.39,4.12c-.03.06-.09.26-.13.3-.05.05-.07.02-.09.03-.13-.24-.5-.17-.69-.31-.04-.2.13-.33.32-.29.06.01.19.14.2.14.03,0,.06-.18.39.13Z"/>
        <path class="enemy_1_cls-3" d="M1.17,4.45c-.07.03-.1.02-.11.02-.2-.08-.53-.07-.58-.32.18.13.55.06.69.31Z"/>
      </g>
      <g>
        <path class="enemy_1_cls-17" d="M.99,5.19c.02.07,0,.06,0,.13-.16,0-.14.29-.35.25-.05,0-.14-.13-.21-.04-.2-.26.05-.66.56-.34Z"/>
        <path class="enemy_1_cls-3" d="M.99,5.31c-.02.15-.09.26-.09.27-.14.11-.35.1-.47-.05.07-.09.16.03.21.04.21.04.19-.25.35-.25Z"/>
      </g>
      <path class="enemy_1_cls-17" d="M9.08.96c.07.06-.31.23-.34.18.05-.17.18-.23.34-.18Z"/>
      <path class="enemy_1_cls-5" d="M7.04,11.2c0,.22.1.46.13.67.02.11.06.27.02.37-.09.25-.68.29-.51-.3-.18.07-.29-.04-.37-.07-.16-.23-.05-.46.11-.67.21,0,.43.01.63,0Z"/>
      <path class="enemy_1_cls-5" d="M7.76,11.11c.1.27.29.48.36.6.14.23.29.38-.03.58-.42.02-.35-.22-.37-.45,0-.15-.03,0-.17,0-.35.02-.42-.36-.21-.67.14-.07.39-.05.42-.05Z"/>
      <path class="enemy_1_cls-15" d="M8.55,10.91c.42.5-.3,1.15-.74.2,0,0,.01-.03.03-.04.24-.05.47-.1.71-.16Z"/>
      <path class="enemy_1_cls-4" d="M9.35,8.27c.25-.01.32.35.07.42-.26.07-.43-.32-.07-.42Z"/>
      <path class="enemy_1_cls-4" d="M5.93,9.95c.11.37-.45.39-.4.02.22-.32.38-.03.4-.02Z"/>
      <g>
        <path class="enemy_1_cls-20" d="M12.13,7.26c-.03.12-.09.26-.13.38-.08.24-.05.24-.05.25,0,.02-.18.25-.16.32.01.04.3.17.38.32-.12-.1-.15-.13-.32-.05-.16.08-.09.05-.12.2-.03-.1-.02-.21-.06-.25-.05.04-.06.1-.1.14-.2.24-.31.43-.32.45-.06.07-.13.15-.2.22-.1.1-.24.17-.31.31-.03.03-.06.08-.09.11-.08.07-.22.19-.29.25-.07.06-.16.12-.23.18-.08.06-.29.21-.36.25,0,0-.01,0-.04.02-.01,0-.03-.02-.03-.02-.04.03-.11.09-.17.13-.09.05-.31.19-.32.2-.01,0-.02-.03-.21.05-.02,0,.02.03,0,.04,0,0-.05.01-.14.05-.01,0-.23,0-.18.11-.05-.05-.07-.01-.13,0-.24.06-.47.12-.71.16-.02,0-.02.04-.03.04,0,0,0,0-.05,0-.02,0-.27-.01-.42.05-.1,0-.2.03-.31.04-.21.01-.43,0-.63,0-.17,0-.53,0-.56,0-.39-.02-1.23-.19-1.29-.18-.05,0-.03,0-.06.04-.47-.29-.2.04-.42.22-.1.08-.19.08-.3.04.02-.17.03-.34-.02-.51,0,0,.01,0,.02,0,.16-.04.46.14.51.13.08-.02.13-.2.14-.21.05-.05.21-.15.22-.16.01-.02,0-.39.3-.35.14.02.1.15.29.07.04-.01.02-.06.04-.07.07-.03.04.07.18-.09,0,0,.05,0,.05,0,.02-.03-.02-.05.05-.14-.05.37.51.35.4-.02.05.04.05.07.06.07.02,0,.35.01.36,0,.02-.02.09-.44.44-.15.05.04-.05.14.39.12.15-.37.34-.23.36-.23.02,0,.1-.12.16-.14.13-.05.42-.11.54-.16.09-.04.36-.27.45-.27.04,0,.02.05.07.05.02,0,.12-.15.29-.05l.03-.05c-.18-.06.1-.17.14-.25.03-.05-.13-.1.2-.14l-.02-.05c.25-.06.18-.43-.07-.42.27-.07.23.22.26.23.16.11.45-.17.56-.23.14-.08.3-.05.34-.23.28.14.37-.4.96-.74.45-.26.58-.12.63-.13.03,0,0-.04.05-.11,0,.06,0,.14-.02.2Z"/>
        <g>
          <path class="enemy_1_cls-4" d="M6.54,9.83c.38-.09.38.51,0,.42-.18-.04-.18-.37,0-.42Z"/>
          <path class="enemy_1_cls-4" d="M8.89,9.19c.4-.1.35.56-.02.4-.16-.07-.14-.36.02-.4Z"/>
          <path class="enemy_1_cls-4" d="M8.25,9.83c.28-.03.33.37.09.42-.31.05-.35-.39-.09-.42Z"/>
          <path class="enemy_1_cls-4" d="M4.88,10.24c.25-.02.31.36.09.42-.34.08-.36-.4-.09-.42Z"/>
          <path class="enemy_1_cls-4" d="M7.39,9.77c.3-.07.37.34.14.4-.32.08-.34-.35-.14-.4Z"/>
        </g>
      </g>
      <g>
        <path class="enemy_1_cls-3" d="M2.94,11.32c-.07-.25.09-.26.2-.43.03-.05.07-.11.09-.16.04-.08-.02.52-.04.55-.06.12-.22.02-.25.05Z"/>
        <path class="enemy_1_cls-18" d="M3.77,11.31c-.21-.09-.23-.43-.02-.51.05.16.03.34.02.51Z"/>
      </g>
      <g>
        <path class="enemy_1_cls-18" d="M12.24,6.32s0,.01,0,.02c0,.05-.03.35-.04.49,0,.07-.07.16.02.18-.04,0-.06.03-.07.05-.04.07-.01.1-.05.11-.05.01-.18-.14-.63.13-.58.34-.67.88-.96.74-.05.19-.21.15-.34.23-.11.07-.4.35-.56.23-.03-.02,0-.31-.26-.23-.35.1-.19.48.07.42l.02.05c-.33.05-.17.1-.2.14-.05.08-.33.19-.14.25l-.03.05c-.17-.09-.27.05-.29.05-.05,0-.03-.06-.07-.05-.09,0-.36.23-.45.27-.12.06-.41.11-.54.16-.06.03-.14.14-.16.14-.02,0-.21-.13-.36.23-.43.02-.34-.08-.39-.12-.35-.28-.42.14-.44.15-.01.01-.34,0-.36,0-.01,0-.01-.03-.06-.07-.02-.02-.18-.3-.4.02-.06.09-.02.12-.05.14,0,0-.05,0-.05,0-.14.16-.11.06-.18.09-.02,0,0,.06-.04.07-.19.08-.15-.06-.29-.07-.29-.03-.28.33-.3.35,0,.01-.17.11-.22.16,0,0-.05.19-.14.21-.05.01-.36-.16-.51-.13-.44-.4-.25.12-.36.49-.07.22-.4.3-.47.04.03-.03.19.08.25-.05.01-.03.08-.63.04-.55.03-.07.05-.15.07-.22,0,0,.07,0,.17.09-.03-.24.11-.26.17-.46.05-.08.08,0,.14,0,.07.02.15.07.23.05.1-.02.16-.12.15-.23.1.02.68-.21.71-.23.1-.07.07-.23.14-.34,1.71.36,3.76-.51,4.66-2.02.09.1.1-.12.14-.13.38.28.36.1.42.11.06.01-.01.14.19.05-.07-.06-.1-.2-.05-.27.05-.08.17-.03.14-.12.23.09.4-.13.25-.34.05.03.05.12.26.16.16-.14.13-.24.14-.25.03-.04.62-.37.81-.36,0,0,.04.05.05.05.07,0,.18-.04.21.05Z"/>
        <path class="enemy_1_cls-4" d="M10.4,7.43c.33-.05.33.52-.04.43-.2-.05-.17-.41.04-.43Z"/>
      </g>
      <path class="enemy_1_cls-4" d="M10.76,6.67c.15.21-.02.44-.25.34-.22-.09-.1-.54.25-.34Z"/>
      <path class="enemy_1_cls-4" d="M4.17,9.97c.01.11-.06.22-.15.23-.08.01-.15-.03-.23-.05-.13-.46.36-.45.38-.18Z"/>
      <g>
        <path class="enemy_1_cls-17" d="M8.73.19c.01.17-.17.31-.27.44-.08.2-.16.39-.2.6.01.03.13.05.16.06.1.04.19.06.29.09.33.11.42.31.56-.05.06-.16.08-.78.47-.51l-.51.73c.13.17.13.11.22.03-.11.12.16.24.16.18.02.08.15.14.22.18.06.04.11.09.18.07.07.18.15.03.23-.05.04-.03.31-.34.32-.36,0-.02,0-.11,0-.13.09-.19.32-.29.45-.08.08.34-.09.08-.21.11-.04,0-.5.57-.59.64.26.32.51.34.14.39-.13-.13.02.04-.05.07-.33-.04-.36.12-.38.13-.05.02-.06-.04-.14-.04-.03,0-.06.13-.32.03.02-.26-.19-.52-.4-.26,0,0-.03.05-.04.05,0,0-.03,0-.04,0-.04.11.2.39-.17.17l-.03.05c.24.19-.05.11-.06.12-.06.02.04.17-.2.11-.1-.03-.55-.33-1.1-.43-1.45-.28-2.66.14-3.75,1.1-.23.21-.48.44-.69.67-1.16,1.29-.66,2.45-.69,2.59-.01.07-.08-.12-.15.12-.08-.01-.09-.13-.17-.03.13.3-.35-.11-.4.23,0,.03,0,.16,0,.2,0,.03.15.19-.02.59-.07.17-.43.49-.62.41-.11-.07-.02-.18-.12-.16.09-.21.33-.17.34-.19.02-.02-.17-.5-.22-.53.06-.06.01-.02-.02-.18-.02-.1-.04-.1-.04-.11-.02-.14-.04-.28-.05-.42-.02-.14.02-.35-.07-.43.05.01.05-.21.07-.4.01-.11.02-.21.04-.32,0-.02,0-.05,0-.07,0-.01.07-.12.09-.27,0-.06.02-.06,0-.13-.02-.05-.64-.39.07-.72,0,0,.04,0,.11-.02.02,0,.04.02.09-.03.04-.04.1-.24.13-.3.05-.09.08-.19.13-.27.04-.08.1-.16.14-.23.05-.08.09-.16.14-.23.07-.1.27-.38.34-.47.04-.05.2-.23.23-.27.07-.07.26-.25.34-.32.07-.06.22-.15.23-.22.05.03.03,0,.04,0,.07-.02.2-.16.22-.16.15-.08.3-.16.45-.23.23-.12.47-.21.71-.31.06-.05,0-.07-.05-.11-.03-.31-.41-.9.18-.85-.08.32-.08.54,0,.86.12.06.12-.02.13-.03.12-.04.25-.06.38-.09.14-.03.29-.07.43-.09.05,0,.11-.03.16-.04.06,0,.09-.02.09-.02,0,0,0,.02.04.02.17-.02.33-.05.51-.05.11,0,.39-.02.46-.02.02,0,.19.06.33.07.33.04.25.06.36-.07.08.15.33.16.49.18.07.01.25.1.31.03.13-.17.05-1.24.54-1Z"/>
        <g>
          <path class="enemy_1_cls-4" d="M1.67,5.29c.35-.08.44.52-.07.43-.13-.09-.09-.4.07-.43Z"/>
          <path class="enemy_1_cls-8" d="M6.76,1.86c.34-.09.41.55-.02.43-.18-.05-.15-.39.02-.43Z"/>
          <path class="enemy_1_cls-8" d="M2.78,3.31c.37-.1.45.51-.05.4-.15-.1-.08-.36.05-.4Z"/>
          <path class="enemy_1_cls-8" d="M4.57,2.08c.29-.02.31.39.09.43-.34.07-.37-.41-.09-.43Z"/>
          <path class="enemy_1_cls-8" d="M3.65,2.5c.3-.04.34.39.11.43-.36.07-.34-.4-.11-.43Z"/>
          <path class="enemy_1_cls-4" d="M1.68,5.98c.34-.06.32.4.09.43-.28.05-.34-.39-.09-.43Z"/>
          <path class="enemy_1_cls-4" d="M2.17,4.32c.09,0,.2.04.23.14.13.54-.83.23-.23-.14Z"/>
          <path class="enemy_1_cls-4" d="M7.82,1.9c.34-.08.39.41.11.43-.28.03-.29-.39-.11-.43Z"/>
          <path class="enemy_1_cls-4" d="M8.58,1.83c.37-.11.39.56-.02.42-.18-.06-.11-.38.02-.42Z"/>
          <path class="enemy_1_cls-8" d="M5.6,1.76c.44-.11.27.72-.15.3-.05-.12.08-.28.15-.3Z"/>
        </g>
      </g>
      <path class="enemy_1_cls-4" d="M1.6,7.41s0-.16,0-.2c.55-.44.5.65,0,.2Z"/>
      <path class="enemy_1_cls-8" d="M9.04,2.51s.03-.05.04-.05c.21-.16.43.03.34.23-.16.2-.42.08-.38-.17Z"/>
      <g>
        <path class="enemy_1_cls-17" d="M5.7,1.03s-.03.01-.09.02c.13-.04-.12-.37,0-.53h-.08q-.04.28-.08.57c-.15.02-.29.06-.43.09-.23-.48.19-.45.22-.47.18-.1.39-.29.32-.51.19.22-.04.44.14.83Z"/>
        <g>
          <path class="enemy_1_cls-17" d="M5.56.2c.06.22-.15.4-.32.51-.29-.47.08-.78.32-.51Z"/>
          <path class="enemy_1_cls-3" d="M5.61,1.05c-.05,0-.11.03-.16.04l.08-.58h.08c-.12.17.13.5,0,.54Z"/>
        </g>
      </g>
      <path class="enemy_1_cls-4" d="M11.1,3.99s-.09.12-.13.14c-.18.11-.39-.08-.31-.28.09-.22.47-.12.43.14Z"/>
      <g>
        <path class="enemy_1_cls-7" d="M11.87,4.32s.09-.03.13-.05c.11.03.38.06.42-.07.14.09.03.16-.03.27-.19.14-.41.08-.43.14,0,.01.09.21.09.23.04.17.03.33.04.35,0,.01.04.04.04.05,0,.02.04.1.04.11.02.09.02.21.04.31,0,.06.01.12.02.18,0,.06,0,.13,0,.2.01.11,0,.23.07.29-.03-.02-.06-.03-.05.02-.03-.09-.14-.05-.21-.05,0,0-.05-.05-.05-.05-.19,0-.79.33-.81.36-.01.02.02.11-.14.25-.21-.04-.21-.13-.26-.16-.35-.2-.48.25-.25.34.02.08-.09.04-.14.12-.04.07-.02.21.05.27-.2.1-.13-.03-.19-.05-.05,0-.04.17-.42-.11-.03,0-.05.23-.14.13.49-.83.58-1.88.23-2.78.05,0,.11.09.15.09.05,0,.54-.26.6-.33.05-.32.1-.07.31-.21.04-.03.12-.11.13-.14.5.02.58-.28.78.32Z"/>
        <path class="enemy_1_cls-22" d="M12.29,6.31s.1,0,.08.04h-.14s0-.01,0-.02c0-.05.02-.04.05-.02Z"/>
        <path class="enemy_1_cls-4" d="M10.89,4.61c.29-.03.33.41.05.43-.29.03-.32-.41-.05-.43Z"/>
        <path class="enemy_1_cls-4" d="M10.98,5.48c.33.01.29.4.09.43-.26.05-.4-.3-.09-.43Z"/>
      </g>
      <path class="enemy_1_cls-11" d="M12.45,5.26s-.05.05-.18.07c-.03,0-.07,0-.11,0,0,0-.03-.08-.04-.11l.32.04Z"/>
      <g>
        <path class="enemy_1_cls-17" d="M12.4,4.46c.06-.11.16-.18.03-.27-.04.13-.31.1-.42.07.02-.02.13-.11.14-.14.03-.06-.03-.02-.02-.06,0-.02.04,0,.04,0,.28-.07.5.21.23.42Z"/>
        <path class="enemy_1_cls-11" d="M12,4.27s-.08.06-.13.05c-.05-.1.15-.12.27-.2-.02.03-.12.13-.14.14Z"/>
      </g>
      <g>
        <path class="enemy_1_cls-7" d="M5.01,9.39c-.07.11-.04.27-.14.34-.03.02-.61.25-.71.23-.02-.27-.51-.28-.38.18-.07-.02-.09-.09-.14,0-.06.2-.21.22-.17.46-.1-.1-.16-.09-.17-.09-.08-.04-.34-.26-.39-.25-.2.52-.71.32-.53-.09,0,.07-.04.15-.02.23.08.33.07-.09.07-.11.02-.11.16-.23.09-.33-.03-.05-.17-.14-.18-.14-.06-.07-.14-.13-.2-.2-.06-.06-.11-.15-.16-.22-.23-.31-.11-.16-.06-.2.08-.06.36-.36.37-.39.01-.04-.08-.11-.09-.17-.02-.12.07-.28.19-.31.13-.02.21.07.25.05.02,0,.27-.3.3-.34.51.66,1.25,1.18,2.08,1.35Z"/>
        <path class="enemy_1_cls-3" d="M2.38,10.17c.03-.08.1-.14.14-.22.07.11-.07.22-.09.33,0,.01,0,.44-.07.11-.02-.07.02-.15.02-.23Z"/>
        <path class="enemy_1_cls-4" d="M3.31,9.19c.35-.09.37.4.13.43-.29.04-.33-.38-.13-.43Z"/>
        <path class="enemy_1_cls-4" d="M2.39,8.36c.3-.06.36.39.11.43-.29.05-.35-.38-.11-.43Z"/>
      </g>
      <path class="enemy_1_cls-4" d="M10.38,3.71c.02.31-.2.27-.27.29-.42-.24.1-.65.27-.29Z"/>
      <g>
        <path class="enemy_1_cls-3" d="M10.63,2.5c.1.1.26.21.29.23.04.04.08.1.13.14.04.04.07.07.11.11.03.04.08.14.09.15.02.03.05.02.07.05,0,0-.03.02,0,.06.03.04.19.29.21.3.02,0,.15-.09.19-.11.04.08.16-.03.3-.09.15-.06.39-.05.3-.29.25.11.23.45-.31.55,0,.03.31.14.16.42,0-.03,0-.05,0-.08-.37-.17-.42.01-.44,0-.02,0-.14-.3-.22-.38-.35.29-.58.09-.72.13-.11.03-.15.21-.23.27-.2-.04-.12-.17-.17-.27-.17-.36-.69.05-.27.29-.03,0-.07,0-.08,0-.02,0,.02.18-.35.13-.29-.5-.69-.9-1.2-1.17-.58-.32-1.59-.53-2.24-.47,0,0-.03.04-.04.04-1.07.11-1.65.51-2.5,1.12,1.09-.96,2.29-1.38,3.75-1.1.55.11,1.01.41,1.1.43.24.06.14-.09.2-.11.01,0,.3.07.06-.12l.03-.05c.37.22.13-.07.17-.17,0-.02.04,0,.04,0-.04.25.22.37.38.17.09-.2-.13-.38-.34-.23.2-.26.41,0,.4.26.26.1.29-.03.32-.03.08,0,.09.05.14.04.02,0,.05-.17.38-.13.08-.03-.08-.2.05-.07.37-.05.13-.06-.14-.39.08-.07.54-.63.59-.64.12-.03.29.23.21-.11.2.31-.27.35-.63.86,0,.04.2.21.23.24Z"/>
        <path class="enemy_1_cls-4" d="M9.61,2.88c.38-.07.33.54-.04.4-.17-.07-.14-.37.04-.4Z"/>
      </g>
      <g>
        <path class="enemy_1_cls-3" d="M2.94,8.04s-.28.33-.3.34c-.05.02-.12-.08-.25-.05-.12.02-.21.18-.19.31-.13.18-.33.26-.52.36,0,0-.01,0-.05-.07-.09-.14-.12-.14-.13-.14-.02-.03-.05-.13-.07-.18-.12-.21-.06-.02-.26.02-.25.04-.42-.14-.32-.38.1-.02,0,.09.12.16.2.09.55-.23.62-.41.16-.4.02-.56.02-.59.5.45.55-.64,0-.2.05-.33.53.07.4-.23.08-.1.1.01.17.03.07-.24.14-.05.15-.12.02-.14-.47-1.3.69-2.59-.92,1.16-1,2.55-.07,3.74Z"/>
        <path class="enemy_1_cls-4" d="M2.19,7.77c.39-.06.3.59-.07.4-.14-.07-.1-.37.07-.4Z"/>
      </g>
      <g>
        <path class="enemy_1_cls-16" d="M9.67,4.12c.09.15.17.31.23.47.34.9.26,1.95-.23,2.78-.9,1.52-2.95,2.38-4.66,2.02-.82-.17-1.56-.7-2.08-1.35-.93-1.19-.85-2.58.07-3.74.21-.23.45-.46.69-.67.85-.61,1.43-1.01,2.5-1.12,0,0,.03-.04.04-.04.65-.06,1.66.15,2.24.47.51.28.91.68,1.2,1.17Z"/>
        <g>
          <path class="enemy_1_cls-2" d="M7.54,3.42c.57.24,1.04.58,1.41,1.08.5.84.51,1.86-.05,2.67-.02.02-.06.03-.05.07-.7.93-2.01,1.56-3.17,1.5-1.6-.08-3.09-1.8-2.5-3.37.3-.79,1.54-1.61,2.3-1.9.76-.29,1.29-.31,2.07-.05Z"/>
          <path class="enemy_1_cls-9" d="M6.38,3.35c1.09-.09,2.54.77,2.77,1.92.22,1.06-.21,1.87-1.02,2.52-1.26,1-3.08,1.25-4.25-.03-.89-.98-1-2.23,0-3.17.51-.48,1.8-1.19,2.49-1.25Z"/>
          <g>
            <path class="enemy_1_cls-10" d="M8.9,7.17c.56-.82.55-1.83.05-2.67.02.02.12.13.13.14.1.17.26.77.27.97.03.44-.13,1.24-.45,1.56Z"/>
            <path class="enemy_1_cls-21" d="M8.95,4.5c-.37-.51-.84-.84-1.41-1.08.58.19,1.1.56,1.41,1.08Z"/>
            <path class="enemy_1_cls-10" d="M8.84,7.24s.03-.05.05-.07c-.02.03-.03.05-.05.07Z"/>
            <path class="enemy_1_cls-14" d="M6.12,6.61c.86-.06.74.9.07,1.05-.73.16-.95-.98-.07-1.05Z"/>
            <path class="enemy_1_cls-14" d="M3.96,5.73c.16-.03.5.05.63.16.41.35-.23,1.21-.78.83-.32-.22-.26-.92.14-.99Z"/>
            <path class="enemy_1_cls-14" d="M6.27,4.16c.47-.05.42.38.44.48,0,0,.06.07.07.13.11.71-1.26.57-1.1-.18.04-.18.42-.41.59-.42Z"/>
            <path class="enemy_1_cls-6" d="M6.18,6.09c.38.12-.13.45-.08.06l.08-.06Z"/>
            <path class="enemy_1_cls-6" d="M7.08,6.43c.38.08-.06.45-.08.08l.08-.08Z"/>
            <path class="enemy_1_cls-6" d="M5.87,5.57c.37.07-.05.46-.08.08l.08-.08Z"/>
            <path class="enemy_1_cls-6" d="M6.92,5.73c.36.07-.04.47-.08.08l.08-.08Z"/>
            <path class="enemy_1_cls-6" d="M8.47,5.15c.4.03-.03.45-.06.08l.06-.08Z"/>
            <path class="enemy_1_cls-6" d="M4.55,6.85c.37.07-.06.45-.08.08l.08-.08Z"/>
            <path class="enemy_1_cls-6" d="M4.7,7.39c.37.07-.06.45-.08.08l.08-.08Z"/>
            <path class="enemy_1_cls-6" d="M8.16,6.59h.11c.24.29-.34.3-.11,0Z"/>
            <path class="enemy_1_cls-6" d="M5.33,7.55c.37.07-.03.44-.08.08l.08-.08Z"/>
            <path class="enemy_1_cls-6" d="M7.06,4.14c.35.06-.06.45-.08.08l.08-.08Z"/>
            <path class="enemy_1_cls-6" d="M4.16,5.28l.09.02c.2.34-.38.24-.09-.02Z"/>
            <path class="enemy_1_cls-6" d="M6.5,7.8h.09c.26.3-.34.31-.09,0Z"/>
            <path class="enemy_1_cls-6" d="M4.91,4.83l.07.02c.23.34-.4.23-.07-.02Z"/>
            <path class="enemy_1_cls-6" d="M7.26,7.1c.39.08-.11.45-.06.05l.06-.05Z"/>
            <path class="enemy_1_cls-6" d="M7.77,6.4l.09.02c.2.33-.38.23-.09-.02Z"/>
            <path class="enemy_1_cls-6" d="M4.95,5.62c.38.05-.06.45-.06.06l.06-.06Z"/>
            <path class="enemy_1_cls-6" d="M8.25,5.84c.32.13-.1.42-.1.08l.1-.08Z"/>
            <path class="enemy_1_cls-6" d="M7.62,4.46c.32.13-.09.42-.1.08l.1-.08Z"/>
            <path class="enemy_1_cls-6" d="M4.86,6.43c.32,0,.07.4-.08.12l.08-.12Z"/>
            <path class="enemy_1_cls-6" d="M5.44,5.85c.35.05-.03.42-.08.08l.08-.08Z"/>
            <path class="enemy_1_cls-6" d="M5.11,6.81h.09c.24.28-.32.3-.09,0Z"/>
            <path class="enemy_1_cls-6" d="M7.23,5.04h.09c.24.29-.34.27-.09,0Z"/>
            <path class="enemy_1_cls-6" d="M7.46,5.8c.34.1-.09.4-.08.08l.08-.08Z"/>
            <path class="enemy_1_cls-6" d="M8.15,4.68c.31.07,0,.39-.08.1l.08-.1Z"/>
            <g>
              <path class="enemy_1_cls-6" d="M7.82,4.97c.61-.09.64.79.14.83-.55.04-.65-.76-.14-.83Z"/>
              <g>
                <path class="enemy_1_cls-19" d="M7.82,5.06c.57-.06.53.71.04.65-.35-.05-.4-.61-.04-.65Z"/>
                <path class="enemy_1_cls-1" d="M7.82,5.17c.07.06.03.01.16.04.15.16.07.27-.05.43-.26-.08-.3-.27-.11-.47Z"/>
              </g>
            </g>
          </g>
        </g>
      </g>
    </g>
  </g>
</svg>