<?xml version="1.0" encoding="UTF-8"?>
<svg id="Layer_2" xmlns="http://www.w3.org/2000/svg" xmlns:xlink="http://www.w3.org/1999/xlink" viewBox="0 0 6.81 6.81">
  <defs>
    <style>
      .cls-1 {
        fill: #f79434;
      }

      .cls-2 {
        fill: #163b38;
      }

      .cls-3 {
        fill: url(#linear-gradient-2);
      }

      .cls-4 {
        fill: #063c4c;
      }

      .cls-5 {
        fill: #118491;
      }

      .cls-6 {
        fill: #2c5a50;
      }

      .cls-7 {
        fill: #f8ae3d;
      }

      .cls-8 {
        fill: #4d8559;
      }

      .cls-9 {
        fill: #1c1b1c;
      }

      .cls-10 {
        fill: #08737a;
      }

      .cls-11 {
        fill: #035261;
      }

      .cls-12 {
        fill: #e4543f;
      }

      .cls-13 {
        fill: #0c6775;
      }

      .cls-14 {
        fill: #8ad3db;
      }

      .cls-15 {
        fill: #10171f;
      }

      .cls-16 {
        fill: #ee6e4e;
      }

      .cls-17 {
        fill: #e68333;
      }

      .cls-18 {
        fill: #1d94a0;
      }

      .cls-19 {
        fill: #5c9267;
      }

      .cls-20 {
        fill: #4eb6bf;
      }

      .cls-21 {
        fill: #0d2330;
      }

      .cls-22 {
        fill: #386c58;
      }

      .cls-23 {
        fill: #c5483b;
      }

      .cls-24 {
        fill: url(#linear-gradient);
      }

      .cls-25 {
        fill: #dd682f;
      }

      .cls-26 {
        fill: #f7be47;
      }

      .cls-27 {
        fill: #ea7a3d;
      }
    </style>
    <linearGradient id="linear-gradient" x1=".7" y1="3.69" x2=".94" y2="4.78" gradientUnits="userSpaceOnUse">
      <stop offset="0" stop-color="#51b8c1"/>
      <stop offset="1" stop-color="#1e949f"/>
    </linearGradient>
    <linearGradient id="linear-gradient-2" x1="1.89" y1="1.48" x2="4.73" y2="5.42" gradientUnits="userSpaceOnUse">
      <stop offset=".08" stop-color="#a3cf9a"/>
      <stop offset=".55" stop-color="#22524e"/>
      <stop offset=".88" stop-color="#10353a"/>
    </linearGradient>
  </defs>
  <g id="Steroids">
    <g id="Enemy_x5F_5">
      <g>
        <g>
          <path class="cls-15" d="M6.45,3.73c-.06,0-.11.4-.02.33,0,0-.05.05-.06.05-.01,0-.11-.13-.14-.15,0,0,0,0,0-.1.14.05.04-.19.21-.12Z"/>
          <path class="cls-4" d="M6.53,3.99s-.06.05-.09.07c-.09.07-.04-.32.02-.33.06.03.09.21.08.26Z"/>
        </g>
        <g>
          <path class="cls-15" d="M5.92,1.2c.17.14.32.3.41.49.03.06.05.18.07.15-.11.16-.2-.08-.22-.08-.01,0-.19.14-.22.16-.12.08-.31.21-.41.27-.12.07-.14.12-.26-.01,0-.12.07-.1.14-.14.17-.1.3-.18.46-.3.07-.06.15-.11.23-.16.01-.06-.33-.3-.18-.37Z"/>
          <path class="cls-4" d="M6.4,1.85s-.04-.08-.07-.15c-.09-.2-.24-.36-.41-.49.19-.12.58.48.47.64Z"/>
        </g>
        <g>
          <path class="cls-21" d="M1.97.82c.04.07.26.4.26.42.03.1-.06.17-.12.16,0,0-.09-.13-.1-.15-.06-.1-.11-.2-.18-.3-.02-.03-.1-.18-.13-.19-.06-.01-.31.26-.36.07.18-.2.45-.31.69-.44.13.15,0,.12-.17.25,0,.01.09.16.1.18Z"/>
          <path class="cls-5" d="M2.04.38c-.24.13-.5.24-.69.44-.09-.14.63-.58.69-.44Z"/>
        </g>
        <path class="cls-15" d="M6.28,2.05s-.02,0-.02.04c0,.01.1.3.12.24-.09.1-.08.05-.21,0-.02,0-.03.01-.03,0-.06-.03-.02-.06-.02-.07.01-.03.11-.14.13-.22h.03Z"/>
        <g>
          <path class="cls-21" d="M.65,4.54s.04.08.06.12c-.13.04-.26.17-.31.14.09-.03-.02-.23-.03-.33,0-.02.05.01,0-.03.17.04.03.21.27.09Z"/>
          <path class="cls-4" d="M.37,4.45s-.01.01,0,.03c0,.09.12.3.03.33-.09-.03-.21-.38-.02-.36Z"/>
        </g>
        <g>
          <path class="cls-15" d="M2.92.42s0,.02,0,.02c-.1.03-.11.02-.12.02-.1-.4-.12-.1-.25-.26v-.04c.08.04.39-.03.46-.08l.03.02c.01.2-.25-.04-.11.32Z"/>
          <path class="cls-4" d="M3,.08c-.07.05-.38.11-.45.08.03-.09.39-.15.45-.08Z"/>
        </g>
        <g>
          <path class="cls-15" d="M4.34.09c.05.04.06.05.04.12-.21.1-.22-.17-.3.23-.05-.01-.12-.04-.12-.04.09-.37-.02-.19-.16-.26-.04-.02-.05-.11.01-.13,0,.06.18.05.26.07.14.03.36.11.27.02Z"/>
          <path class="cls-4" d="M4.34.09c.09.09-.13,0-.27-.02-.08-.02-.25,0-.26-.07.07-.03.46.04.53.08Z"/>
        </g>
        <path class="cls-4" d="M6.39,2.34c-.03.06-.12-.23-.12-.24,0-.04.01-.03.02-.04.14.01.15.24.14.26,0,.02-.04.02-.04.02Z"/>
        <g>
          <path class="cls-15" d="M1.07,1.08c.09.06-.02.12,0,.16,0,.01.19.18.22.21,0,0-.03.05-.06.08-.03-.02-.22-.2-.24-.2-.04,0-.08.08-.16.03.06-.09.16-.22.25-.27Z"/>
          <path class="cls-10" d="M1.07,1.08c-.08.05-.18.18-.25.27-.11-.06.15-.37.25-.27Z"/>
        </g>
        <g>
          <g>
            <path class="cls-15" d="M.93,1.94c.12.08.23.16.36.24,0,0,.01.01,0,.01-.1.21-.08.16-.22.07-.08-.05-.16-.1-.24-.15-.03-.02-.24-.16-.26-.16-.03,0-.11.27-.23.11.1-.22.26-.4.41-.59.24.03-.08.28-.07.33,0,.01.21.13.24.15Z"/>
            <path class="cls-10" d="M.76,1.47c-.14.19-.3.38-.41.59-.1-.08.25-.61.41-.59Z"/>
          </g>
          <g>
            <path class="cls-21" d="M.71,2.39s.02.08-.05.11c0,0-.22.08-.21.03l.06-.33c.16.06.02.19.2.19Z"/>
            <path class="cls-10" d="M.46,2.53c-.14-.08-.03-.33.06-.33l-.06.33Z"/>
          </g>
        </g>
        <path class="cls-4" d="M1.37,5.61s-.06.11-.1.14c0,0-.02-.01-.02,0-.11-.09-.05-.1.05-.21.03.02.06.06.08.08Z"/>
        <g>
          <path class="cls-15" d="M2.41.59s.01.02-.06.05c-.01,0-.02-.01-.02,0-.02-.03-.12-.23-.14-.24-.02,0-.02.06-.08-.04.07-.04.17-.06.22-.13.09.08-.02.13-.02.16,0,.01.09.17.1.2Z"/>
          <path class="cls-11" d="M2.32.22c-.05.07-.14.09-.22.13,0,0-.03-.02-.03-.06.06-.06.17-.13.25-.07Z"/>
        </g>
        <path class="cls-21" d="M4.6.61s-.01.01-.02,0c-.05-.02-.07-.05-.07-.05l.06-.13.09.04-.06.13Z"/>
        <path class="cls-4" d="M5.7,1.48s-.07-.1-.08-.1l.09-.06c.1.1.1.09-.01.16Z"/>
        <g>
          <path class="cls-4" d="M1.83,6.42s-.06-.02-.09-.03c-.07-.03-.22-.13-.27-.18-.04-.05-.12-.12-.08-.19.15.13.3.28.49.36l-.03.04Z"/>
          <path class="cls-15" d="M2.17,5.65c-.08.13-.16.26-.24.39,0,.01-.07.08-.1.14.26.13.21.27,0,.24l.03-.04c-.19-.07-.34-.23-.49-.36.06-.16.25.08.3.08.01,0,.1-.16.12-.18.1-.14.18-.27.26-.42.03-.05.14-.21.09-.25.04,0,.03-.03.06-.07.04.02.17.07.17.12-.07.12-.14.24-.21.35Z"/>
        </g>
        <g>
          <path class="cls-15" d="M5.54,4.72s.22.19.27.24c.03.02.2.2.21.2.02,0,.15-.24.23-.11-.03-.03-.01.07-.1.2-.07.11-.28.25-.25.29-.08,0-.11-.07-.09-.14.03-.12.17.01-.08-.23-.09-.09-.31-.26-.34-.3-.08-.1-.05-.1.08-.2l.06.06Z"/>
          <path class="cls-4" d="M6.25,5.04c.06.07-.01.19-.06.26-.05.09-.18.23-.29.23-.03-.04.17-.18.25-.29.09-.14.07-.23.1-.2Z"/>
        </g>
        <g>
          <path class="cls-15" d="M6.32,4.47c-.02.17-.12.41,0,.34-.09.07-.18,0-.18-.02,0-.06.11-.06-.11-.16.01-.03.05-.1.06-.11.23.16.08-.09.25-.04Z"/>
          <path class="cls-4" d="M6.31,4.81c-.11.08-.01-.17,0-.34.11.04.09.26,0,.34Z"/>
        </g>
        <g>
          <path class="cls-4" d="M6.75,3.83s-.03.04-.05.05l-.02-.88c.14.05.16.68.07.83Z"/>
          <path class="cls-15" d="M6.69,3l.02.88c-.23.12-.16-.25-.19-.27,0,0-.2,0-.23,0-.14,0-.29,0-.42,0-.03,0-.1,0-.11,0-.03.01,0,.08-.04.09.03-.15-.06-.03-.11-.14,0-.15.16-.13.27-.14.09,0,.38.01.39,0,.01,0,0-.2,0-.23,0,0,.02,0,.02,0,.42.03.14-.05.34-.21h.06Z"/>
        </g>
        <g>
          <path class="cls-15" d="M1.24,4.92c-.09.08-.18.16-.26.24-.06.05-.13.1-.18.16l.21-.1s.07.09.09.11l-.21.13c.14.19.09.31-.06.26h.06c-.15-.22-.31-.44-.38-.69.09-.05.13.12.17.12.02,0,.18-.14.2-.16.09-.07.16-.15.25-.23.03-.02.05-.05.08-.08.17.16.12.14.02.24Z"/>
          <path class="cls-4" d="M.51,5.02c.07.25.23.46.38.67h-.06c-.12-.02-.52-.61-.32-.67Z"/>
        </g>
        <g>
          <path class="cls-10" d="M.18,4.21c-.09,0-.15-.21-.06-.35.02.01.04-.01.04,0,.05.02,0,.3.01.36Z"/>
          <g>
            <path class="cls-11" d="M.14,3.04c-.04.21-.05.43-.04.65,0,.05.06.14,0,.16-.14-.07-.13-.8.04-.81Z"/>
            <path class="cls-15" d="M.49,3.26s0,.19.02.21c.02.01.39,0,.45,0,.09,0,.29,0,.19.16-.06.09-.11.02-.17.01-.05,0-.41,0-.51,0-.06,0-.12,0-.18,0-.02.3-.19.13,0,.34l.19-.08s0,.09,0,.09c-.03,0-.19.08-.19.08-.01.02.02.11-.11.13-.01-.06.03-.34-.01-.36,0,0-.02.02-.04,0,0,0,0,0-.03,0,.06-.02,0-.12,0-.16-.01-.21,0-.43.04-.65.22.05-.07.22.35.22Z"/>
          </g>
        </g>
        <g>
          <path class="cls-15" d="M4.82,5.53s.14.32.17.38c.03.06.1.27.12.27.01,0,.23-.15.2.07-.07-.02-.17.07-.23.09-.06.03-.25.07-.25.13-.15-.02-.16-.13.09-.22-.04-.08-.07-.17-.1-.25-.05-.12-.11-.24-.17-.36-.07-.13-.23-.3,0-.35.08,0,.1.2.16.24Z"/>
          <path class="cls-21" d="M5.31,6.25s-.01.02-.02.03c-.06.09-.35.21-.46.2,0-.06.19-.1.25-.13.06-.03.16-.12.23-.09Z"/>
        </g>
        <g>
          <path class="cls-4" d="M2.49,6.45c.07.04.14.07.2.13-.02.08-.23.04-.25-.03-.01-.1.04-.09.05-.1Z"/>
          <path class="cls-15" d="M2.68,6.36s.01.21,0,.22c-.06-.06-.12-.1-.2-.13.04-.04.08-.06.12-.09,0,0,0,0,.07,0Z"/>
        </g>
        <g>
          <path class="cls-15" d="M5.31,5.66c.05.06.2.17.23.22l-.24.15h-.02c.02-.15.17-.03-.06-.29.03-.02.06-.05.08-.08Z"/>
          <path class="cls-4" d="M5.3,6.03l.24-.15s.04,0,.02.07c-.03.09-.18.17-.25.08Z"/>
        </g>
        <g>
          <path class="cls-4" d="M4.29,6.54c-.09.05-.16.04-.16-.07l.21-.08s.04,0,.03.05c0,.02-.06.09-.08.1Z"/>
          <path class="cls-15" d="M4.23,6.29s.09.07.11.09l-.21.08s.01-.11.02-.15c0,0,.04-.02.08-.03Z"/>
        </g>
        <g>
          <path class="cls-5" d="M6.28,3.6c0,.09-.02.17-.04.25-.02.1,0,.1,0,.1-.03.18-.08.38-.16.55,0,.02-.04.09-.06.11-.06.12-.15.22-.21.34-.05-.05-.24-.2-.27-.24,0-.01-.03-.03-.03-.04.05-.07.32-.59.31-.62,0,0-.02,0-.02,0,.15-.09.02-.22.02-.23,0-.02.04-.16.04-.21.14,0,.28,0,.42,0Z"/>
          <path class="cls-18" d="M3.95.4s.07.02.12.04c.14.03.28.09.41.14.01,0,.02-.01.02,0,0,0,.02.03.07.05.01,0,.02-.01.02,0,.06.03.2.13.29.15-.13.17-.28.34-.41.52-.31-.16-.63-.31-.98-.32,0-.09-.01-.54,0-.57,0-.02.04-.01.05-.02.13.03.27.01.4.04Z"/>
          <path class="cls-20" d="M3.35.96c-.39,0-.78.06-1.11.28,0-.02-.22-.36-.26-.42.12-.05.23-.14.35-.19,0,0,.01.01.02,0,.07-.03.06-.05.06-.05,0,0,.01.02.05,0,.11-.04.22-.1.33-.13,0,0,.02,0,.12-.02,0,0,0-.02,0-.02,0,0,.01.01.03,0,.12-.03.23-.05.35-.08,0,0,.03.01.04.02.02.07-.02.47,0,.58Z"/>
          <path class="cls-5" d="M5.95,1.92c.05.11.1.26.17.35,0,0-.04.04.02.07,0,.07.05.17.07.25.04.16.08.45.08.61,0,0-.02,0-.02,0,0,.03,0,.22,0,.23-.02.01-.3,0-.39,0-.03-.05.02-.14-.04-.17,0-.02,0-.08,0-.12.02-.37-.1-.63-.29-.94.1-.06.29-.19.41-.27Z"/>
          <path class="cls-5" d="M5.62,1.37s.05.07.08.1c.03.04.11.2.18.26-.16.12-.29.2-.46.3l-.19-.25c.11-.1-.03-.25-.06-.26-.04-.01-.13.01-.14,0-.02,0-.28-.21-.33-.24.04-.04.19-.28.35-.45.14.12.47.39.57.52Z"/>
          <path class="cls-24" d="M.98,3.64c0,.1,0,.21,0,.31-.29.04-.13.34-.02.2,0,0,.02,0,.02,0,.01.03.04.21.06.27.03.11.08.23.11.33-.08.07-.16.15-.25.23-.05-.11-.14-.21-.19-.32-.02-.04-.04-.08-.06-.12-.03-.08-.15-.48-.16-.55,0,0,0-.06,0-.09,0-.07,0-.19,0-.26.1,0,.46,0,.51,0Z"/>
          <path class="cls-14" d="M2.02,1.25c-.34.22-.57.56-.74.92-.12-.07-.24-.16-.36-.24.08-.15.18-.29.29-.41.02-.03.05-.07.06-.08.14-.16.4-.36.57-.5.07.1.12.2.18.3Z"/>
          <path class="cls-14" d="M1.08,2.26c-.15.31-.29.91-.12,1.21-.06,0-.43.01-.45,0-.02-.01.02-.19-.02-.21,0,0,.01,0,.02,0,.02-.03.05-.5.16-.75.06-.03.04-.11.05-.11,0,0,.01,0,.03-.02.04-.08.07-.18.1-.26.08.05.16.1.24.15Z"/>
          <path class="cls-5" d="M1.57,5.27c.02.13.27.23.33.09l.16.13c-.08.15-.17.29-.26.42-.13-.11-.29-.2-.42-.31-.02-.02-.05-.05-.08-.08-.02-.02-.17-.18-.2-.21-.02-.03-.07-.08-.09-.11,0-.01-.03-.04-.03-.06.09-.08.18-.16.26-.24l.33.35Z"/>
          <g>
            <path class="cls-15" d="M5.44.72c-.04.27-.26,0-.3,0-.01,0-.08.1-.1.12-.16.18-.31.41-.35.45-.09.11-.08.07-.2,0v-.03c.12-.18.27-.35.4-.52.02-.02.11-.12.1-.14,0-.04-.17-.09-.11-.2.17.12.35.23.52.35l.03-.05Z"/>
            <path class="cls-11" d="M5.44.72l-.03.05c-.17-.12-.35-.23-.52-.35.08-.17.55.2.56.3Z"/>
          </g>
          <g>
            <path class="cls-15" d="M3.63.23c0,.08-.03.09-.08.13-.01.01-.04,0-.05.02-.01.03,0,.48,0,.57-.05,0-.11,0-.16,0-.03-.11.01-.51,0-.58,0-.01-.03-.02-.04-.02-.04-.04-.11-.08-.08-.11h.41Z"/>
            <path class="cls-11" d="M3.63.23h-.41c.03-.16.39-.16.41,0Z"/>
          </g>
          <path class="cls-5" d="M3.36,6.12c0,.12.01.23,0,.35-.2,0-.39-.03-.58-.08-.03,0-.07-.02-.1-.03-.07-.02-.06,0-.07,0-.02,0-.26-.1-.3-.11-.13-.05-.25-.13-.38-.2.08-.13.16-.26.24-.39.19.09.36.21.56.28.2.07.42.09.44.1.02.01-.03.07.18.08Z"/>
          <path class="cls-5" d="M5.4,4.86s.25.21.34.3c-.15.16-.27.35-.42.5-.02.02-.06.05-.08.08-.04.04-.2.17-.24.17-.03-.05-.18-.34-.17-.38.01-.03.34-.28.49-.53.05-.09.04-.16.08-.14Z"/>
          <path class="cls-5" d="M4.82,6c-.14.12-.41.23-.59.29-.03.01-.07.03-.08.03-.2.06-.57.12-.59.13-.04.04-.04-.32-.03-.33,0-.01.09,0,.11,0,.34-.03.19-.14.26-.18.03-.02.49-.09.75-.29.06.12.12.23.17.36Z"/>
          <g>
            <path class="cls-15" d="M3.64,6.12s-.11,0-.11,0c-.01.01,0,.38.03.33-.04.02-.03.13-.03.14,0,.01.25-.03.17.13-.03-.04-.01,0-.02,0-.15,0-.31-.02-.47,0-.04-.14.15-.11.16-.13,0,0,0-.1,0-.12,0-.12-.01-.23,0-.35,0-.23-.03-.32.13-.3.08.05.03.26.04.28.01.02.12-.02.11.02Z"/>
            <path class="cls-21" d="M3.7,6.72s-.04.04-.07.06c-.09.04-.38.07-.42-.07.15-.01.31.01.47,0,0,0,0-.04.02,0Z"/>
          </g>
          <g>
            <g>
              <path class="cls-12" d="M5.86,3.61c0,.05-.04.2-.04.21,0,.01.13.14-.02.23-.21-.17-.12-.24-.09-.35.04-.01.02-.08.04-.09,0,0,.08,0,.11,0Z"/>
              <path class="cls-12" d="M5.83,3.14s0,.1,0,.12c0,.04-.05.07-.09.06-.19-.1-.07-.44.09-.18Z"/>
            </g>
            <path class="cls-12" d="M5.23,1.8c-.07.04-.29-.16-.2-.25,0,0,.09-.02.14,0,.03,0,.17.16.06.26Z"/>
            <path class="cls-27" d="M.97,3.95c0,.06.02.15-.02.2-.11.14-.27-.16.02-.2Z"/>
            <path class="cls-12" d="M1.9,5.36c-.06.14-.31.03-.33-.09-.05-.3.43-.14.33.09Z"/>
            <g>
              <path class="cls-3" d="M3.51.96c.36.01.67.16.98.32v.03c.13.07.11.11.21,0,.05.03.31.23.33.24-.09.09.13.29.2.25l.19.25c-.07.04-.14.02-.14.14.12.13.15.08.26.01.2.31.32.57.29.94-.16-.26-.28.08-.09.18.04,0,.08-.01.09-.06.06.03,0,.12.04.17-.11,0-.27-.02-.27.14.06.1.15-.01.11.14-.02.11-.11.18.09.35,0,0,.02,0,.02,0,.01.03-.26.56-.31.62,0,.01.02.03.03.04l-.06-.06c-.13.1-.16.1-.08.2-.05-.03-.03.05-.08.14-.15.26-.48.5-.49.53-.06-.03-.08-.23-.16-.24-.24.05-.07.21,0,.35-.26.2-.71.27-.75.29-.07.04.08.15-.26.18,0-.04-.1,0-.11-.02-.02-.02.03-.23-.04-.28-.15-.02-.13.07-.13.3-.21,0-.16-.06-.18-.08-.02-.01-.25-.04-.44-.1-.2-.07-.37-.19-.56-.28.07-.12.14-.24.21-.35,0-.05-.13-.09-.17-.12,0,0-.09-.1-.15-.07-.14.13.04.09.09.13.05.04-.07.2-.09.25l-.16-.13c.1-.24-.38-.4-.33-.09l-.33-.35c.1-.09.14-.08-.02-.24-.03.03-.05.05-.08.08-.03-.11-.08-.23-.11-.33-.02-.06-.05-.24-.06-.27,0,0-.01,0-.02,0,.03-.05.02-.13.02-.2,0-.1,0-.21,0-.31.06,0,.11.08.17-.01.1-.15-.1-.15-.19-.16-.17-.3-.03-.89.12-1.21.14.09.12.14.22-.07,0,0-.01,0,0-.01.16-.36.4-.71.74-.92.01.02.09.15.1.15.05,0,.15-.06.12-.16.33-.23.72-.28,1.11-.28.05,0,.11,0,.16,0Z"/>
              <g>
                <g>
                  <path class="cls-15" d="M2.3,1.7s.08-.14.1-.17c0,0,.07.02.08.03.02.04-.07.12.08.3-.24.09-.17.06-.25-.16Z"/>
                  <g>
                    <path class="cls-7" d="M2.25,1.4s0,.02.02.03c-.1,0-.07.04-.08.05,0,0-.04,0-.04.03,0,.05.24.18-.08.21.12.11-.02.07-.07-.04-.02-.15.09-.28.25-.27Z"/>
                    <path class="cls-7" d="M2.41,1.53s-.1.16-.1.17c-.11.13-.28.13-.3-.03.05.11.19.15.07.04.32-.03.09-.16.08-.21,0-.04.04-.03.04-.03.1.01.04.17.13.07,0-.07-.01-.08-.06-.12-.01-.01-.02-.01-.02-.03.13,0,.13.1.16.13Z"/>
                    <path class="cls-26" d="M2.27,1.43s.06.05.06.12c-.09.1-.03-.06-.13-.07,0,0-.02-.06.08-.05Z"/>
                  </g>
                </g>
                <g>
                  <g>
                    <path class="cls-7" d="M1.68,2.22s-.02-.02-.04-.04c-.04-.08-.17.05-.19.1-.06-.06,0-.23.07-.28.2-.14.38.14.16.22Z"/>
                    <g>
                      <path class="cls-15" d="M1.68,2.22s-.01.06,0,.06c.02.09.34.16.07.26-.07-.06-.2-.09-.26-.13l.16-.23s.03.01.04.04Z"/>
                      <path class="cls-13" d="M1.64,2.19l-.16.23s0,0-.02,0c.02-.02,0-.01-.02-.04-.02,0,0-.06,0-.08.02-.06.14-.18.19-.1Z"/>
                      <path class="cls-15" d="M1.47,2.4s-.03-.01-.02-.04c.02.02.03.02.02.04Z"/>
                    </g>
                  </g>
                  <g>
                    <path class="cls-12" d="M2.21,5.18s-.01.07-.06.07c-.05-.05-.23,0-.09-.13.06-.03.14.06.15.07Z"/>
                    <path class="cls-12" d="M5.2,4.68c.21-.02.17.36-.08.41-.18-.07-.07-.39.08-.41Z"/>
                    <path class="cls-15" d="M2.85,4.15h.08c.14.18-.22.18-.08,0Z"/>
                    <path class="cls-15" d="M5.33,4.35h.07c.13.21-.25.16-.07,0Z"/>
                    <path class="cls-15" d="M4.38,4.09c.26.02-.08.29-.04.02l.04-.02Z"/>
                    <path class="cls-15" d="M3.95,4.36h.06c.16.19-.22.18-.06,0Z"/>
                    <path class="cls-15" d="M2.87,5.09c.25-.02-.03.3-.03.03l.03-.03Z"/>
                    <path class="cls-15" d="M3.73,4.85h.06c.14.2-.23.17-.06,0Z"/>
                    <path class="cls-15" d="M5.04,3.63h.05c.18.17-.24.17-.05,0Z"/>
                    <path class="cls-6" d="M4.42,2.27c.24.05-.1.26-.04.02l.04-.02Z"/>
                    <path class="cls-15" d="M4.15,3.44c.12.18-.2.2-.07,0h.07Z"/>
                    <path class="cls-19" d="M3.25,1.89h.06c.12.19-.23.15-.06,0Z"/>
                    <path class="cls-22" d="M4.14,2.27c.22.01-.03.25-.03.03l.03-.03Z"/>
                    <path class="cls-15" d="M3.53,3.46c.2.03-.06.24-.03.02l.03-.02Z"/>
                    <path class="cls-15" d="M4.67,2.81l.03.03c0,.18-.24.02-.03-.03Z"/>
                    <path class="cls-15" d="M2.36,3.87h.05c.12.13-.15.17-.05,0Z"/>
                    <path class="cls-8" d="M2.9,1.82c.14.04,0,.2-.05.05l.05-.05Z"/>
                    <path class="cls-15" d="M3.37,2.71c.19,0-.02.24-.02.02l.02-.02Z"/>
                    <path class="cls-8" d="M2.34,2.28c.13.03.02.19-.05.06l.05-.06Z"/>
                    <path class="cls-9" d="M1.32,3.46c.18.04-.04.22-.02.02l.02-.02Z"/>
                    <path class="cls-15" d="M2.8,2.92c.15.06-.04.2-.03.02l.03-.02Z"/>
                    <path class="cls-15" d="M3.67,2.35h.05c.09.12-.14.13-.05,0Z"/>
                    <path class="cls-2" d="M2.3,4.16s.04.13.02.13c-.04-.02-.04-.13-.02-.13Z"/>
                    <g>
                      <path class="cls-12" d="M4,5.14s.01-.03.02-.04c.04,0,.08-.05.08-.08.02-.01.03,0,.03,0,.3-.07.34.25.17.35-.13.08-.33-.07-.31-.22Z"/>
                      <path class="cls-16" d="M4,5.14c-.02.15.18.29.31.22.16-.1.13-.42-.17-.35.3-.13.38.26.18.37-.17.09-.36-.05-.32-.24Z"/>
                      <path class="cls-16" d="M4.02,5.11s.06-.07.08-.08c0,.04-.04.09-.08.08Z"/>
                    </g>
                    <g>
                      <path class="cls-7" d="M3.32,1.1c.3-.02.37.47-.08.46-.09-.09-.18-.11-.16-.27.02-.09.15-.19.24-.19Z"/>
                      <path class="cls-27" d="M3.33,1.38c.27.02-.06.29-.05.04l.05-.04Z"/>
                      <path class="cls-27" d="M3.42,1.21h.05c.16.21-.19.18-.05,0Z"/>
                      <path class="cls-1" d="M3.26,1.21l.05.02c.05.2-.24.1-.05-.02Z"/>
                    </g>
                    <g>
                      <path class="cls-7" d="M2.96,2.04c.46.04.17.6-.13.41-.14-.09-.16-.38.13-.41Z"/>
                      <path class="cls-27" d="M2.98,2.3h.07c.14.18-.24.19-.07,0Z"/>
                      <path class="cls-1" d="M2.91,2.13h.05c.1.16-.22.16-.05,0Z"/>
                      <path class="cls-1" d="M3.04,2.13h.07c.09.19-.17.12-.07,0Z"/>
                    </g>
                    <g>
                      <path class="cls-7" d="M2.15,2.63c.09-.02.18.02.23.09.04.05.02.07.02.08,0,.01.09.06,0,.2-.07.1-.23.13-.33.06-.17-.11-.11-.39.08-.42Z"/>
                      <path class="cls-1" d="M2.27,2.68c.11.03.13.17,0,.15-.06-.02-.05-.12,0-.15Z"/>
                      <path class="cls-1" d="M2.16,2.86l.07.03c.01.2-.23.06-.07-.03Z"/>
                      <path class="cls-17" d="M2.31,2.86c.16.05-.06.25-.06.05l.06-.05Z"/>
                      <path class="cls-1" d="M2.12,2.68h.03c.03.21-.18.11-.03,0Z"/>
                    </g>
                    <g>
                      <path class="cls-1" d="M4.02,2.66c.36-.04.31.56-.03.44-.21-.07-.19-.42.03-.44Z"/>
                      <path class="cls-16" d="M4.08,2.88c.16-.04.14.22-.03.17-.08-.04-.04-.15.03-.17Z"/>
                      <path class="cls-27" d="M4.02,2.73h.1c.02.19-.25.13-.1,0Z"/>
                    </g>
                    <g>
                      <path class="cls-7" d="M1.95,3.36c.38-.08.35.59-.02.41-.19-.1-.13-.38.02-.41Z"/>
                      <path class="cls-27" d="M2.08,3.58l.06.02c.04.25-.3.11-.06-.02Z"/>
                      <path class="cls-1" d="M2.02,3.41c.11,0,.18.14.08.11-.04,0-.04-.11-.11,0-.1,0-.05-.12.04-.12Z"/>
                    </g>
                    <g>
                      <path class="cls-1" d="M1.4,4.23c.38-.08.31.56-.04.38-.17-.09-.09-.35.04-.38Z"/>
                      <path class="cls-27" d="M1.55,4.32c.19.16-.08.39-.14.18.2,0,.13-.04.14-.18Z"/>
                    </g>
                    <g>
                      <path class="cls-7" d="M4.06,1.59c.32-.04.36.39.08.41-.29.03-.35-.38-.08-.41Z"/>
                      <path class="cls-27" d="M4.12,1.84c.24.02-.05.26-.05.04l.05-.04Z"/>
                      <path class="cls-27" d="M4.19,1.68c.21.12-.06.24-.03.02l.03-.02Z"/>
                      <path class="cls-1" d="M4.05,1.67h.04c.11.15-.17.18-.04,0Z"/>
                    </g>
                    <g>
                      <path class="cls-7" d="M2.72,3.36c.27-.05.35.29.17.41-.3.19-.48-.35-.17-.41Z"/>
                      <path class="cls-27" d="M2.86,3.7l-.04-.09c.06-.12-.14-.2-.15,0h-.04c-.1-.19.28-.27.31-.05-.03.05-.05.1-.08.15Z"/>
                      <path class="cls-27" d="M2.86,3.7c-.05.07-.08.1-.17.01,0-.14.09-.03.13-.11l.04.09Z"/>
                    </g>
                    <g>
                      <path class="cls-7" d="M1.23,2.97c.28-.05.31.51-.08.41-.2-.19-.02-.39.08-.41Z"/>
                      <path class="cls-17" d="M1.23,3.21h.08c.17.17-.25.17-.08,0Z"/>
                      <path class="cls-1" d="M1.34,3.06c.11.03.06.21-.02.06l.02-.06Z"/>
                      <path class="cls-1" d="M1.23,3.04l.02.02c.04.13-.22.08-.02-.02Z"/>
                    </g>
                    <g>
                      <path class="cls-1" d="M4.81,2.02c.23-.02.36.3.19.41-.28.17-.5-.37-.19-.41Z"/>
                      <path class="cls-27" d="M4.94,2.13c.14.07.03.14.03.15,0,.02.09.17-.13.15-.19-.15.04-.15.05-.16,0,0-.05-.07.04-.13Z"/>
                      <path class="cls-1" d="M4.84,2.08s.08.01.08.02l-.15.09s.02-.11.07-.11Z"/>
                    </g>
                    <g>
                      <path class="cls-1" d="M4,3.69c.37,0,.2.61-.11.41-.18-.12-.1-.4.11-.41Z"/>
                      <path class="cls-12" d="M4.13,4.02s-.05.06-.07.07c-.09.03-.07-.03-.07-.03.04,0,.08-.11.04-.13.02-.04,0-.06-.04-.08,0-.02-.05.02.03-.06.1,0,.07.13.08.19,0,.01-.05,0,.04.03Z"/>
                      <path class="cls-12" d="M4.13,4.02c-.09-.04-.04-.02-.04-.03,0-.07.02-.19-.08-.19,0,0-.01-.05.07-.03.08.07.1.17.04.25Z"/>
                      <path class="cls-23" d="M3.99,4.06s-.06-.02-.09-.05c.03-.06.06-.04.07-.04,0,0,.04.01.07-.04.04.02,0,.13-.04.13Z"/>
                      <path class="cls-25" d="M4.03,3.93s-.06.04-.07.04c0-.02.02-.07.03-.11.04.01.05.04.04.08Z"/>
                    </g>
                    <g>
                      <path class="cls-1" d="M2.37,4.42c.44-.09.36.62,0,.43-.2-.1-.16-.4,0-.43Z"/>
                      <path class="cls-12" d="M2.37,4.66c.06.04.09.01.12-.04-.01-.09-.09-.08-.09-.08-.02-.02-.02-.04-.02-.07.36-.09.31.43.06.37-.08-.02-.06-.12-.06-.18Z"/>
                      <path class="cls-1" d="M2.37,4.66s-.05-.06.03-.12c0,0,.08-.01.09.08-.03.05-.07.08-.12.04Z"/>
                    </g>
                    <g>
                      <path class="cls-1" d="M3.04,4.32c.05.03.08-.14.19-.06,0,0,.03.04.03.04.03.1-.04.06-.06.07-.07.04,0,.13,0,.14,0,0-.01,0,0,.02,0,.01-.05.13.11.15.13.02.35-.1.29-.34.03-.03-.02-.09-.04-.12-.1-.13-.25-.12-.39-.06.29-.21.6.16.42.43-.18.27-.62.07-.54-.27Z"/>
                      <path class="cls-1" d="M3.58,4.34s-.02-.04-.02-.04c-.01-.02-.02-.05-.04-.07-.18,0,0,.2-.2.17,0,0-.01-.03-.03-.02,0,0-.03.08-.07.12,0,0-.01,0-.02,0,0,0-.07-.11,0-.14.02,0,.09.03.06-.07.07-.11.14-.02.15-.03.06-.14-.14-.11-.17,0-.11-.08-.13.09-.19.06.01-.06.06-.13.11-.16.14-.05.29-.07.39.06.02.03.06.08.04.12Z"/>
                      <path class="cls-12" d="M3.56,4.31c0,.22-.22.5-.38.23,0-.02,0-.02,0-.02,0,0,.02,0,.02,0,.08.04.12-.02.1-.1.2.03.02-.17.2-.17.02.02.03.04.04.07Z"/>
                      <path class="cls-27" d="M3.58,4.34c.06.24-.16.36-.29.34-.16-.02-.11-.14-.11-.15.16.27.38,0,.38-.23,0,0,0,0,.02.04Z"/>
                      <path class="cls-12" d="M3.26,4.31s-.03-.04-.03-.04c.03-.1.24-.13.17,0,0,0-.07-.08-.15.03Z"/>
                      <path class="cls-17" d="M3.31,4.41c.02.08-.02.14-.1.1.04-.04.06-.12.07-.12.02-.01.03.02.03.02Z"/>
                    </g>
                    <g>
                      <path class="cls-1" d="M5.1,2.89c.32-.05.36.51.05.46-.22-.03-.27-.43-.05-.46Z"/>
                      <path class="cls-12" d="M5.06,3.25c-.02-.15-.02-.23.13-.29.11.03.18.17.13.27-.06.12-.18.12-.26.02Z"/>
                      <path class="cls-16" d="M5.19,2.96c-.15.06-.16.15-.13.29-.11-.13-.06-.34.13-.29Z"/>
                    </g>
                    <g>
                      <path class="cls-1" d="M4.61,3.32c.32-.02.29.49-.02.44-.22-.04-.22-.43.02-.44Z"/>
                      <path class="cls-12" d="M4.61,3.36c.25-.03.25.35.04.37-.2.02-.25-.34-.04-.37Z"/>
                    </g>
                    <g>
                      <path class="cls-16" d="M2.63,5.27c.21-.02.32.27.15.37-.27.16-.44-.34-.15-.37Z"/>
                      <path class="cls-12" d="M2.68,5.3c.1,0,.22.15.13.27-.13.17-.43-.07-.22-.25.09,0,.09-.02.09-.02Z"/>
                    </g>
                    <g>
                      <path class="cls-27" d="M4.88,4.1c.29-.03.28.44.05.48-.32.06-.31-.45-.05-.48Z"/>
                      <path class="cls-16" d="M4.83,4.53c.12.03.08-.02.08-.02.03-.02.09-.05.1-.08.13-.28-.29-.43-.29.01-.08-.15.03-.26.15-.32.34-.01.23.51-.04.41Z"/>
                      <g>
                        <path class="cls-12" d="M4.83,4.53c-.06-.01-.08-.04-.1-.09,0-.44.42-.29.29-.01-.02.03-.08.07-.1.08,0,0,.03.05-.08.02Z"/>
                        <path class="cls-16" d="M4.87,4.28h.04c.12.15-.17.13-.04,0Z"/>
                      </g>
                    </g>
                  </g>
                </g>
              </g>
            </g>
          </g>
        </g>
      </g>
    </g>
  </g>
</svg>