<?xml version="1.0" encoding="UTF-8"?>
<svg id="bonusItems" xmlns="http://www.w3.org/2000/svg" xmlns:xlink="http://www.w3.org/1999/xlink" viewBox="0 0 100 100">
  <defs>
    <style>
      .cls-1 {
        fill: #fff;
      }

      .cls-2 {
        fill: url(#linear-gradient);
      }
    </style>
    <linearGradient id="linear-gradient" x1="-17.09" y1="-3.79" x2="38.9" y2="16.1" gradientUnits="userSpaceOnUse">
      <stop offset="0" stop-color="#016b39"/>
      <stop offset=".07" stop-color="#056d3a"/>
      <stop offset=".15" stop-color="#13753d"/>
      <stop offset=".24" stop-color="#2b8342"/>
      <stop offset=".33" stop-color="#4b9649"/>
      <stop offset=".43" stop-color="#75ae52"/>
      <stop offset=".52" stop-color="#a7cc5e"/>
      <stop offset=".56" stop-color="#bed963"/>
      <stop offset=".57" stop-color="#bad863"/>
      <stop offset=".63" stop-color="#a0d06a"/>
      <stop offset=".69" stop-color="#8bc970"/>
      <stop offset=".77" stop-color="#7dc574"/>
      <stop offset=".86" stop-color="#74c276"/>
      <stop offset="1" stop-color="#72c277"/>
    </linearGradient>
  </defs>
  <g id="Steroids">
    <g id="blast_x5F_charge">
      <path class="cls-2" d="M6.04,7.59h-3.54c-.23,0-.52-.15-.64-.36L.09,4.17c-.12-.2-.12-.53,0-.73L1.86.36c.11-.2.39-.36.64-.36h3.54c.24,0,.52.17.64.36l1.77,3.07c.12.21.12.53,0,.74l-1.77,3.06c-.12.21-.41.36-.64.36Z"/>
      <polygon class="cls-1" points="5.66 4.31 6.99 3.97 5.61 3.42 6.49 2.23 5.19 2.63 5.28 1.26 4.32 2.42 3.45 1.2 3.44 2.55 2.17 2.04 2.98 3.33 1.54 3.78 2.82 4.21 1.96 5.24 3.41 4.88 3.4 6.39 4.21 5.29 4.94 6.44 5.03 4.95 6.46 5.43 5.66 4.31"/>
    </g>
  </g>
</svg>