<?xml version="1.0" encoding="UTF-8"?>
<svg id="bonusItems" xmlns="http://www.w3.org/2000/svg" xmlns:xlink="http://www.w3.org/1999/xlink" viewBox="0 0 100 100">
  <defs>
    <style>
      .cls-1 {
        fill: #fff;
      }

      .cls-2 {
        fill: url(#linear-gradient);
      }
    </style>
    <linearGradient id="linear-gradient" x1="-17.09" y1="-3.79" x2="38.9" y2="16.1" gradientUnits="userSpaceOnUse">
      <stop offset="0" stop-color="#2e3192"/>
      <stop offset=".08" stop-color="#2d47a1"/>
      <stop offset=".24" stop-color="#2b72bc"/>
      <stop offset=".39" stop-color="#2a91d1"/>
      <stop offset=".51" stop-color="#29a4dd"/>
      <stop offset=".6" stop-color="#29abe2"/>
      <stop offset="1" stop-color="#0071bc"/>
    </linearGradient>
  </defs>
  <g id="Steroids">
    <g id="health_x5F_up">
      <path class="cls-2" d="M6.04,7.59h-3.54c-.23,0-.52-.15-.64-.36L.09,4.17c-.12-.2-.12-.53,0-.73L1.86.36c.11-.2.39-.36.64-.36h3.54c.24,0,.52.17.64.36l1.77,3.07c.12.21.12.53,0,.74l-1.77,3.06c-.12.21-.41.36-.64.36Z"/>
      <polygon class="cls-1" points="6.74 2.99 5.2 2.99 5.2 1.45 3.6 1.45 3.6 2.99 2.06 2.99 2.06 4.59 3.6 4.59 3.6 6.13 5.2 6.13 5.2 4.59 6.74 4.59 6.74 2.99"/>
    </g>
  </g>
</svg>