<?xml version="1.0" encoding="UTF-8"?>
<svg id="bonusItems" xmlns="http://www.w3.org/2000/svg" xmlns:xlink="http://www.w3.org/1999/xlink" viewBox="0 0 100 100">
  <defs>
    <style>
      .cls-1 {
        fill: #fff;
      }

      .cls-2 {
        fill: url(#linear-gradient);
      }
    </style>
    <linearGradient id="linear-gradient" x1="-11.79" y1="-1.9" x2="44.2" y2="17.99" gradientUnits="userSpaceOnUse">
      <stop offset="0" stop-color="#2e3192"/>
      <stop offset=".08" stop-color="#2d47a1"/>
      <stop offset=".24" stop-color="#2b72bc"/>
      <stop offset=".39" stop-color="#2a91d1"/>
      <stop offset=".51" stop-color="#29a4dd"/>
      <stop offset=".6" stop-color="#29abe2"/>
      <stop offset="1" stop-color="#0071bc"/>
    </linearGradient>
  </defs>
  <g id="Steroids">
    <g id="player_x5F_up">
      <path class="cls-2" d="M8.44,3.48L6.67.39c-.12-.21-.41-.39-.64-.39h-3.54c-.23,0-.52.17-.64.39L.09,3.48c-.12.21-.12.52,0,.73l1.77,3.06c.11.2.39.33.64.33h3.54c.24,0,.52-.14.64-.33l1.77-3.04c.12-.2.12-.54,0-.74ZM4.29,1.63c.21,0,.39.17.39.39s-.17.39-.39.39-.39-.17-.39-.39.17-.39.39-.39ZM2.33,5.41c-.28,0-.51-.23-.51-.51s.23-.51.51-.51.51.23.51.51-.23.51-.51.51ZM2.3,3.55c-.4,0-.72-.32-.72-.72s.32-.72.72-.72.72.32.72.72-.32.72-.72.72ZM3.58,7.03c-.22,0-.4-.18-.4-.4s.18-.4.4-.4.4.18.4.4-.18.4-.4.4ZM4.42,5.81c-.36,0-.65-.29-.65-.65s.29-.65.65-.65.65.29.65.65-.29.65-.65.65ZM4.98,1.32c0-.36.29-.65.65-.65s.65.29.65.65-.29.65-.65.65-.65-.29-.65-.65ZM5.56,2.96c0-.22.18-.4.4-.4s.4.18.4.4-.18.4-.4.4-.4-.18-.4-.4ZM6.45,6.11c-.26,0-.47-.21-.47-.47s.21-.47.47-.47.47.21.47.47-.21.47-.47.47ZM6.73,4.75c-.21,0-.37-.17-.37-.37s.17-.37.37-.37.37.17.37.37-.17.37-.37.37Z"/>
      <path class="cls-1" d="M3.35,1.01l-.81.47s-.07.06-.04.1h0s.06,0,.09,0l.1-.06.56.96-.2.11s-.04.09-.02.12h0s.08.07.11.05l.11-.06.62,1.06.13.22.42-.23.04.07-.42.23.07.12.42-.23.04.07-.42.23.07.12.42-.23.04.07-.42.23.07.12.42-.23.04.07-.42.23.15.25.37.04.15.26.09-.05.77,1.32-.03-.24-.66-1.12.09-.05-.15-.26.15-.34-.64-1.1-.62-1.06.11-.06s.04-.08.02-.12h0s-.08-.08-.11-.06l-.2.11-.56-.96.1-.06s.08-.03.06-.07h0s-.08-.03-.11-.02Z"/>
    </g>
  </g>
</svg>