<?xml version="1.0" encoding="UTF-8"?>
<svg id="bonusItems" xmlns="http://www.w3.org/2000/svg" xmlns:xlink="http://www.w3.org/1999/xlink" viewBox="0 0 100 100">
  <defs>
    <style>
      .cls-1 {
        fill: #fff;
      }

      .cls-2 {
        fill: url(#linear-gradient);
      }
    </style>
    <linearGradient id="linear-gradient" x1="-19.74" y1="-4.7" x2="36.25" y2="15.19" gradientUnits="userSpaceOnUse">
      <stop offset="0" stop-color="#2e3192"/>
      <stop offset=".08" stop-color="#2d47a1"/>
      <stop offset=".24" stop-color="#2b72bc"/>
      <stop offset=".39" stop-color="#2a91d1"/>
      <stop offset=".51" stop-color="#29a4dd"/>
      <stop offset=".6" stop-color="#29abe2"/>
      <stop offset="1" stop-color="#0071bc"/>
    </linearGradient>
  </defs>
  <g id="Steroids">
    <g id="projectile_x5F_up">
      <path class="cls-2" d="M6.04,7.67h-3.54c-.24,0-.52-.18-.64-.39L.09,4.2c-.12-.21-.12-.54,0-.74L1.86.37c.12-.21.4-.37.64-.37h3.54c.23,0,.52.17.64.37l1.77,3.08c.12.2.12.53,0,.74l-1.77,3.09c-.12.2-.4.39-.64.39ZM2.67.51c-.16,0-.37.12-.45.27L.63,3.55c-.08.14-.08.38,0,.52l1.59,2.76c.08.14.29.25.45.25h3.19c.17,0,.37-.11.45-.25l1.59-2.76c.08-.14.08-.38,0-.53l-1.59-2.77c-.08-.15-.29-.27-.45-.27h-3.19Z"/>
      <path class="cls-1" d="M5.33,4.19c1.16-.72,1.67-1.5,1.41-1.94-.25-.44-1.18-.38-2.39.27-.12-.03-.14-.02-.18,0l-2.16,1.25c-.09.05-.24.25-.21.39l-.11.06-.06-.09c-.03-.06-.1-.08-.14-.06s-.06.1-.02.15l.94,1.61c.03.06.1.08.14.06s.06-.1.02-.15l-.05-.09.11-.06c.1.09.35.06.44,0l2.16-1.25s.06-.03.09-.16ZM5.37,3.95l-.29-.5c.89-.51,1.22-.78,1.53-1.1.13.3-.21.92-1.24,1.6ZM2.43,5.68l-.3-.51s0-.03.01-.04.03,0,.04.01l.3.51s0,.03-.01.04-.03,0-.04-.01ZM3,5.42s-.08,0-.1-.03l-.28-.48s0-.08.03-.1l2.09-1.22s.08,0,.1.03l.28.48s0,.08-.03.1l-2.09,1.22Z"/>
    </g>
  </g>
</svg>