<?xml version="1.0" encoding="UTF-8"?>
<svg id="bonusItems" xmlns="http://www.w3.org/2000/svg" xmlns:xlink="http://www.w3.org/1999/xlink" viewBox="0 0 100 100">
  <defs>
    <style>
      .cls-1 {
        fill: #fff;
      }

      .cls-2 {
        fill: url(#linear-gradient);
      }
    </style>
    <linearGradient id="linear-gradient" x1="0" y1="3.8" x2="8.53" y2="3.8" gradientUnits="userSpaceOnUse">
      <stop offset="0" stop-color="#ec2b2a"/>
      <stop offset="0" stop-color="#eb2a2b"/>
      <stop offset=".19" stop-color="#da2856"/>
      <stop offset=".36" stop-color="#ce2675"/>
      <stop offset=".5" stop-color="#c62588"/>
      <stop offset=".6" stop-color="#c4258f"/>
      <stop offset="1" stop-color="#912f3b"/>
    </linearGradient>
  </defs>
  <g id="Steroids">
    <g id="projectile_x5F_dg">
      <path class="cls-2" d="M6.04,7.59h-3.54c-.24,0-.52-.17-.64-.38L.09,4.14c-.12-.21-.12-.53,0-.74L1.86.35c.12-.21.4-.35.64-.35h3.54c.24,0,.52.14.64.35l1.77,3.06c.12.21.12.52,0,.73l-1.77,3.08c-.12.21-.4.37-.64.37ZM2.67.44c-.16,0-.37.14-.45.28L.63,3.5c-.08.14-.08.39,0,.53l1.59,2.78c.08.14.29.27.45.27h3.19c.16,0,.37-.13.45-.27l1.59-2.77c.08-.14.08-.39,0-.53l-1.59-2.78c-.08-.14-.29-.28-.45-.28h-3.19Z"/>
      <path class="cls-1" d="M5.36,4.07c1.16-.72,1.67-1.5,1.41-1.94-.25-.44-1.18-.38-2.39.27-.12-.03-.14-.02-.18,0l-2.16,1.25c-.09.05-.24.25-.21.39l-.11.06-.06-.09c-.03-.06-.1-.08-.14-.06s-.06.1-.02.15l.94,1.61c.03.06.1.08.14.06s.06-.1.02-.15l-.05-.09.11-.06c.1.09.35.06.44,0l2.16-1.25s.06-.03.09-.16ZM5.4,3.83l-.29-.5c.89-.51,1.22-.78,1.53-1.1.13.3-.21.92-1.24,1.6ZM2.46,5.56l-.3-.51s0-.03.01-.04.03,0,.04.01l.3.51s0,.03-.01.04-.03,0-.04-.01ZM3.03,5.3s-.08,0-.1-.03l-.28-.48s0-.08.03-.1l2.09-1.22s.08,0,.1.03l.28.48s0,.08-.03.1l-2.09,1.22Z"/>
    </g>
  </g>
</svg>